G75*
%MOIN*%
%OFA0B0*%
%FSLAX25Y25*%
%IPPOS*%
%LPD*%
%AMOC8*
5,1,8,0,0,1.08239X$1,22.5*
%
%ADD10C,0.00600*%
%ADD11C,0.01600*%
%ADD12C,0.00200*%
%ADD13C,0.00800*%
%ADD14C,0.00500*%
%ADD15C,0.01000*%
%ADD16C,0.00400*%
%ADD17C,0.00787*%
%ADD18R,0.03000X0.02500*%
%ADD19R,0.05000X0.11000*%
%ADD20C,0.00700*%
%ADD21C,0.00100*%
D10*
X0099143Y0026800D02*
X0099143Y0031800D01*
X0099143Y0034300D02*
X0099143Y0051800D01*
X0099143Y0054300D02*
X0099143Y0056800D01*
X0144143Y0056800D01*
X0144143Y0054300D01*
X0144143Y0056800D02*
X0144143Y0086800D01*
X0099143Y0086800D01*
X0099143Y0056800D01*
X0101643Y0059300D02*
X0101643Y0081800D01*
X0102643Y0081800D01*
X0102690Y0081688D02*
X0102877Y0081900D01*
X0103068Y0082108D01*
X0103265Y0082310D01*
X0103466Y0082508D01*
X0103672Y0082701D01*
X0103882Y0082890D01*
X0104097Y0083073D01*
X0104316Y0083251D01*
X0104540Y0083423D01*
X0104767Y0083590D01*
X0104998Y0083752D01*
X0105234Y0083908D01*
X0105472Y0084059D01*
X0105715Y0084203D01*
X0105961Y0084342D01*
X0106210Y0084475D01*
X0106462Y0084602D01*
X0106717Y0084723D01*
X0106975Y0084838D01*
X0107235Y0084946D01*
X0107498Y0085049D01*
X0107764Y0085144D01*
X0108031Y0085234D01*
X0108301Y0085317D01*
X0108573Y0085394D01*
X0108846Y0085464D01*
X0109121Y0085528D01*
X0109398Y0085585D01*
X0109676Y0085635D01*
X0109954Y0085679D01*
X0110234Y0085716D01*
X0110515Y0085746D01*
X0110796Y0085770D01*
X0111078Y0085787D01*
X0111360Y0085797D01*
X0111642Y0085800D01*
X0120643Y0081800D02*
X0122643Y0081800D01*
X0122690Y0081688D02*
X0122877Y0081900D01*
X0123068Y0082108D01*
X0123265Y0082310D01*
X0123466Y0082508D01*
X0123672Y0082701D01*
X0123882Y0082890D01*
X0124097Y0083073D01*
X0124316Y0083251D01*
X0124540Y0083423D01*
X0124767Y0083590D01*
X0124998Y0083752D01*
X0125234Y0083908D01*
X0125472Y0084059D01*
X0125715Y0084203D01*
X0125961Y0084342D01*
X0126210Y0084475D01*
X0126462Y0084602D01*
X0126717Y0084723D01*
X0126975Y0084838D01*
X0127235Y0084946D01*
X0127498Y0085049D01*
X0127764Y0085144D01*
X0128031Y0085234D01*
X0128301Y0085317D01*
X0128573Y0085394D01*
X0128846Y0085464D01*
X0129121Y0085528D01*
X0129398Y0085585D01*
X0129676Y0085635D01*
X0129954Y0085679D01*
X0130234Y0085716D01*
X0130515Y0085746D01*
X0130796Y0085770D01*
X0131078Y0085787D01*
X0131360Y0085797D01*
X0131642Y0085800D01*
X0140643Y0081800D02*
X0141643Y0081800D01*
X0141643Y0059300D01*
X0101643Y0059300D01*
X0111643Y0085800D02*
X0111931Y0085796D01*
X0112220Y0085786D01*
X0112508Y0085768D01*
X0112796Y0085744D01*
X0113083Y0085712D01*
X0113369Y0085673D01*
X0113655Y0085627D01*
X0113939Y0085575D01*
X0114221Y0085515D01*
X0114502Y0085448D01*
X0114782Y0085375D01*
X0115059Y0085295D01*
X0115334Y0085208D01*
X0115608Y0085114D01*
X0115879Y0085014D01*
X0116147Y0084907D01*
X0116412Y0084793D01*
X0116675Y0084673D01*
X0116935Y0084547D01*
X0117191Y0084414D01*
X0117445Y0084275D01*
X0117694Y0084130D01*
X0117941Y0083979D01*
X0118183Y0083822D01*
X0118421Y0083659D01*
X0118656Y0083490D01*
X0118886Y0083316D01*
X0119112Y0083136D01*
X0119333Y0082950D01*
X0119550Y0082759D01*
X0119762Y0082563D01*
X0119969Y0082362D01*
X0120171Y0082155D01*
X0120368Y0081944D01*
X0120560Y0081728D01*
X0131642Y0085800D02*
X0131931Y0085796D01*
X0132220Y0085786D01*
X0132508Y0085768D01*
X0132796Y0085743D01*
X0133083Y0085712D01*
X0133369Y0085673D01*
X0133654Y0085627D01*
X0133938Y0085574D01*
X0134221Y0085515D01*
X0134502Y0085448D01*
X0134781Y0085375D01*
X0135059Y0085295D01*
X0135334Y0085208D01*
X0135607Y0085114D01*
X0135878Y0085013D01*
X0136146Y0084907D01*
X0136412Y0084793D01*
X0136675Y0084673D01*
X0136934Y0084547D01*
X0137191Y0084414D01*
X0137444Y0084275D01*
X0137694Y0084130D01*
X0137940Y0083979D01*
X0138182Y0083822D01*
X0138421Y0083659D01*
X0138655Y0083490D01*
X0138885Y0083315D01*
X0139111Y0083135D01*
X0139332Y0082950D01*
X0139549Y0082759D01*
X0139761Y0082563D01*
X0139968Y0082361D01*
X0140170Y0082155D01*
X0140367Y0081944D01*
X0140559Y0081728D01*
X0164143Y0086800D02*
X0209143Y0086800D01*
X0209143Y0056800D01*
X0209143Y0054300D01*
X0209143Y0056800D02*
X0164143Y0056800D01*
X0164143Y0054300D01*
X0164143Y0056800D02*
X0164143Y0086800D01*
X0166643Y0081800D02*
X0167643Y0081800D01*
X0166643Y0081800D02*
X0166643Y0059300D01*
X0206643Y0059300D01*
X0206643Y0081800D01*
X0205643Y0081800D01*
X0205559Y0081728D02*
X0205367Y0081944D01*
X0205170Y0082155D01*
X0204968Y0082361D01*
X0204761Y0082563D01*
X0204549Y0082759D01*
X0204332Y0082950D01*
X0204111Y0083135D01*
X0203885Y0083315D01*
X0203655Y0083490D01*
X0203421Y0083659D01*
X0203182Y0083822D01*
X0202940Y0083979D01*
X0202694Y0084130D01*
X0202444Y0084275D01*
X0202191Y0084414D01*
X0201934Y0084547D01*
X0201675Y0084673D01*
X0201412Y0084793D01*
X0201146Y0084907D01*
X0200878Y0085013D01*
X0200607Y0085114D01*
X0200334Y0085208D01*
X0200059Y0085295D01*
X0199781Y0085375D01*
X0199502Y0085448D01*
X0199221Y0085515D01*
X0198938Y0085574D01*
X0198654Y0085627D01*
X0198369Y0085673D01*
X0198083Y0085712D01*
X0197796Y0085743D01*
X0197508Y0085768D01*
X0197220Y0085786D01*
X0196931Y0085796D01*
X0196642Y0085800D01*
X0187643Y0081800D02*
X0185643Y0081800D01*
X0185560Y0081728D02*
X0185368Y0081944D01*
X0185171Y0082155D01*
X0184969Y0082362D01*
X0184762Y0082563D01*
X0184550Y0082759D01*
X0184333Y0082950D01*
X0184112Y0083136D01*
X0183886Y0083316D01*
X0183656Y0083490D01*
X0183421Y0083659D01*
X0183183Y0083822D01*
X0182941Y0083979D01*
X0182694Y0084130D01*
X0182445Y0084275D01*
X0182191Y0084414D01*
X0181935Y0084547D01*
X0181675Y0084673D01*
X0181412Y0084793D01*
X0181147Y0084907D01*
X0180879Y0085014D01*
X0180608Y0085114D01*
X0180334Y0085208D01*
X0180059Y0085295D01*
X0179782Y0085375D01*
X0179502Y0085448D01*
X0179221Y0085515D01*
X0178939Y0085575D01*
X0178655Y0085627D01*
X0178369Y0085673D01*
X0178083Y0085712D01*
X0177796Y0085744D01*
X0177508Y0085768D01*
X0177220Y0085786D01*
X0176931Y0085796D01*
X0176643Y0085800D01*
X0176642Y0085800D02*
X0176360Y0085797D01*
X0176078Y0085787D01*
X0175796Y0085770D01*
X0175515Y0085746D01*
X0175234Y0085716D01*
X0174954Y0085679D01*
X0174676Y0085635D01*
X0174398Y0085585D01*
X0174121Y0085528D01*
X0173846Y0085464D01*
X0173573Y0085394D01*
X0173301Y0085317D01*
X0173031Y0085234D01*
X0172764Y0085144D01*
X0172498Y0085049D01*
X0172235Y0084946D01*
X0171975Y0084838D01*
X0171717Y0084723D01*
X0171462Y0084602D01*
X0171210Y0084475D01*
X0170961Y0084342D01*
X0170715Y0084203D01*
X0170472Y0084059D01*
X0170234Y0083908D01*
X0169998Y0083752D01*
X0169767Y0083590D01*
X0169540Y0083423D01*
X0169316Y0083251D01*
X0169097Y0083073D01*
X0168882Y0082890D01*
X0168672Y0082701D01*
X0168466Y0082508D01*
X0168265Y0082310D01*
X0168068Y0082108D01*
X0167877Y0081900D01*
X0167690Y0081688D01*
X0187690Y0081688D02*
X0187877Y0081900D01*
X0188068Y0082108D01*
X0188265Y0082310D01*
X0188466Y0082508D01*
X0188672Y0082701D01*
X0188882Y0082890D01*
X0189097Y0083073D01*
X0189316Y0083251D01*
X0189540Y0083423D01*
X0189767Y0083590D01*
X0189998Y0083752D01*
X0190234Y0083908D01*
X0190472Y0084059D01*
X0190715Y0084203D01*
X0190961Y0084342D01*
X0191210Y0084475D01*
X0191462Y0084602D01*
X0191717Y0084723D01*
X0191975Y0084838D01*
X0192235Y0084946D01*
X0192498Y0085049D01*
X0192764Y0085144D01*
X0193031Y0085234D01*
X0193301Y0085317D01*
X0193573Y0085394D01*
X0193846Y0085464D01*
X0194121Y0085528D01*
X0194398Y0085585D01*
X0194676Y0085635D01*
X0194954Y0085679D01*
X0195234Y0085716D01*
X0195515Y0085746D01*
X0195796Y0085770D01*
X0196078Y0085787D01*
X0196360Y0085797D01*
X0196642Y0085800D01*
X0209143Y0051800D02*
X0209143Y0034300D01*
X0209143Y0031800D02*
X0209143Y0026800D01*
X0206643Y0026800D01*
X0204143Y0026800D02*
X0189143Y0026800D01*
X0186643Y0026800D02*
X0169143Y0026800D01*
X0166643Y0026800D02*
X0164143Y0026800D01*
X0164143Y0031800D01*
X0164143Y0034300D02*
X0164143Y0051800D01*
X0149365Y0037438D02*
X0149365Y0033168D01*
X0151500Y0035303D02*
X0147230Y0035303D01*
X0144143Y0034300D02*
X0144143Y0051800D01*
X0144143Y0031800D02*
X0144143Y0026800D01*
X0141643Y0026800D01*
X0139143Y0026800D02*
X0124143Y0026800D01*
X0121643Y0026800D02*
X0104143Y0026800D01*
X0101643Y0026800D02*
X0099143Y0026800D01*
X0212230Y0035303D02*
X0216500Y0035303D01*
X0214365Y0037438D02*
X0214365Y0033168D01*
X0229501Y0119993D02*
X0254099Y0119993D01*
X0254099Y0133615D01*
X0229501Y0133615D01*
X0229501Y0119993D01*
X0175800Y0198300D02*
X0175800Y0225300D01*
X0175797Y0225519D01*
X0175789Y0225738D01*
X0175776Y0225957D01*
X0175757Y0226175D01*
X0175733Y0226393D01*
X0175704Y0226610D01*
X0175670Y0226827D01*
X0175630Y0227042D01*
X0175585Y0227257D01*
X0175534Y0227470D01*
X0175479Y0227682D01*
X0175418Y0227893D01*
X0175353Y0228102D01*
X0175282Y0228309D01*
X0175206Y0228515D01*
X0175125Y0228719D01*
X0175040Y0228921D01*
X0174949Y0229120D01*
X0174854Y0229317D01*
X0174753Y0229512D01*
X0174648Y0229705D01*
X0174539Y0229895D01*
X0174425Y0230082D01*
X0174306Y0230266D01*
X0174183Y0230447D01*
X0174055Y0230625D01*
X0173923Y0230801D01*
X0173787Y0230972D01*
X0173647Y0231141D01*
X0173503Y0231306D01*
X0173355Y0231467D01*
X0173203Y0231625D01*
X0173047Y0231779D01*
X0172887Y0231929D01*
X0172724Y0232076D01*
X0172557Y0232218D01*
X0172387Y0232356D01*
X0172213Y0232490D01*
X0172037Y0232620D01*
X0171857Y0232745D01*
X0171674Y0232866D01*
X0171488Y0232982D01*
X0171300Y0233094D01*
X0171109Y0233201D01*
X0170915Y0233304D01*
X0170719Y0233402D01*
X0170521Y0233495D01*
X0170320Y0233583D01*
X0170117Y0233666D01*
X0169912Y0233745D01*
X0169706Y0233818D01*
X0169498Y0233886D01*
X0169288Y0233949D01*
X0169076Y0234007D01*
X0168864Y0234060D01*
X0168650Y0234108D01*
X0168435Y0234150D01*
X0168219Y0234187D01*
X0168002Y0234219D01*
X0167784Y0234246D01*
X0167566Y0234267D01*
X0167348Y0234283D01*
X0167129Y0234294D01*
X0166910Y0234299D01*
X0166690Y0234299D01*
X0166471Y0234294D01*
X0166252Y0234283D01*
X0166034Y0234267D01*
X0165816Y0234246D01*
X0165598Y0234219D01*
X0165381Y0234187D01*
X0165165Y0234150D01*
X0164950Y0234108D01*
X0164736Y0234060D01*
X0164524Y0234007D01*
X0164312Y0233949D01*
X0164102Y0233886D01*
X0163894Y0233818D01*
X0163688Y0233745D01*
X0163483Y0233666D01*
X0163280Y0233583D01*
X0163079Y0233495D01*
X0162881Y0233402D01*
X0162685Y0233304D01*
X0162491Y0233201D01*
X0162300Y0233094D01*
X0162112Y0232982D01*
X0161926Y0232866D01*
X0161743Y0232745D01*
X0161563Y0232620D01*
X0161387Y0232490D01*
X0161213Y0232356D01*
X0161043Y0232218D01*
X0160876Y0232076D01*
X0160713Y0231929D01*
X0160553Y0231779D01*
X0160397Y0231625D01*
X0160245Y0231467D01*
X0160097Y0231306D01*
X0159953Y0231141D01*
X0159813Y0230972D01*
X0159677Y0230801D01*
X0159545Y0230625D01*
X0159417Y0230447D01*
X0159294Y0230266D01*
X0159175Y0230082D01*
X0159061Y0229895D01*
X0158952Y0229705D01*
X0158847Y0229512D01*
X0158746Y0229317D01*
X0158651Y0229120D01*
X0158560Y0228921D01*
X0158475Y0228719D01*
X0158394Y0228515D01*
X0158318Y0228309D01*
X0158247Y0228102D01*
X0158182Y0227893D01*
X0158121Y0227682D01*
X0158066Y0227470D01*
X0158015Y0227257D01*
X0157970Y0227042D01*
X0157930Y0226827D01*
X0157896Y0226610D01*
X0157867Y0226393D01*
X0157843Y0226175D01*
X0157824Y0225957D01*
X0157811Y0225738D01*
X0157803Y0225519D01*
X0157800Y0225300D01*
X0157800Y0198300D01*
X0151300Y0202800D02*
X0151300Y0210800D01*
X0151298Y0210860D01*
X0151293Y0210921D01*
X0151284Y0210980D01*
X0151271Y0211039D01*
X0151255Y0211098D01*
X0151235Y0211155D01*
X0151212Y0211210D01*
X0151185Y0211265D01*
X0151156Y0211317D01*
X0151123Y0211368D01*
X0151087Y0211417D01*
X0151049Y0211463D01*
X0151007Y0211507D01*
X0150963Y0211549D01*
X0150917Y0211587D01*
X0150868Y0211623D01*
X0150817Y0211656D01*
X0150765Y0211685D01*
X0150710Y0211712D01*
X0150655Y0211735D01*
X0150598Y0211755D01*
X0150539Y0211771D01*
X0150480Y0211784D01*
X0150421Y0211793D01*
X0150360Y0211798D01*
X0150300Y0211800D01*
X0133300Y0211800D01*
X0133240Y0211798D01*
X0133179Y0211793D01*
X0133120Y0211784D01*
X0133061Y0211771D01*
X0133002Y0211755D01*
X0132945Y0211735D01*
X0132890Y0211712D01*
X0132835Y0211685D01*
X0132783Y0211656D01*
X0132732Y0211623D01*
X0132683Y0211587D01*
X0132637Y0211549D01*
X0132593Y0211507D01*
X0132551Y0211463D01*
X0132513Y0211417D01*
X0132477Y0211368D01*
X0132444Y0211317D01*
X0132415Y0211265D01*
X0132388Y0211210D01*
X0132365Y0211155D01*
X0132345Y0211098D01*
X0132329Y0211039D01*
X0132316Y0210980D01*
X0132307Y0210921D01*
X0132302Y0210860D01*
X0132300Y0210800D01*
X0132300Y0202800D01*
X0132302Y0202740D01*
X0132307Y0202679D01*
X0132316Y0202620D01*
X0132329Y0202561D01*
X0132345Y0202502D01*
X0132365Y0202445D01*
X0132388Y0202390D01*
X0132415Y0202335D01*
X0132444Y0202283D01*
X0132477Y0202232D01*
X0132513Y0202183D01*
X0132551Y0202137D01*
X0132593Y0202093D01*
X0132637Y0202051D01*
X0132683Y0202013D01*
X0132732Y0201977D01*
X0132783Y0201944D01*
X0132835Y0201915D01*
X0132890Y0201888D01*
X0132945Y0201865D01*
X0133002Y0201845D01*
X0133061Y0201829D01*
X0133120Y0201816D01*
X0133179Y0201807D01*
X0133240Y0201802D01*
X0133300Y0201800D01*
X0150300Y0201800D01*
X0150360Y0201802D01*
X0150421Y0201807D01*
X0150480Y0201816D01*
X0150539Y0201829D01*
X0150598Y0201845D01*
X0150655Y0201865D01*
X0150710Y0201888D01*
X0150765Y0201915D01*
X0150817Y0201944D01*
X0150868Y0201977D01*
X0150917Y0202013D01*
X0150963Y0202051D01*
X0151007Y0202093D01*
X0151049Y0202137D01*
X0151087Y0202183D01*
X0151123Y0202232D01*
X0151156Y0202283D01*
X0151185Y0202335D01*
X0151212Y0202390D01*
X0151235Y0202445D01*
X0151255Y0202502D01*
X0151271Y0202561D01*
X0151284Y0202620D01*
X0151293Y0202679D01*
X0151298Y0202740D01*
X0151300Y0202800D01*
X0143300Y0206800D02*
X0142800Y0206800D01*
X0140800Y0206800D02*
X0140300Y0206800D01*
X0142300Y0194300D02*
X0142300Y0186800D01*
X0138800Y0186800D01*
X0138800Y0180800D01*
X0142300Y0180800D01*
X0142300Y0131800D01*
X0101300Y0131800D01*
X0101300Y0180800D01*
X0104800Y0180800D01*
X0104800Y0186800D01*
X0101300Y0186800D01*
X0101300Y0194300D01*
X0142300Y0194300D01*
X0114700Y0180800D02*
X0114702Y0180974D01*
X0114709Y0181148D01*
X0114719Y0181322D01*
X0114734Y0181496D01*
X0114753Y0181669D01*
X0114777Y0181842D01*
X0114805Y0182014D01*
X0114836Y0182185D01*
X0114873Y0182356D01*
X0114913Y0182525D01*
X0114957Y0182694D01*
X0115006Y0182861D01*
X0115058Y0183027D01*
X0115115Y0183192D01*
X0115176Y0183355D01*
X0115240Y0183517D01*
X0115309Y0183677D01*
X0115382Y0183836D01*
X0115458Y0183992D01*
X0115538Y0184147D01*
X0115622Y0184300D01*
X0115710Y0184450D01*
X0115802Y0184598D01*
X0115897Y0184745D01*
X0115995Y0184888D01*
X0116097Y0185029D01*
X0116203Y0185168D01*
X0116312Y0185304D01*
X0116424Y0185438D01*
X0116539Y0185568D01*
X0116658Y0185696D01*
X0116780Y0185820D01*
X0116904Y0185942D01*
X0117032Y0186061D01*
X0117162Y0186176D01*
X0117296Y0186288D01*
X0117432Y0186397D01*
X0117571Y0186503D01*
X0117712Y0186605D01*
X0117855Y0186703D01*
X0118002Y0186798D01*
X0118150Y0186890D01*
X0118300Y0186978D01*
X0118453Y0187062D01*
X0118608Y0187142D01*
X0118764Y0187218D01*
X0118923Y0187291D01*
X0119083Y0187360D01*
X0119245Y0187424D01*
X0119408Y0187485D01*
X0119573Y0187542D01*
X0119739Y0187594D01*
X0119906Y0187643D01*
X0120075Y0187687D01*
X0120244Y0187727D01*
X0120415Y0187764D01*
X0120586Y0187795D01*
X0120758Y0187823D01*
X0120931Y0187847D01*
X0121104Y0187866D01*
X0121278Y0187881D01*
X0121452Y0187891D01*
X0121626Y0187898D01*
X0121800Y0187900D01*
X0121974Y0187898D01*
X0122148Y0187891D01*
X0122322Y0187881D01*
X0122496Y0187866D01*
X0122669Y0187847D01*
X0122842Y0187823D01*
X0123014Y0187795D01*
X0123185Y0187764D01*
X0123356Y0187727D01*
X0123525Y0187687D01*
X0123694Y0187643D01*
X0123861Y0187594D01*
X0124027Y0187542D01*
X0124192Y0187485D01*
X0124355Y0187424D01*
X0124517Y0187360D01*
X0124677Y0187291D01*
X0124836Y0187218D01*
X0124992Y0187142D01*
X0125147Y0187062D01*
X0125300Y0186978D01*
X0125450Y0186890D01*
X0125598Y0186798D01*
X0125745Y0186703D01*
X0125888Y0186605D01*
X0126029Y0186503D01*
X0126168Y0186397D01*
X0126304Y0186288D01*
X0126438Y0186176D01*
X0126568Y0186061D01*
X0126696Y0185942D01*
X0126820Y0185820D01*
X0126942Y0185696D01*
X0127061Y0185568D01*
X0127176Y0185438D01*
X0127288Y0185304D01*
X0127397Y0185168D01*
X0127503Y0185029D01*
X0127605Y0184888D01*
X0127703Y0184745D01*
X0127798Y0184598D01*
X0127890Y0184450D01*
X0127978Y0184300D01*
X0128062Y0184147D01*
X0128142Y0183992D01*
X0128218Y0183836D01*
X0128291Y0183677D01*
X0128360Y0183517D01*
X0128424Y0183355D01*
X0128485Y0183192D01*
X0128542Y0183027D01*
X0128594Y0182861D01*
X0128643Y0182694D01*
X0128687Y0182525D01*
X0128727Y0182356D01*
X0128764Y0182185D01*
X0128795Y0182014D01*
X0128823Y0181842D01*
X0128847Y0181669D01*
X0128866Y0181496D01*
X0128881Y0181322D01*
X0128891Y0181148D01*
X0128898Y0180974D01*
X0128900Y0180800D01*
X0128898Y0180626D01*
X0128891Y0180452D01*
X0128881Y0180278D01*
X0128866Y0180104D01*
X0128847Y0179931D01*
X0128823Y0179758D01*
X0128795Y0179586D01*
X0128764Y0179415D01*
X0128727Y0179244D01*
X0128687Y0179075D01*
X0128643Y0178906D01*
X0128594Y0178739D01*
X0128542Y0178573D01*
X0128485Y0178408D01*
X0128424Y0178245D01*
X0128360Y0178083D01*
X0128291Y0177923D01*
X0128218Y0177764D01*
X0128142Y0177608D01*
X0128062Y0177453D01*
X0127978Y0177300D01*
X0127890Y0177150D01*
X0127798Y0177002D01*
X0127703Y0176855D01*
X0127605Y0176712D01*
X0127503Y0176571D01*
X0127397Y0176432D01*
X0127288Y0176296D01*
X0127176Y0176162D01*
X0127061Y0176032D01*
X0126942Y0175904D01*
X0126820Y0175780D01*
X0126696Y0175658D01*
X0126568Y0175539D01*
X0126438Y0175424D01*
X0126304Y0175312D01*
X0126168Y0175203D01*
X0126029Y0175097D01*
X0125888Y0174995D01*
X0125745Y0174897D01*
X0125598Y0174802D01*
X0125450Y0174710D01*
X0125300Y0174622D01*
X0125147Y0174538D01*
X0124992Y0174458D01*
X0124836Y0174382D01*
X0124677Y0174309D01*
X0124517Y0174240D01*
X0124355Y0174176D01*
X0124192Y0174115D01*
X0124027Y0174058D01*
X0123861Y0174006D01*
X0123694Y0173957D01*
X0123525Y0173913D01*
X0123356Y0173873D01*
X0123185Y0173836D01*
X0123014Y0173805D01*
X0122842Y0173777D01*
X0122669Y0173753D01*
X0122496Y0173734D01*
X0122322Y0173719D01*
X0122148Y0173709D01*
X0121974Y0173702D01*
X0121800Y0173700D01*
X0121626Y0173702D01*
X0121452Y0173709D01*
X0121278Y0173719D01*
X0121104Y0173734D01*
X0120931Y0173753D01*
X0120758Y0173777D01*
X0120586Y0173805D01*
X0120415Y0173836D01*
X0120244Y0173873D01*
X0120075Y0173913D01*
X0119906Y0173957D01*
X0119739Y0174006D01*
X0119573Y0174058D01*
X0119408Y0174115D01*
X0119245Y0174176D01*
X0119083Y0174240D01*
X0118923Y0174309D01*
X0118764Y0174382D01*
X0118608Y0174458D01*
X0118453Y0174538D01*
X0118300Y0174622D01*
X0118150Y0174710D01*
X0118002Y0174802D01*
X0117855Y0174897D01*
X0117712Y0174995D01*
X0117571Y0175097D01*
X0117432Y0175203D01*
X0117296Y0175312D01*
X0117162Y0175424D01*
X0117032Y0175539D01*
X0116904Y0175658D01*
X0116780Y0175780D01*
X0116658Y0175904D01*
X0116539Y0176032D01*
X0116424Y0176162D01*
X0116312Y0176296D01*
X0116203Y0176432D01*
X0116097Y0176571D01*
X0115995Y0176712D01*
X0115897Y0176855D01*
X0115802Y0177002D01*
X0115710Y0177150D01*
X0115622Y0177300D01*
X0115538Y0177453D01*
X0115458Y0177608D01*
X0115382Y0177764D01*
X0115309Y0177923D01*
X0115240Y0178083D01*
X0115176Y0178245D01*
X0115115Y0178408D01*
X0115058Y0178573D01*
X0115006Y0178739D01*
X0114957Y0178906D01*
X0114913Y0179075D01*
X0114873Y0179244D01*
X0114836Y0179415D01*
X0114805Y0179586D01*
X0114777Y0179758D01*
X0114753Y0179931D01*
X0114734Y0180104D01*
X0114719Y0180278D01*
X0114709Y0180452D01*
X0114702Y0180626D01*
X0114700Y0180800D01*
X0133300Y0226800D02*
X0150300Y0226800D01*
X0150360Y0226802D01*
X0150421Y0226807D01*
X0150480Y0226816D01*
X0150539Y0226829D01*
X0150598Y0226845D01*
X0150655Y0226865D01*
X0150710Y0226888D01*
X0150765Y0226915D01*
X0150817Y0226944D01*
X0150868Y0226977D01*
X0150917Y0227013D01*
X0150963Y0227051D01*
X0151007Y0227093D01*
X0151049Y0227137D01*
X0151087Y0227183D01*
X0151123Y0227232D01*
X0151156Y0227283D01*
X0151185Y0227335D01*
X0151212Y0227390D01*
X0151235Y0227445D01*
X0151255Y0227502D01*
X0151271Y0227561D01*
X0151284Y0227620D01*
X0151293Y0227679D01*
X0151298Y0227740D01*
X0151300Y0227800D01*
X0151300Y0235800D01*
X0151298Y0235860D01*
X0151293Y0235921D01*
X0151284Y0235980D01*
X0151271Y0236039D01*
X0151255Y0236098D01*
X0151235Y0236155D01*
X0151212Y0236210D01*
X0151185Y0236265D01*
X0151156Y0236317D01*
X0151123Y0236368D01*
X0151087Y0236417D01*
X0151049Y0236463D01*
X0151007Y0236507D01*
X0150963Y0236549D01*
X0150917Y0236587D01*
X0150868Y0236623D01*
X0150817Y0236656D01*
X0150765Y0236685D01*
X0150710Y0236712D01*
X0150655Y0236735D01*
X0150598Y0236755D01*
X0150539Y0236771D01*
X0150480Y0236784D01*
X0150421Y0236793D01*
X0150360Y0236798D01*
X0150300Y0236800D01*
X0133300Y0236800D01*
X0133240Y0236798D01*
X0133179Y0236793D01*
X0133120Y0236784D01*
X0133061Y0236771D01*
X0133002Y0236755D01*
X0132945Y0236735D01*
X0132890Y0236712D01*
X0132835Y0236685D01*
X0132783Y0236656D01*
X0132732Y0236623D01*
X0132683Y0236587D01*
X0132637Y0236549D01*
X0132593Y0236507D01*
X0132551Y0236463D01*
X0132513Y0236417D01*
X0132477Y0236368D01*
X0132444Y0236317D01*
X0132415Y0236265D01*
X0132388Y0236210D01*
X0132365Y0236155D01*
X0132345Y0236098D01*
X0132329Y0236039D01*
X0132316Y0235980D01*
X0132307Y0235921D01*
X0132302Y0235860D01*
X0132300Y0235800D01*
X0132300Y0227800D01*
X0132302Y0227740D01*
X0132307Y0227679D01*
X0132316Y0227620D01*
X0132329Y0227561D01*
X0132345Y0227502D01*
X0132365Y0227445D01*
X0132388Y0227390D01*
X0132415Y0227335D01*
X0132444Y0227283D01*
X0132477Y0227232D01*
X0132513Y0227183D01*
X0132551Y0227137D01*
X0132593Y0227093D01*
X0132637Y0227051D01*
X0132683Y0227013D01*
X0132732Y0226977D01*
X0132783Y0226944D01*
X0132835Y0226915D01*
X0132890Y0226888D01*
X0132945Y0226865D01*
X0133002Y0226845D01*
X0133061Y0226829D01*
X0133120Y0226816D01*
X0133179Y0226807D01*
X0133240Y0226802D01*
X0133300Y0226800D01*
X0140300Y0231800D02*
X0140800Y0231800D01*
X0142800Y0231800D02*
X0143300Y0231800D01*
X0146800Y0250300D02*
X0146800Y0257800D01*
X0146926Y0257802D01*
X0147051Y0257808D01*
X0147176Y0257818D01*
X0147301Y0257832D01*
X0147426Y0257849D01*
X0147550Y0257871D01*
X0147673Y0257896D01*
X0147795Y0257926D01*
X0147916Y0257959D01*
X0148036Y0257996D01*
X0148155Y0258036D01*
X0148272Y0258081D01*
X0148389Y0258129D01*
X0148503Y0258181D01*
X0148616Y0258236D01*
X0148727Y0258295D01*
X0148836Y0258357D01*
X0148943Y0258423D01*
X0149048Y0258492D01*
X0149151Y0258564D01*
X0149252Y0258639D01*
X0149350Y0258718D01*
X0149445Y0258800D01*
X0149538Y0258884D01*
X0149628Y0258972D01*
X0149716Y0259062D01*
X0149800Y0259155D01*
X0149882Y0259250D01*
X0149961Y0259348D01*
X0150036Y0259449D01*
X0150108Y0259552D01*
X0150177Y0259657D01*
X0150243Y0259764D01*
X0150305Y0259873D01*
X0150364Y0259984D01*
X0150419Y0260097D01*
X0150471Y0260211D01*
X0150519Y0260328D01*
X0150564Y0260445D01*
X0150604Y0260564D01*
X0150641Y0260684D01*
X0150674Y0260805D01*
X0150704Y0260927D01*
X0150729Y0261050D01*
X0150751Y0261174D01*
X0150768Y0261299D01*
X0150782Y0261424D01*
X0150792Y0261549D01*
X0150798Y0261674D01*
X0150800Y0261800D01*
X0150798Y0261926D01*
X0150792Y0262051D01*
X0150782Y0262176D01*
X0150768Y0262301D01*
X0150751Y0262426D01*
X0150729Y0262550D01*
X0150704Y0262673D01*
X0150674Y0262795D01*
X0150641Y0262916D01*
X0150604Y0263036D01*
X0150564Y0263155D01*
X0150519Y0263272D01*
X0150471Y0263389D01*
X0150419Y0263503D01*
X0150364Y0263616D01*
X0150305Y0263727D01*
X0150243Y0263836D01*
X0150177Y0263943D01*
X0150108Y0264048D01*
X0150036Y0264151D01*
X0149961Y0264252D01*
X0149882Y0264350D01*
X0149800Y0264445D01*
X0149716Y0264538D01*
X0149628Y0264628D01*
X0149538Y0264716D01*
X0149445Y0264800D01*
X0149350Y0264882D01*
X0149252Y0264961D01*
X0149151Y0265036D01*
X0149048Y0265108D01*
X0148943Y0265177D01*
X0148836Y0265243D01*
X0148727Y0265305D01*
X0148616Y0265364D01*
X0148503Y0265419D01*
X0148389Y0265471D01*
X0148272Y0265519D01*
X0148155Y0265564D01*
X0148036Y0265604D01*
X0147916Y0265641D01*
X0147795Y0265674D01*
X0147673Y0265704D01*
X0147550Y0265729D01*
X0147426Y0265751D01*
X0147301Y0265768D01*
X0147176Y0265782D01*
X0147051Y0265792D01*
X0146926Y0265798D01*
X0146800Y0265800D01*
X0146800Y0273300D01*
X0226800Y0273300D01*
X0226800Y0250300D01*
X0146800Y0250300D01*
X0123300Y0261800D02*
X0115800Y0261800D01*
X0115798Y0261926D01*
X0115792Y0262051D01*
X0115782Y0262176D01*
X0115768Y0262301D01*
X0115751Y0262426D01*
X0115729Y0262550D01*
X0115704Y0262673D01*
X0115674Y0262795D01*
X0115641Y0262916D01*
X0115604Y0263036D01*
X0115564Y0263155D01*
X0115519Y0263272D01*
X0115471Y0263389D01*
X0115419Y0263503D01*
X0115364Y0263616D01*
X0115305Y0263727D01*
X0115243Y0263836D01*
X0115177Y0263943D01*
X0115108Y0264048D01*
X0115036Y0264151D01*
X0114961Y0264252D01*
X0114882Y0264350D01*
X0114800Y0264445D01*
X0114716Y0264538D01*
X0114628Y0264628D01*
X0114538Y0264716D01*
X0114445Y0264800D01*
X0114350Y0264882D01*
X0114252Y0264961D01*
X0114151Y0265036D01*
X0114048Y0265108D01*
X0113943Y0265177D01*
X0113836Y0265243D01*
X0113727Y0265305D01*
X0113616Y0265364D01*
X0113503Y0265419D01*
X0113389Y0265471D01*
X0113272Y0265519D01*
X0113155Y0265564D01*
X0113036Y0265604D01*
X0112916Y0265641D01*
X0112795Y0265674D01*
X0112673Y0265704D01*
X0112550Y0265729D01*
X0112426Y0265751D01*
X0112301Y0265768D01*
X0112176Y0265782D01*
X0112051Y0265792D01*
X0111926Y0265798D01*
X0111800Y0265800D01*
X0111674Y0265798D01*
X0111549Y0265792D01*
X0111424Y0265782D01*
X0111299Y0265768D01*
X0111174Y0265751D01*
X0111050Y0265729D01*
X0110927Y0265704D01*
X0110805Y0265674D01*
X0110684Y0265641D01*
X0110564Y0265604D01*
X0110445Y0265564D01*
X0110328Y0265519D01*
X0110211Y0265471D01*
X0110097Y0265419D01*
X0109984Y0265364D01*
X0109873Y0265305D01*
X0109764Y0265243D01*
X0109657Y0265177D01*
X0109552Y0265108D01*
X0109449Y0265036D01*
X0109348Y0264961D01*
X0109250Y0264882D01*
X0109155Y0264800D01*
X0109062Y0264716D01*
X0108972Y0264628D01*
X0108884Y0264538D01*
X0108800Y0264445D01*
X0108718Y0264350D01*
X0108639Y0264252D01*
X0108564Y0264151D01*
X0108492Y0264048D01*
X0108423Y0263943D01*
X0108357Y0263836D01*
X0108295Y0263727D01*
X0108236Y0263616D01*
X0108181Y0263503D01*
X0108129Y0263389D01*
X0108081Y0263272D01*
X0108036Y0263155D01*
X0107996Y0263036D01*
X0107959Y0262916D01*
X0107926Y0262795D01*
X0107896Y0262673D01*
X0107871Y0262550D01*
X0107849Y0262426D01*
X0107832Y0262301D01*
X0107818Y0262176D01*
X0107808Y0262051D01*
X0107802Y0261926D01*
X0107800Y0261800D01*
X0100300Y0261800D01*
X0100300Y0281800D01*
X0123300Y0281800D01*
X0123300Y0261800D01*
X0081800Y0274457D02*
X0081800Y0229457D01*
X0051800Y0229457D01*
X0049300Y0229457D01*
X0051800Y0229457D02*
X0051800Y0274457D01*
X0049300Y0274457D01*
X0051800Y0274457D02*
X0081800Y0274457D01*
X0076800Y0271957D02*
X0076800Y0270957D01*
X0076800Y0271957D02*
X0054300Y0271957D01*
X0054300Y0231957D01*
X0076800Y0231957D01*
X0076800Y0232957D01*
X0076728Y0233041D02*
X0076944Y0233233D01*
X0077155Y0233430D01*
X0077361Y0233632D01*
X0077563Y0233839D01*
X0077759Y0234051D01*
X0077950Y0234268D01*
X0078135Y0234489D01*
X0078315Y0234715D01*
X0078490Y0234945D01*
X0078659Y0235179D01*
X0078822Y0235418D01*
X0078979Y0235660D01*
X0079130Y0235906D01*
X0079275Y0236156D01*
X0079414Y0236409D01*
X0079547Y0236666D01*
X0079673Y0236925D01*
X0079793Y0237188D01*
X0079907Y0237454D01*
X0080013Y0237722D01*
X0080114Y0237993D01*
X0080208Y0238266D01*
X0080295Y0238541D01*
X0080375Y0238819D01*
X0080448Y0239098D01*
X0080515Y0239379D01*
X0080574Y0239662D01*
X0080627Y0239946D01*
X0080673Y0240231D01*
X0080712Y0240517D01*
X0080743Y0240804D01*
X0080768Y0241092D01*
X0080786Y0241380D01*
X0080796Y0241669D01*
X0080800Y0241958D01*
X0076800Y0250957D02*
X0076800Y0252957D01*
X0076688Y0250910D02*
X0076900Y0250723D01*
X0077108Y0250532D01*
X0077310Y0250335D01*
X0077508Y0250134D01*
X0077701Y0249928D01*
X0077890Y0249718D01*
X0078073Y0249503D01*
X0078251Y0249284D01*
X0078423Y0249060D01*
X0078590Y0248833D01*
X0078752Y0248602D01*
X0078908Y0248366D01*
X0079059Y0248128D01*
X0079203Y0247885D01*
X0079342Y0247639D01*
X0079475Y0247390D01*
X0079602Y0247138D01*
X0079723Y0246883D01*
X0079838Y0246625D01*
X0079946Y0246365D01*
X0080049Y0246102D01*
X0080144Y0245836D01*
X0080234Y0245569D01*
X0080317Y0245299D01*
X0080394Y0245027D01*
X0080464Y0244754D01*
X0080528Y0244479D01*
X0080585Y0244202D01*
X0080635Y0243924D01*
X0080679Y0243646D01*
X0080716Y0243366D01*
X0080746Y0243085D01*
X0080770Y0242804D01*
X0080787Y0242522D01*
X0080797Y0242240D01*
X0080800Y0241958D01*
X0076728Y0253040D02*
X0076944Y0253232D01*
X0077155Y0253429D01*
X0077362Y0253631D01*
X0077563Y0253838D01*
X0077759Y0254050D01*
X0077950Y0254267D01*
X0078136Y0254488D01*
X0078316Y0254714D01*
X0078490Y0254944D01*
X0078659Y0255179D01*
X0078822Y0255417D01*
X0078979Y0255659D01*
X0079130Y0255906D01*
X0079275Y0256155D01*
X0079414Y0256409D01*
X0079547Y0256665D01*
X0079673Y0256925D01*
X0079793Y0257188D01*
X0079907Y0257453D01*
X0080014Y0257721D01*
X0080114Y0257992D01*
X0080208Y0258266D01*
X0080295Y0258541D01*
X0080375Y0258818D01*
X0080448Y0259098D01*
X0080515Y0259379D01*
X0080575Y0259661D01*
X0080627Y0259945D01*
X0080673Y0260231D01*
X0080712Y0260517D01*
X0080744Y0260804D01*
X0080768Y0261092D01*
X0080786Y0261380D01*
X0080796Y0261669D01*
X0080800Y0261957D01*
X0080800Y0261958D02*
X0080797Y0262240D01*
X0080787Y0262522D01*
X0080770Y0262804D01*
X0080746Y0263085D01*
X0080716Y0263366D01*
X0080679Y0263646D01*
X0080635Y0263924D01*
X0080585Y0264202D01*
X0080528Y0264479D01*
X0080464Y0264754D01*
X0080394Y0265027D01*
X0080317Y0265299D01*
X0080234Y0265569D01*
X0080144Y0265836D01*
X0080049Y0266102D01*
X0079946Y0266365D01*
X0079838Y0266625D01*
X0079723Y0266883D01*
X0079602Y0267138D01*
X0079475Y0267390D01*
X0079342Y0267639D01*
X0079203Y0267885D01*
X0079059Y0268128D01*
X0078908Y0268366D01*
X0078752Y0268602D01*
X0078590Y0268833D01*
X0078423Y0269060D01*
X0078251Y0269284D01*
X0078073Y0269503D01*
X0077890Y0269718D01*
X0077701Y0269928D01*
X0077508Y0270134D01*
X0077310Y0270335D01*
X0077108Y0270532D01*
X0076900Y0270723D01*
X0076688Y0270910D01*
X0046800Y0274457D02*
X0029300Y0274457D01*
X0026800Y0274457D02*
X0021800Y0274457D01*
X0021800Y0271957D01*
X0021800Y0269457D02*
X0021800Y0251957D01*
X0021800Y0249457D02*
X0021800Y0234457D01*
X0021800Y0231957D02*
X0021800Y0229457D01*
X0026800Y0229457D01*
X0029300Y0229457D02*
X0046800Y0229457D01*
X0031500Y0225303D02*
X0027230Y0225303D01*
X0029365Y0227438D02*
X0029365Y0223168D01*
X0024457Y0306800D02*
X0069457Y0306800D01*
X0114457Y0306800D01*
X0159457Y0306800D01*
X0204457Y0306800D01*
X0249457Y0306800D01*
X0294457Y0306800D01*
X0339457Y0306800D01*
X0384457Y0306800D01*
X0384457Y0336800D01*
X0384457Y0339300D01*
X0384457Y0336800D02*
X0339457Y0336800D01*
X0339457Y0339300D01*
X0339457Y0336800D01*
X0339457Y0306800D01*
X0339457Y0336800D01*
X0294457Y0336800D01*
X0294457Y0339300D01*
X0294457Y0336800D01*
X0294457Y0306800D01*
X0294457Y0336800D01*
X0249457Y0336800D01*
X0249457Y0339300D01*
X0249457Y0336800D01*
X0249457Y0306800D01*
X0249457Y0336800D01*
X0204457Y0336800D01*
X0204457Y0339300D01*
X0204457Y0336800D01*
X0204457Y0306800D01*
X0204457Y0336800D01*
X0159457Y0336800D01*
X0159457Y0339300D01*
X0159457Y0336800D01*
X0159457Y0306800D01*
X0159457Y0336800D01*
X0114457Y0336800D01*
X0114457Y0339300D01*
X0114457Y0336800D01*
X0114457Y0306800D01*
X0114457Y0336800D01*
X0069457Y0336800D01*
X0069457Y0339300D01*
X0069457Y0336800D01*
X0069457Y0306800D01*
X0069457Y0336800D01*
X0024457Y0336800D01*
X0024457Y0339300D01*
X0024457Y0336800D02*
X0024457Y0306800D01*
X0026957Y0311800D02*
X0027957Y0311800D01*
X0026957Y0311800D02*
X0026957Y0334300D01*
X0066957Y0334300D01*
X0066957Y0311800D01*
X0065957Y0311800D01*
X0071957Y0311800D02*
X0072957Y0311800D01*
X0071957Y0311800D02*
X0071957Y0334300D01*
X0111957Y0334300D01*
X0111957Y0311800D01*
X0110957Y0311800D01*
X0116957Y0311800D02*
X0117957Y0311800D01*
X0116957Y0311800D02*
X0116957Y0334300D01*
X0156957Y0334300D01*
X0156957Y0311800D01*
X0155957Y0311800D01*
X0161957Y0311800D02*
X0162957Y0311800D01*
X0161957Y0311800D02*
X0161957Y0334300D01*
X0201957Y0334300D01*
X0201957Y0311800D01*
X0200957Y0311800D01*
X0206957Y0311800D02*
X0207957Y0311800D01*
X0206957Y0311800D02*
X0206957Y0334300D01*
X0246957Y0334300D01*
X0246957Y0311800D01*
X0245957Y0311800D01*
X0251957Y0311800D02*
X0252957Y0311800D01*
X0251957Y0311800D02*
X0251957Y0334300D01*
X0291957Y0334300D01*
X0291957Y0311800D01*
X0290957Y0311800D01*
X0296957Y0311800D02*
X0297957Y0311800D01*
X0296957Y0311800D02*
X0296957Y0334300D01*
X0336957Y0334300D01*
X0336957Y0311800D01*
X0335957Y0311800D01*
X0341957Y0311800D02*
X0342957Y0311800D01*
X0341957Y0311800D02*
X0341957Y0334300D01*
X0381957Y0334300D01*
X0381957Y0311800D01*
X0380957Y0311800D01*
X0380910Y0311912D02*
X0380723Y0311700D01*
X0380532Y0311492D01*
X0380335Y0311290D01*
X0380134Y0311092D01*
X0379928Y0310899D01*
X0379718Y0310710D01*
X0379503Y0310527D01*
X0379284Y0310349D01*
X0379060Y0310177D01*
X0378833Y0310010D01*
X0378602Y0309848D01*
X0378366Y0309692D01*
X0378128Y0309541D01*
X0377885Y0309397D01*
X0377639Y0309258D01*
X0377390Y0309125D01*
X0377138Y0308998D01*
X0376883Y0308877D01*
X0376625Y0308762D01*
X0376365Y0308654D01*
X0376102Y0308551D01*
X0375836Y0308456D01*
X0375569Y0308366D01*
X0375299Y0308283D01*
X0375027Y0308206D01*
X0374754Y0308136D01*
X0374479Y0308072D01*
X0374202Y0308015D01*
X0373924Y0307965D01*
X0373646Y0307921D01*
X0373366Y0307884D01*
X0373085Y0307854D01*
X0372804Y0307830D01*
X0372522Y0307813D01*
X0372240Y0307803D01*
X0371958Y0307800D01*
X0362957Y0311800D02*
X0360957Y0311800D01*
X0360910Y0311912D02*
X0360723Y0311700D01*
X0360532Y0311492D01*
X0360335Y0311290D01*
X0360134Y0311092D01*
X0359928Y0310899D01*
X0359718Y0310710D01*
X0359503Y0310527D01*
X0359284Y0310349D01*
X0359060Y0310177D01*
X0358833Y0310010D01*
X0358602Y0309848D01*
X0358366Y0309692D01*
X0358128Y0309541D01*
X0357885Y0309397D01*
X0357639Y0309258D01*
X0357390Y0309125D01*
X0357138Y0308998D01*
X0356883Y0308877D01*
X0356625Y0308762D01*
X0356365Y0308654D01*
X0356102Y0308551D01*
X0355836Y0308456D01*
X0355569Y0308366D01*
X0355299Y0308283D01*
X0355027Y0308206D01*
X0354754Y0308136D01*
X0354479Y0308072D01*
X0354202Y0308015D01*
X0353924Y0307965D01*
X0353646Y0307921D01*
X0353366Y0307884D01*
X0353085Y0307854D01*
X0352804Y0307830D01*
X0352522Y0307813D01*
X0352240Y0307803D01*
X0351958Y0307800D01*
X0351669Y0307804D01*
X0351380Y0307814D01*
X0351092Y0307832D01*
X0350804Y0307857D01*
X0350517Y0307888D01*
X0350231Y0307927D01*
X0349946Y0307973D01*
X0349662Y0308026D01*
X0349379Y0308085D01*
X0349098Y0308152D01*
X0348819Y0308225D01*
X0348541Y0308305D01*
X0348266Y0308392D01*
X0347993Y0308486D01*
X0347722Y0308587D01*
X0347454Y0308693D01*
X0347188Y0308807D01*
X0346925Y0308927D01*
X0346666Y0309053D01*
X0346409Y0309186D01*
X0346156Y0309325D01*
X0345906Y0309470D01*
X0345660Y0309621D01*
X0345418Y0309778D01*
X0345179Y0309941D01*
X0344945Y0310110D01*
X0344715Y0310285D01*
X0344489Y0310465D01*
X0344268Y0310650D01*
X0344051Y0310841D01*
X0343839Y0311037D01*
X0343632Y0311239D01*
X0343430Y0311445D01*
X0343233Y0311656D01*
X0343041Y0311872D01*
X0335910Y0311912D02*
X0335723Y0311700D01*
X0335532Y0311492D01*
X0335335Y0311290D01*
X0335134Y0311092D01*
X0334928Y0310899D01*
X0334718Y0310710D01*
X0334503Y0310527D01*
X0334284Y0310349D01*
X0334060Y0310177D01*
X0333833Y0310010D01*
X0333602Y0309848D01*
X0333366Y0309692D01*
X0333128Y0309541D01*
X0332885Y0309397D01*
X0332639Y0309258D01*
X0332390Y0309125D01*
X0332138Y0308998D01*
X0331883Y0308877D01*
X0331625Y0308762D01*
X0331365Y0308654D01*
X0331102Y0308551D01*
X0330836Y0308456D01*
X0330569Y0308366D01*
X0330299Y0308283D01*
X0330027Y0308206D01*
X0329754Y0308136D01*
X0329479Y0308072D01*
X0329202Y0308015D01*
X0328924Y0307965D01*
X0328646Y0307921D01*
X0328366Y0307884D01*
X0328085Y0307854D01*
X0327804Y0307830D01*
X0327522Y0307813D01*
X0327240Y0307803D01*
X0326958Y0307800D01*
X0317957Y0311800D02*
X0315957Y0311800D01*
X0315910Y0311912D02*
X0315723Y0311700D01*
X0315532Y0311492D01*
X0315335Y0311290D01*
X0315134Y0311092D01*
X0314928Y0310899D01*
X0314718Y0310710D01*
X0314503Y0310527D01*
X0314284Y0310349D01*
X0314060Y0310177D01*
X0313833Y0310010D01*
X0313602Y0309848D01*
X0313366Y0309692D01*
X0313128Y0309541D01*
X0312885Y0309397D01*
X0312639Y0309258D01*
X0312390Y0309125D01*
X0312138Y0308998D01*
X0311883Y0308877D01*
X0311625Y0308762D01*
X0311365Y0308654D01*
X0311102Y0308551D01*
X0310836Y0308456D01*
X0310569Y0308366D01*
X0310299Y0308283D01*
X0310027Y0308206D01*
X0309754Y0308136D01*
X0309479Y0308072D01*
X0309202Y0308015D01*
X0308924Y0307965D01*
X0308646Y0307921D01*
X0308366Y0307884D01*
X0308085Y0307854D01*
X0307804Y0307830D01*
X0307522Y0307813D01*
X0307240Y0307803D01*
X0306958Y0307800D01*
X0306669Y0307804D01*
X0306380Y0307814D01*
X0306092Y0307832D01*
X0305804Y0307857D01*
X0305517Y0307888D01*
X0305231Y0307927D01*
X0304946Y0307973D01*
X0304662Y0308026D01*
X0304379Y0308085D01*
X0304098Y0308152D01*
X0303819Y0308225D01*
X0303541Y0308305D01*
X0303266Y0308392D01*
X0302993Y0308486D01*
X0302722Y0308587D01*
X0302454Y0308693D01*
X0302188Y0308807D01*
X0301925Y0308927D01*
X0301666Y0309053D01*
X0301409Y0309186D01*
X0301156Y0309325D01*
X0300906Y0309470D01*
X0300660Y0309621D01*
X0300418Y0309778D01*
X0300179Y0309941D01*
X0299945Y0310110D01*
X0299715Y0310285D01*
X0299489Y0310465D01*
X0299268Y0310650D01*
X0299051Y0310841D01*
X0298839Y0311037D01*
X0298632Y0311239D01*
X0298430Y0311445D01*
X0298233Y0311656D01*
X0298041Y0311872D01*
X0290910Y0311912D02*
X0290723Y0311700D01*
X0290532Y0311492D01*
X0290335Y0311290D01*
X0290134Y0311092D01*
X0289928Y0310899D01*
X0289718Y0310710D01*
X0289503Y0310527D01*
X0289284Y0310349D01*
X0289060Y0310177D01*
X0288833Y0310010D01*
X0288602Y0309848D01*
X0288366Y0309692D01*
X0288128Y0309541D01*
X0287885Y0309397D01*
X0287639Y0309258D01*
X0287390Y0309125D01*
X0287138Y0308998D01*
X0286883Y0308877D01*
X0286625Y0308762D01*
X0286365Y0308654D01*
X0286102Y0308551D01*
X0285836Y0308456D01*
X0285569Y0308366D01*
X0285299Y0308283D01*
X0285027Y0308206D01*
X0284754Y0308136D01*
X0284479Y0308072D01*
X0284202Y0308015D01*
X0283924Y0307965D01*
X0283646Y0307921D01*
X0283366Y0307884D01*
X0283085Y0307854D01*
X0282804Y0307830D01*
X0282522Y0307813D01*
X0282240Y0307803D01*
X0281958Y0307800D01*
X0272957Y0311800D02*
X0270957Y0311800D01*
X0270910Y0311912D02*
X0270723Y0311700D01*
X0270532Y0311492D01*
X0270335Y0311290D01*
X0270134Y0311092D01*
X0269928Y0310899D01*
X0269718Y0310710D01*
X0269503Y0310527D01*
X0269284Y0310349D01*
X0269060Y0310177D01*
X0268833Y0310010D01*
X0268602Y0309848D01*
X0268366Y0309692D01*
X0268128Y0309541D01*
X0267885Y0309397D01*
X0267639Y0309258D01*
X0267390Y0309125D01*
X0267138Y0308998D01*
X0266883Y0308877D01*
X0266625Y0308762D01*
X0266365Y0308654D01*
X0266102Y0308551D01*
X0265836Y0308456D01*
X0265569Y0308366D01*
X0265299Y0308283D01*
X0265027Y0308206D01*
X0264754Y0308136D01*
X0264479Y0308072D01*
X0264202Y0308015D01*
X0263924Y0307965D01*
X0263646Y0307921D01*
X0263366Y0307884D01*
X0263085Y0307854D01*
X0262804Y0307830D01*
X0262522Y0307813D01*
X0262240Y0307803D01*
X0261958Y0307800D01*
X0261669Y0307804D01*
X0261380Y0307814D01*
X0261092Y0307832D01*
X0260804Y0307857D01*
X0260517Y0307888D01*
X0260231Y0307927D01*
X0259946Y0307973D01*
X0259662Y0308026D01*
X0259379Y0308085D01*
X0259098Y0308152D01*
X0258819Y0308225D01*
X0258541Y0308305D01*
X0258266Y0308392D01*
X0257993Y0308486D01*
X0257722Y0308587D01*
X0257454Y0308693D01*
X0257188Y0308807D01*
X0256925Y0308927D01*
X0256666Y0309053D01*
X0256409Y0309186D01*
X0256156Y0309325D01*
X0255906Y0309470D01*
X0255660Y0309621D01*
X0255418Y0309778D01*
X0255179Y0309941D01*
X0254945Y0310110D01*
X0254715Y0310285D01*
X0254489Y0310465D01*
X0254268Y0310650D01*
X0254051Y0310841D01*
X0253839Y0311037D01*
X0253632Y0311239D01*
X0253430Y0311445D01*
X0253233Y0311656D01*
X0253041Y0311872D01*
X0245910Y0311912D02*
X0245723Y0311700D01*
X0245532Y0311492D01*
X0245335Y0311290D01*
X0245134Y0311092D01*
X0244928Y0310899D01*
X0244718Y0310710D01*
X0244503Y0310527D01*
X0244284Y0310349D01*
X0244060Y0310177D01*
X0243833Y0310010D01*
X0243602Y0309848D01*
X0243366Y0309692D01*
X0243128Y0309541D01*
X0242885Y0309397D01*
X0242639Y0309258D01*
X0242390Y0309125D01*
X0242138Y0308998D01*
X0241883Y0308877D01*
X0241625Y0308762D01*
X0241365Y0308654D01*
X0241102Y0308551D01*
X0240836Y0308456D01*
X0240569Y0308366D01*
X0240299Y0308283D01*
X0240027Y0308206D01*
X0239754Y0308136D01*
X0239479Y0308072D01*
X0239202Y0308015D01*
X0238924Y0307965D01*
X0238646Y0307921D01*
X0238366Y0307884D01*
X0238085Y0307854D01*
X0237804Y0307830D01*
X0237522Y0307813D01*
X0237240Y0307803D01*
X0236958Y0307800D01*
X0227957Y0311800D02*
X0225957Y0311800D01*
X0225910Y0311912D02*
X0225723Y0311700D01*
X0225532Y0311492D01*
X0225335Y0311290D01*
X0225134Y0311092D01*
X0224928Y0310899D01*
X0224718Y0310710D01*
X0224503Y0310527D01*
X0224284Y0310349D01*
X0224060Y0310177D01*
X0223833Y0310010D01*
X0223602Y0309848D01*
X0223366Y0309692D01*
X0223128Y0309541D01*
X0222885Y0309397D01*
X0222639Y0309258D01*
X0222390Y0309125D01*
X0222138Y0308998D01*
X0221883Y0308877D01*
X0221625Y0308762D01*
X0221365Y0308654D01*
X0221102Y0308551D01*
X0220836Y0308456D01*
X0220569Y0308366D01*
X0220299Y0308283D01*
X0220027Y0308206D01*
X0219754Y0308136D01*
X0219479Y0308072D01*
X0219202Y0308015D01*
X0218924Y0307965D01*
X0218646Y0307921D01*
X0218366Y0307884D01*
X0218085Y0307854D01*
X0217804Y0307830D01*
X0217522Y0307813D01*
X0217240Y0307803D01*
X0216958Y0307800D01*
X0216669Y0307804D01*
X0216380Y0307814D01*
X0216092Y0307832D01*
X0215804Y0307857D01*
X0215517Y0307888D01*
X0215231Y0307927D01*
X0214946Y0307973D01*
X0214662Y0308026D01*
X0214379Y0308085D01*
X0214098Y0308152D01*
X0213819Y0308225D01*
X0213541Y0308305D01*
X0213266Y0308392D01*
X0212993Y0308486D01*
X0212722Y0308587D01*
X0212454Y0308693D01*
X0212188Y0308807D01*
X0211925Y0308927D01*
X0211666Y0309053D01*
X0211409Y0309186D01*
X0211156Y0309325D01*
X0210906Y0309470D01*
X0210660Y0309621D01*
X0210418Y0309778D01*
X0210179Y0309941D01*
X0209945Y0310110D01*
X0209715Y0310285D01*
X0209489Y0310465D01*
X0209268Y0310650D01*
X0209051Y0310841D01*
X0208839Y0311037D01*
X0208632Y0311239D01*
X0208430Y0311445D01*
X0208233Y0311656D01*
X0208041Y0311872D01*
X0200910Y0311912D02*
X0200723Y0311700D01*
X0200532Y0311492D01*
X0200335Y0311290D01*
X0200134Y0311092D01*
X0199928Y0310899D01*
X0199718Y0310710D01*
X0199503Y0310527D01*
X0199284Y0310349D01*
X0199060Y0310177D01*
X0198833Y0310010D01*
X0198602Y0309848D01*
X0198366Y0309692D01*
X0198128Y0309541D01*
X0197885Y0309397D01*
X0197639Y0309258D01*
X0197390Y0309125D01*
X0197138Y0308998D01*
X0196883Y0308877D01*
X0196625Y0308762D01*
X0196365Y0308654D01*
X0196102Y0308551D01*
X0195836Y0308456D01*
X0195569Y0308366D01*
X0195299Y0308283D01*
X0195027Y0308206D01*
X0194754Y0308136D01*
X0194479Y0308072D01*
X0194202Y0308015D01*
X0193924Y0307965D01*
X0193646Y0307921D01*
X0193366Y0307884D01*
X0193085Y0307854D01*
X0192804Y0307830D01*
X0192522Y0307813D01*
X0192240Y0307803D01*
X0191958Y0307800D01*
X0182957Y0311800D02*
X0180957Y0311800D01*
X0180910Y0311912D02*
X0180723Y0311700D01*
X0180532Y0311492D01*
X0180335Y0311290D01*
X0180134Y0311092D01*
X0179928Y0310899D01*
X0179718Y0310710D01*
X0179503Y0310527D01*
X0179284Y0310349D01*
X0179060Y0310177D01*
X0178833Y0310010D01*
X0178602Y0309848D01*
X0178366Y0309692D01*
X0178128Y0309541D01*
X0177885Y0309397D01*
X0177639Y0309258D01*
X0177390Y0309125D01*
X0177138Y0308998D01*
X0176883Y0308877D01*
X0176625Y0308762D01*
X0176365Y0308654D01*
X0176102Y0308551D01*
X0175836Y0308456D01*
X0175569Y0308366D01*
X0175299Y0308283D01*
X0175027Y0308206D01*
X0174754Y0308136D01*
X0174479Y0308072D01*
X0174202Y0308015D01*
X0173924Y0307965D01*
X0173646Y0307921D01*
X0173366Y0307884D01*
X0173085Y0307854D01*
X0172804Y0307830D01*
X0172522Y0307813D01*
X0172240Y0307803D01*
X0171958Y0307800D01*
X0171669Y0307804D01*
X0171380Y0307814D01*
X0171092Y0307832D01*
X0170804Y0307857D01*
X0170517Y0307888D01*
X0170231Y0307927D01*
X0169946Y0307973D01*
X0169662Y0308026D01*
X0169379Y0308085D01*
X0169098Y0308152D01*
X0168819Y0308225D01*
X0168541Y0308305D01*
X0168266Y0308392D01*
X0167993Y0308486D01*
X0167722Y0308587D01*
X0167454Y0308693D01*
X0167188Y0308807D01*
X0166925Y0308927D01*
X0166666Y0309053D01*
X0166409Y0309186D01*
X0166156Y0309325D01*
X0165906Y0309470D01*
X0165660Y0309621D01*
X0165418Y0309778D01*
X0165179Y0309941D01*
X0164945Y0310110D01*
X0164715Y0310285D01*
X0164489Y0310465D01*
X0164268Y0310650D01*
X0164051Y0310841D01*
X0163839Y0311037D01*
X0163632Y0311239D01*
X0163430Y0311445D01*
X0163233Y0311656D01*
X0163041Y0311872D01*
X0155910Y0311912D02*
X0155723Y0311700D01*
X0155532Y0311492D01*
X0155335Y0311290D01*
X0155134Y0311092D01*
X0154928Y0310899D01*
X0154718Y0310710D01*
X0154503Y0310527D01*
X0154284Y0310349D01*
X0154060Y0310177D01*
X0153833Y0310010D01*
X0153602Y0309848D01*
X0153366Y0309692D01*
X0153128Y0309541D01*
X0152885Y0309397D01*
X0152639Y0309258D01*
X0152390Y0309125D01*
X0152138Y0308998D01*
X0151883Y0308877D01*
X0151625Y0308762D01*
X0151365Y0308654D01*
X0151102Y0308551D01*
X0150836Y0308456D01*
X0150569Y0308366D01*
X0150299Y0308283D01*
X0150027Y0308206D01*
X0149754Y0308136D01*
X0149479Y0308072D01*
X0149202Y0308015D01*
X0148924Y0307965D01*
X0148646Y0307921D01*
X0148366Y0307884D01*
X0148085Y0307854D01*
X0147804Y0307830D01*
X0147522Y0307813D01*
X0147240Y0307803D01*
X0146958Y0307800D01*
X0137957Y0311800D02*
X0135957Y0311800D01*
X0135910Y0311912D02*
X0135723Y0311700D01*
X0135532Y0311492D01*
X0135335Y0311290D01*
X0135134Y0311092D01*
X0134928Y0310899D01*
X0134718Y0310710D01*
X0134503Y0310527D01*
X0134284Y0310349D01*
X0134060Y0310177D01*
X0133833Y0310010D01*
X0133602Y0309848D01*
X0133366Y0309692D01*
X0133128Y0309541D01*
X0132885Y0309397D01*
X0132639Y0309258D01*
X0132390Y0309125D01*
X0132138Y0308998D01*
X0131883Y0308877D01*
X0131625Y0308762D01*
X0131365Y0308654D01*
X0131102Y0308551D01*
X0130836Y0308456D01*
X0130569Y0308366D01*
X0130299Y0308283D01*
X0130027Y0308206D01*
X0129754Y0308136D01*
X0129479Y0308072D01*
X0129202Y0308015D01*
X0128924Y0307965D01*
X0128646Y0307921D01*
X0128366Y0307884D01*
X0128085Y0307854D01*
X0127804Y0307830D01*
X0127522Y0307813D01*
X0127240Y0307803D01*
X0126958Y0307800D01*
X0126669Y0307804D01*
X0126380Y0307814D01*
X0126092Y0307832D01*
X0125804Y0307857D01*
X0125517Y0307888D01*
X0125231Y0307927D01*
X0124946Y0307973D01*
X0124662Y0308026D01*
X0124379Y0308085D01*
X0124098Y0308152D01*
X0123819Y0308225D01*
X0123541Y0308305D01*
X0123266Y0308392D01*
X0122993Y0308486D01*
X0122722Y0308587D01*
X0122454Y0308693D01*
X0122188Y0308807D01*
X0121925Y0308927D01*
X0121666Y0309053D01*
X0121409Y0309186D01*
X0121156Y0309325D01*
X0120906Y0309470D01*
X0120660Y0309621D01*
X0120418Y0309778D01*
X0120179Y0309941D01*
X0119945Y0310110D01*
X0119715Y0310285D01*
X0119489Y0310465D01*
X0119268Y0310650D01*
X0119051Y0310841D01*
X0118839Y0311037D01*
X0118632Y0311239D01*
X0118430Y0311445D01*
X0118233Y0311656D01*
X0118041Y0311872D01*
X0110910Y0311912D02*
X0110723Y0311700D01*
X0110532Y0311492D01*
X0110335Y0311290D01*
X0110134Y0311092D01*
X0109928Y0310899D01*
X0109718Y0310710D01*
X0109503Y0310527D01*
X0109284Y0310349D01*
X0109060Y0310177D01*
X0108833Y0310010D01*
X0108602Y0309848D01*
X0108366Y0309692D01*
X0108128Y0309541D01*
X0107885Y0309397D01*
X0107639Y0309258D01*
X0107390Y0309125D01*
X0107138Y0308998D01*
X0106883Y0308877D01*
X0106625Y0308762D01*
X0106365Y0308654D01*
X0106102Y0308551D01*
X0105836Y0308456D01*
X0105569Y0308366D01*
X0105299Y0308283D01*
X0105027Y0308206D01*
X0104754Y0308136D01*
X0104479Y0308072D01*
X0104202Y0308015D01*
X0103924Y0307965D01*
X0103646Y0307921D01*
X0103366Y0307884D01*
X0103085Y0307854D01*
X0102804Y0307830D01*
X0102522Y0307813D01*
X0102240Y0307803D01*
X0101958Y0307800D01*
X0092957Y0311800D02*
X0090957Y0311800D01*
X0090910Y0311912D02*
X0090723Y0311700D01*
X0090532Y0311492D01*
X0090335Y0311290D01*
X0090134Y0311092D01*
X0089928Y0310899D01*
X0089718Y0310710D01*
X0089503Y0310527D01*
X0089284Y0310349D01*
X0089060Y0310177D01*
X0088833Y0310010D01*
X0088602Y0309848D01*
X0088366Y0309692D01*
X0088128Y0309541D01*
X0087885Y0309397D01*
X0087639Y0309258D01*
X0087390Y0309125D01*
X0087138Y0308998D01*
X0086883Y0308877D01*
X0086625Y0308762D01*
X0086365Y0308654D01*
X0086102Y0308551D01*
X0085836Y0308456D01*
X0085569Y0308366D01*
X0085299Y0308283D01*
X0085027Y0308206D01*
X0084754Y0308136D01*
X0084479Y0308072D01*
X0084202Y0308015D01*
X0083924Y0307965D01*
X0083646Y0307921D01*
X0083366Y0307884D01*
X0083085Y0307854D01*
X0082804Y0307830D01*
X0082522Y0307813D01*
X0082240Y0307803D01*
X0081958Y0307800D01*
X0081669Y0307804D01*
X0081380Y0307814D01*
X0081092Y0307832D01*
X0080804Y0307857D01*
X0080517Y0307888D01*
X0080231Y0307927D01*
X0079946Y0307973D01*
X0079662Y0308026D01*
X0079379Y0308085D01*
X0079098Y0308152D01*
X0078819Y0308225D01*
X0078541Y0308305D01*
X0078266Y0308392D01*
X0077993Y0308486D01*
X0077722Y0308587D01*
X0077454Y0308693D01*
X0077188Y0308807D01*
X0076925Y0308927D01*
X0076666Y0309053D01*
X0076409Y0309186D01*
X0076156Y0309325D01*
X0075906Y0309470D01*
X0075660Y0309621D01*
X0075418Y0309778D01*
X0075179Y0309941D01*
X0074945Y0310110D01*
X0074715Y0310285D01*
X0074489Y0310465D01*
X0074268Y0310650D01*
X0074051Y0310841D01*
X0073839Y0311037D01*
X0073632Y0311239D01*
X0073430Y0311445D01*
X0073233Y0311656D01*
X0073041Y0311872D01*
X0065910Y0311912D02*
X0065723Y0311700D01*
X0065532Y0311492D01*
X0065335Y0311290D01*
X0065134Y0311092D01*
X0064928Y0310899D01*
X0064718Y0310710D01*
X0064503Y0310527D01*
X0064284Y0310349D01*
X0064060Y0310177D01*
X0063833Y0310010D01*
X0063602Y0309848D01*
X0063366Y0309692D01*
X0063128Y0309541D01*
X0062885Y0309397D01*
X0062639Y0309258D01*
X0062390Y0309125D01*
X0062138Y0308998D01*
X0061883Y0308877D01*
X0061625Y0308762D01*
X0061365Y0308654D01*
X0061102Y0308551D01*
X0060836Y0308456D01*
X0060569Y0308366D01*
X0060299Y0308283D01*
X0060027Y0308206D01*
X0059754Y0308136D01*
X0059479Y0308072D01*
X0059202Y0308015D01*
X0058924Y0307965D01*
X0058646Y0307921D01*
X0058366Y0307884D01*
X0058085Y0307854D01*
X0057804Y0307830D01*
X0057522Y0307813D01*
X0057240Y0307803D01*
X0056958Y0307800D01*
X0047957Y0311800D02*
X0045957Y0311800D01*
X0045910Y0311912D02*
X0045723Y0311700D01*
X0045532Y0311492D01*
X0045335Y0311290D01*
X0045134Y0311092D01*
X0044928Y0310899D01*
X0044718Y0310710D01*
X0044503Y0310527D01*
X0044284Y0310349D01*
X0044060Y0310177D01*
X0043833Y0310010D01*
X0043602Y0309848D01*
X0043366Y0309692D01*
X0043128Y0309541D01*
X0042885Y0309397D01*
X0042639Y0309258D01*
X0042390Y0309125D01*
X0042138Y0308998D01*
X0041883Y0308877D01*
X0041625Y0308762D01*
X0041365Y0308654D01*
X0041102Y0308551D01*
X0040836Y0308456D01*
X0040569Y0308366D01*
X0040299Y0308283D01*
X0040027Y0308206D01*
X0039754Y0308136D01*
X0039479Y0308072D01*
X0039202Y0308015D01*
X0038924Y0307965D01*
X0038646Y0307921D01*
X0038366Y0307884D01*
X0038085Y0307854D01*
X0037804Y0307830D01*
X0037522Y0307813D01*
X0037240Y0307803D01*
X0036958Y0307800D01*
X0036669Y0307804D01*
X0036380Y0307814D01*
X0036092Y0307832D01*
X0035804Y0307857D01*
X0035517Y0307888D01*
X0035231Y0307927D01*
X0034946Y0307973D01*
X0034662Y0308026D01*
X0034379Y0308085D01*
X0034098Y0308152D01*
X0033819Y0308225D01*
X0033541Y0308305D01*
X0033266Y0308392D01*
X0032993Y0308486D01*
X0032722Y0308587D01*
X0032454Y0308693D01*
X0032188Y0308807D01*
X0031925Y0308927D01*
X0031666Y0309053D01*
X0031409Y0309186D01*
X0031156Y0309325D01*
X0030906Y0309470D01*
X0030660Y0309621D01*
X0030418Y0309778D01*
X0030179Y0309941D01*
X0029945Y0310110D01*
X0029715Y0310285D01*
X0029489Y0310465D01*
X0029268Y0310650D01*
X0029051Y0310841D01*
X0028839Y0311037D01*
X0028632Y0311239D01*
X0028430Y0311445D01*
X0028233Y0311656D01*
X0028041Y0311872D01*
X0048040Y0311872D02*
X0048232Y0311656D01*
X0048429Y0311445D01*
X0048631Y0311238D01*
X0048838Y0311037D01*
X0049050Y0310841D01*
X0049267Y0310650D01*
X0049488Y0310464D01*
X0049714Y0310284D01*
X0049944Y0310110D01*
X0050179Y0309941D01*
X0050417Y0309778D01*
X0050659Y0309621D01*
X0050906Y0309470D01*
X0051155Y0309325D01*
X0051409Y0309186D01*
X0051665Y0309053D01*
X0051925Y0308927D01*
X0052188Y0308807D01*
X0052453Y0308693D01*
X0052721Y0308586D01*
X0052992Y0308486D01*
X0053266Y0308392D01*
X0053541Y0308305D01*
X0053818Y0308225D01*
X0054098Y0308152D01*
X0054379Y0308085D01*
X0054661Y0308025D01*
X0054945Y0307973D01*
X0055231Y0307927D01*
X0055517Y0307888D01*
X0055804Y0307856D01*
X0056092Y0307832D01*
X0056380Y0307814D01*
X0056669Y0307804D01*
X0056957Y0307800D01*
X0069457Y0341800D02*
X0069457Y0359300D01*
X0069457Y0341800D01*
X0069457Y0361800D02*
X0069457Y0366800D01*
X0071957Y0366800D01*
X0069457Y0366800D02*
X0069457Y0361800D01*
X0069457Y0366800D02*
X0066957Y0366800D01*
X0064457Y0366800D02*
X0046957Y0366800D01*
X0044457Y0366800D02*
X0029457Y0366800D01*
X0026957Y0366800D02*
X0024457Y0366800D01*
X0024457Y0361800D01*
X0024457Y0359300D02*
X0024457Y0341800D01*
X0074457Y0366800D02*
X0089457Y0366800D01*
X0091957Y0366800D02*
X0109457Y0366800D01*
X0111957Y0366800D02*
X0114457Y0366800D01*
X0114457Y0361800D01*
X0114457Y0366800D01*
X0116957Y0366800D01*
X0119457Y0366800D02*
X0134457Y0366800D01*
X0136957Y0366800D02*
X0154457Y0366800D01*
X0156957Y0366800D02*
X0159457Y0366800D01*
X0159457Y0361800D01*
X0159457Y0366800D01*
X0161957Y0366800D01*
X0164457Y0366800D02*
X0179457Y0366800D01*
X0181957Y0366800D02*
X0199457Y0366800D01*
X0201957Y0366800D02*
X0204457Y0366800D01*
X0204457Y0361800D01*
X0204457Y0366800D01*
X0206957Y0366800D01*
X0209457Y0366800D02*
X0224457Y0366800D01*
X0226957Y0366800D02*
X0244457Y0366800D01*
X0246957Y0366800D02*
X0249457Y0366800D01*
X0249457Y0361800D01*
X0249457Y0366800D01*
X0251957Y0366800D01*
X0254457Y0366800D02*
X0269457Y0366800D01*
X0271957Y0366800D02*
X0289457Y0366800D01*
X0291957Y0366800D02*
X0294457Y0366800D01*
X0294457Y0361800D01*
X0294457Y0366800D01*
X0296957Y0366800D01*
X0299457Y0366800D02*
X0314457Y0366800D01*
X0316957Y0366800D02*
X0334457Y0366800D01*
X0336957Y0366800D02*
X0339457Y0366800D01*
X0339457Y0361800D01*
X0339457Y0366800D01*
X0341957Y0366800D01*
X0344457Y0366800D02*
X0359457Y0366800D01*
X0361957Y0366800D02*
X0379457Y0366800D01*
X0381957Y0366800D02*
X0384457Y0366800D01*
X0384457Y0361800D01*
X0384457Y0359300D02*
X0384457Y0341800D01*
X0371957Y0307800D02*
X0371669Y0307804D01*
X0371380Y0307814D01*
X0371092Y0307832D01*
X0370804Y0307856D01*
X0370517Y0307888D01*
X0370231Y0307927D01*
X0369945Y0307973D01*
X0369661Y0308025D01*
X0369379Y0308085D01*
X0369098Y0308152D01*
X0368818Y0308225D01*
X0368541Y0308305D01*
X0368266Y0308392D01*
X0367992Y0308486D01*
X0367721Y0308586D01*
X0367453Y0308693D01*
X0367188Y0308807D01*
X0366925Y0308927D01*
X0366665Y0309053D01*
X0366409Y0309186D01*
X0366155Y0309325D01*
X0365906Y0309470D01*
X0365659Y0309621D01*
X0365417Y0309778D01*
X0365179Y0309941D01*
X0364944Y0310110D01*
X0364714Y0310284D01*
X0364488Y0310464D01*
X0364267Y0310650D01*
X0364050Y0310841D01*
X0363838Y0311037D01*
X0363631Y0311238D01*
X0363429Y0311445D01*
X0363232Y0311656D01*
X0363040Y0311872D01*
X0369365Y0282438D02*
X0369365Y0278168D01*
X0371500Y0280303D02*
X0367230Y0280303D01*
X0361800Y0274143D02*
X0379300Y0274143D01*
X0381800Y0274143D02*
X0386800Y0274143D01*
X0386800Y0271643D01*
X0386800Y0269143D02*
X0386800Y0254143D01*
X0386800Y0251643D02*
X0386800Y0234143D01*
X0386800Y0231643D02*
X0386800Y0229143D01*
X0381800Y0229143D01*
X0379300Y0229143D02*
X0361800Y0229143D01*
X0359300Y0229143D02*
X0356800Y0229143D01*
X0356800Y0274143D01*
X0359300Y0274143D01*
X0356800Y0274143D02*
X0326800Y0274143D01*
X0326800Y0229143D01*
X0356800Y0229143D01*
X0354300Y0231643D02*
X0331800Y0231643D01*
X0331800Y0232643D01*
X0331912Y0232690D02*
X0331700Y0232877D01*
X0331492Y0233068D01*
X0331290Y0233265D01*
X0331092Y0233466D01*
X0330899Y0233672D01*
X0330710Y0233882D01*
X0330527Y0234097D01*
X0330349Y0234316D01*
X0330177Y0234540D01*
X0330010Y0234767D01*
X0329848Y0234998D01*
X0329692Y0235234D01*
X0329541Y0235472D01*
X0329397Y0235715D01*
X0329258Y0235961D01*
X0329125Y0236210D01*
X0328998Y0236462D01*
X0328877Y0236717D01*
X0328762Y0236975D01*
X0328654Y0237235D01*
X0328551Y0237498D01*
X0328456Y0237764D01*
X0328366Y0238031D01*
X0328283Y0238301D01*
X0328206Y0238573D01*
X0328136Y0238846D01*
X0328072Y0239121D01*
X0328015Y0239398D01*
X0327965Y0239676D01*
X0327921Y0239954D01*
X0327884Y0240234D01*
X0327854Y0240515D01*
X0327830Y0240796D01*
X0327813Y0241078D01*
X0327803Y0241360D01*
X0327800Y0241642D01*
X0331800Y0250643D02*
X0331800Y0252643D01*
X0331912Y0252690D02*
X0331700Y0252877D01*
X0331492Y0253068D01*
X0331290Y0253265D01*
X0331092Y0253466D01*
X0330899Y0253672D01*
X0330710Y0253882D01*
X0330527Y0254097D01*
X0330349Y0254316D01*
X0330177Y0254540D01*
X0330010Y0254767D01*
X0329848Y0254998D01*
X0329692Y0255234D01*
X0329541Y0255472D01*
X0329397Y0255715D01*
X0329258Y0255961D01*
X0329125Y0256210D01*
X0328998Y0256462D01*
X0328877Y0256717D01*
X0328762Y0256975D01*
X0328654Y0257235D01*
X0328551Y0257498D01*
X0328456Y0257764D01*
X0328366Y0258031D01*
X0328283Y0258301D01*
X0328206Y0258573D01*
X0328136Y0258846D01*
X0328072Y0259121D01*
X0328015Y0259398D01*
X0327965Y0259676D01*
X0327921Y0259954D01*
X0327884Y0260234D01*
X0327854Y0260515D01*
X0327830Y0260796D01*
X0327813Y0261078D01*
X0327803Y0261360D01*
X0327800Y0261642D01*
X0331800Y0270643D02*
X0331800Y0271643D01*
X0354300Y0271643D01*
X0354300Y0231643D01*
X0327800Y0241643D02*
X0327804Y0241931D01*
X0327814Y0242220D01*
X0327832Y0242508D01*
X0327856Y0242796D01*
X0327888Y0243083D01*
X0327927Y0243369D01*
X0327973Y0243655D01*
X0328025Y0243939D01*
X0328085Y0244221D01*
X0328152Y0244502D01*
X0328225Y0244782D01*
X0328305Y0245059D01*
X0328392Y0245334D01*
X0328486Y0245608D01*
X0328586Y0245879D01*
X0328693Y0246147D01*
X0328807Y0246412D01*
X0328927Y0246675D01*
X0329053Y0246935D01*
X0329186Y0247191D01*
X0329325Y0247445D01*
X0329470Y0247694D01*
X0329621Y0247941D01*
X0329778Y0248183D01*
X0329941Y0248421D01*
X0330110Y0248656D01*
X0330284Y0248886D01*
X0330464Y0249112D01*
X0330650Y0249333D01*
X0330841Y0249550D01*
X0331037Y0249762D01*
X0331238Y0249969D01*
X0331445Y0250171D01*
X0331656Y0250368D01*
X0331872Y0250560D01*
X0327800Y0261642D02*
X0327804Y0261931D01*
X0327814Y0262220D01*
X0327832Y0262508D01*
X0327857Y0262796D01*
X0327888Y0263083D01*
X0327927Y0263369D01*
X0327973Y0263654D01*
X0328026Y0263938D01*
X0328085Y0264221D01*
X0328152Y0264502D01*
X0328225Y0264781D01*
X0328305Y0265059D01*
X0328392Y0265334D01*
X0328486Y0265607D01*
X0328587Y0265878D01*
X0328693Y0266146D01*
X0328807Y0266412D01*
X0328927Y0266675D01*
X0329053Y0266934D01*
X0329186Y0267191D01*
X0329325Y0267444D01*
X0329470Y0267694D01*
X0329621Y0267940D01*
X0329778Y0268182D01*
X0329941Y0268421D01*
X0330110Y0268655D01*
X0330285Y0268885D01*
X0330465Y0269111D01*
X0330650Y0269332D01*
X0330841Y0269549D01*
X0331037Y0269761D01*
X0331239Y0269968D01*
X0331445Y0270170D01*
X0331656Y0270367D01*
X0331872Y0270559D01*
X0308300Y0261800D02*
X0300800Y0261800D01*
X0300798Y0261926D01*
X0300792Y0262051D01*
X0300782Y0262176D01*
X0300768Y0262301D01*
X0300751Y0262426D01*
X0300729Y0262550D01*
X0300704Y0262673D01*
X0300674Y0262795D01*
X0300641Y0262916D01*
X0300604Y0263036D01*
X0300564Y0263155D01*
X0300519Y0263272D01*
X0300471Y0263389D01*
X0300419Y0263503D01*
X0300364Y0263616D01*
X0300305Y0263727D01*
X0300243Y0263836D01*
X0300177Y0263943D01*
X0300108Y0264048D01*
X0300036Y0264151D01*
X0299961Y0264252D01*
X0299882Y0264350D01*
X0299800Y0264445D01*
X0299716Y0264538D01*
X0299628Y0264628D01*
X0299538Y0264716D01*
X0299445Y0264800D01*
X0299350Y0264882D01*
X0299252Y0264961D01*
X0299151Y0265036D01*
X0299048Y0265108D01*
X0298943Y0265177D01*
X0298836Y0265243D01*
X0298727Y0265305D01*
X0298616Y0265364D01*
X0298503Y0265419D01*
X0298389Y0265471D01*
X0298272Y0265519D01*
X0298155Y0265564D01*
X0298036Y0265604D01*
X0297916Y0265641D01*
X0297795Y0265674D01*
X0297673Y0265704D01*
X0297550Y0265729D01*
X0297426Y0265751D01*
X0297301Y0265768D01*
X0297176Y0265782D01*
X0297051Y0265792D01*
X0296926Y0265798D01*
X0296800Y0265800D01*
X0296674Y0265798D01*
X0296549Y0265792D01*
X0296424Y0265782D01*
X0296299Y0265768D01*
X0296174Y0265751D01*
X0296050Y0265729D01*
X0295927Y0265704D01*
X0295805Y0265674D01*
X0295684Y0265641D01*
X0295564Y0265604D01*
X0295445Y0265564D01*
X0295328Y0265519D01*
X0295211Y0265471D01*
X0295097Y0265419D01*
X0294984Y0265364D01*
X0294873Y0265305D01*
X0294764Y0265243D01*
X0294657Y0265177D01*
X0294552Y0265108D01*
X0294449Y0265036D01*
X0294348Y0264961D01*
X0294250Y0264882D01*
X0294155Y0264800D01*
X0294062Y0264716D01*
X0293972Y0264628D01*
X0293884Y0264538D01*
X0293800Y0264445D01*
X0293718Y0264350D01*
X0293639Y0264252D01*
X0293564Y0264151D01*
X0293492Y0264048D01*
X0293423Y0263943D01*
X0293357Y0263836D01*
X0293295Y0263727D01*
X0293236Y0263616D01*
X0293181Y0263503D01*
X0293129Y0263389D01*
X0293081Y0263272D01*
X0293036Y0263155D01*
X0292996Y0263036D01*
X0292959Y0262916D01*
X0292926Y0262795D01*
X0292896Y0262673D01*
X0292871Y0262550D01*
X0292849Y0262426D01*
X0292832Y0262301D01*
X0292818Y0262176D01*
X0292808Y0262051D01*
X0292802Y0261926D01*
X0292800Y0261800D01*
X0285300Y0261800D01*
X0285300Y0281800D01*
X0308300Y0281800D01*
X0308300Y0261800D01*
X0326957Y0307800D02*
X0326669Y0307804D01*
X0326380Y0307814D01*
X0326092Y0307832D01*
X0325804Y0307856D01*
X0325517Y0307888D01*
X0325231Y0307927D01*
X0324945Y0307973D01*
X0324661Y0308025D01*
X0324379Y0308085D01*
X0324098Y0308152D01*
X0323818Y0308225D01*
X0323541Y0308305D01*
X0323266Y0308392D01*
X0322992Y0308486D01*
X0322721Y0308586D01*
X0322453Y0308693D01*
X0322188Y0308807D01*
X0321925Y0308927D01*
X0321665Y0309053D01*
X0321409Y0309186D01*
X0321155Y0309325D01*
X0320906Y0309470D01*
X0320659Y0309621D01*
X0320417Y0309778D01*
X0320179Y0309941D01*
X0319944Y0310110D01*
X0319714Y0310284D01*
X0319488Y0310464D01*
X0319267Y0310650D01*
X0319050Y0310841D01*
X0318838Y0311037D01*
X0318631Y0311238D01*
X0318429Y0311445D01*
X0318232Y0311656D01*
X0318040Y0311872D01*
X0339457Y0341800D02*
X0339457Y0359300D01*
X0339457Y0341800D01*
X0294457Y0341800D02*
X0294457Y0359300D01*
X0294457Y0341800D01*
X0281957Y0307800D02*
X0281669Y0307804D01*
X0281380Y0307814D01*
X0281092Y0307832D01*
X0280804Y0307856D01*
X0280517Y0307888D01*
X0280231Y0307927D01*
X0279945Y0307973D01*
X0279661Y0308025D01*
X0279379Y0308085D01*
X0279098Y0308152D01*
X0278818Y0308225D01*
X0278541Y0308305D01*
X0278266Y0308392D01*
X0277992Y0308486D01*
X0277721Y0308586D01*
X0277453Y0308693D01*
X0277188Y0308807D01*
X0276925Y0308927D01*
X0276665Y0309053D01*
X0276409Y0309186D01*
X0276155Y0309325D01*
X0275906Y0309470D01*
X0275659Y0309621D01*
X0275417Y0309778D01*
X0275179Y0309941D01*
X0274944Y0310110D01*
X0274714Y0310284D01*
X0274488Y0310464D01*
X0274267Y0310650D01*
X0274050Y0310841D01*
X0273838Y0311037D01*
X0273631Y0311238D01*
X0273429Y0311445D01*
X0273232Y0311656D01*
X0273040Y0311872D01*
X0249457Y0341800D02*
X0249457Y0359300D01*
X0249457Y0341800D01*
X0236957Y0307800D02*
X0236669Y0307804D01*
X0236380Y0307814D01*
X0236092Y0307832D01*
X0235804Y0307856D01*
X0235517Y0307888D01*
X0235231Y0307927D01*
X0234945Y0307973D01*
X0234661Y0308025D01*
X0234379Y0308085D01*
X0234098Y0308152D01*
X0233818Y0308225D01*
X0233541Y0308305D01*
X0233266Y0308392D01*
X0232992Y0308486D01*
X0232721Y0308586D01*
X0232453Y0308693D01*
X0232188Y0308807D01*
X0231925Y0308927D01*
X0231665Y0309053D01*
X0231409Y0309186D01*
X0231155Y0309325D01*
X0230906Y0309470D01*
X0230659Y0309621D01*
X0230417Y0309778D01*
X0230179Y0309941D01*
X0229944Y0310110D01*
X0229714Y0310284D01*
X0229488Y0310464D01*
X0229267Y0310650D01*
X0229050Y0310841D01*
X0228838Y0311037D01*
X0228631Y0311238D01*
X0228429Y0311445D01*
X0228232Y0311656D01*
X0228040Y0311872D01*
X0204457Y0341800D02*
X0204457Y0359300D01*
X0204457Y0341800D01*
X0191957Y0307800D02*
X0191669Y0307804D01*
X0191380Y0307814D01*
X0191092Y0307832D01*
X0190804Y0307856D01*
X0190517Y0307888D01*
X0190231Y0307927D01*
X0189945Y0307973D01*
X0189661Y0308025D01*
X0189379Y0308085D01*
X0189098Y0308152D01*
X0188818Y0308225D01*
X0188541Y0308305D01*
X0188266Y0308392D01*
X0187992Y0308486D01*
X0187721Y0308586D01*
X0187453Y0308693D01*
X0187188Y0308807D01*
X0186925Y0308927D01*
X0186665Y0309053D01*
X0186409Y0309186D01*
X0186155Y0309325D01*
X0185906Y0309470D01*
X0185659Y0309621D01*
X0185417Y0309778D01*
X0185179Y0309941D01*
X0184944Y0310110D01*
X0184714Y0310284D01*
X0184488Y0310464D01*
X0184267Y0310650D01*
X0184050Y0310841D01*
X0183838Y0311037D01*
X0183631Y0311238D01*
X0183429Y0311445D01*
X0183232Y0311656D01*
X0183040Y0311872D01*
X0159457Y0341800D02*
X0159457Y0359300D01*
X0159457Y0341800D01*
X0146957Y0307800D02*
X0146669Y0307804D01*
X0146380Y0307814D01*
X0146092Y0307832D01*
X0145804Y0307856D01*
X0145517Y0307888D01*
X0145231Y0307927D01*
X0144945Y0307973D01*
X0144661Y0308025D01*
X0144379Y0308085D01*
X0144098Y0308152D01*
X0143818Y0308225D01*
X0143541Y0308305D01*
X0143266Y0308392D01*
X0142992Y0308486D01*
X0142721Y0308586D01*
X0142453Y0308693D01*
X0142188Y0308807D01*
X0141925Y0308927D01*
X0141665Y0309053D01*
X0141409Y0309186D01*
X0141155Y0309325D01*
X0140906Y0309470D01*
X0140659Y0309621D01*
X0140417Y0309778D01*
X0140179Y0309941D01*
X0139944Y0310110D01*
X0139714Y0310284D01*
X0139488Y0310464D01*
X0139267Y0310650D01*
X0139050Y0310841D01*
X0138838Y0311037D01*
X0138631Y0311238D01*
X0138429Y0311445D01*
X0138232Y0311656D01*
X0138040Y0311872D01*
X0114457Y0341800D02*
X0114457Y0359300D01*
X0114457Y0341800D01*
X0101957Y0307800D02*
X0101669Y0307804D01*
X0101380Y0307814D01*
X0101092Y0307832D01*
X0100804Y0307856D01*
X0100517Y0307888D01*
X0100231Y0307927D01*
X0099945Y0307973D01*
X0099661Y0308025D01*
X0099379Y0308085D01*
X0099098Y0308152D01*
X0098818Y0308225D01*
X0098541Y0308305D01*
X0098266Y0308392D01*
X0097992Y0308486D01*
X0097721Y0308586D01*
X0097453Y0308693D01*
X0097188Y0308807D01*
X0096925Y0308927D01*
X0096665Y0309053D01*
X0096409Y0309186D01*
X0096155Y0309325D01*
X0095906Y0309470D01*
X0095659Y0309621D01*
X0095417Y0309778D01*
X0095179Y0309941D01*
X0094944Y0310110D01*
X0094714Y0310284D01*
X0094488Y0310464D01*
X0094267Y0310650D01*
X0094050Y0310841D01*
X0093838Y0311037D01*
X0093631Y0311238D01*
X0093429Y0311445D01*
X0093232Y0311656D01*
X0093040Y0311872D01*
X0157800Y0198300D02*
X0157803Y0198081D01*
X0157811Y0197862D01*
X0157824Y0197643D01*
X0157843Y0197425D01*
X0157867Y0197207D01*
X0157896Y0196990D01*
X0157930Y0196773D01*
X0157970Y0196558D01*
X0158015Y0196343D01*
X0158066Y0196130D01*
X0158121Y0195918D01*
X0158182Y0195707D01*
X0158247Y0195498D01*
X0158318Y0195291D01*
X0158394Y0195085D01*
X0158475Y0194881D01*
X0158560Y0194679D01*
X0158651Y0194480D01*
X0158746Y0194283D01*
X0158847Y0194088D01*
X0158952Y0193895D01*
X0159061Y0193705D01*
X0159175Y0193518D01*
X0159294Y0193334D01*
X0159417Y0193153D01*
X0159545Y0192975D01*
X0159677Y0192799D01*
X0159813Y0192628D01*
X0159953Y0192459D01*
X0160097Y0192294D01*
X0160245Y0192133D01*
X0160397Y0191975D01*
X0160553Y0191821D01*
X0160713Y0191671D01*
X0160876Y0191524D01*
X0161043Y0191382D01*
X0161213Y0191244D01*
X0161387Y0191110D01*
X0161563Y0190980D01*
X0161743Y0190855D01*
X0161926Y0190734D01*
X0162112Y0190618D01*
X0162300Y0190506D01*
X0162491Y0190399D01*
X0162685Y0190296D01*
X0162881Y0190198D01*
X0163079Y0190105D01*
X0163280Y0190017D01*
X0163483Y0189934D01*
X0163688Y0189855D01*
X0163894Y0189782D01*
X0164102Y0189714D01*
X0164312Y0189651D01*
X0164524Y0189593D01*
X0164736Y0189540D01*
X0164950Y0189492D01*
X0165165Y0189450D01*
X0165381Y0189413D01*
X0165598Y0189381D01*
X0165816Y0189354D01*
X0166034Y0189333D01*
X0166252Y0189317D01*
X0166471Y0189306D01*
X0166690Y0189301D01*
X0166910Y0189301D01*
X0167129Y0189306D01*
X0167348Y0189317D01*
X0167566Y0189333D01*
X0167784Y0189354D01*
X0168002Y0189381D01*
X0168219Y0189413D01*
X0168435Y0189450D01*
X0168650Y0189492D01*
X0168864Y0189540D01*
X0169076Y0189593D01*
X0169288Y0189651D01*
X0169498Y0189714D01*
X0169706Y0189782D01*
X0169912Y0189855D01*
X0170117Y0189934D01*
X0170320Y0190017D01*
X0170521Y0190105D01*
X0170719Y0190198D01*
X0170915Y0190296D01*
X0171109Y0190399D01*
X0171300Y0190506D01*
X0171488Y0190618D01*
X0171674Y0190734D01*
X0171857Y0190855D01*
X0172037Y0190980D01*
X0172213Y0191110D01*
X0172387Y0191244D01*
X0172557Y0191382D01*
X0172724Y0191524D01*
X0172887Y0191671D01*
X0173047Y0191821D01*
X0173203Y0191975D01*
X0173355Y0192133D01*
X0173503Y0192294D01*
X0173647Y0192459D01*
X0173787Y0192628D01*
X0173923Y0192799D01*
X0174055Y0192975D01*
X0174183Y0193153D01*
X0174306Y0193334D01*
X0174425Y0193518D01*
X0174539Y0193705D01*
X0174648Y0193895D01*
X0174753Y0194088D01*
X0174854Y0194283D01*
X0174949Y0194480D01*
X0175040Y0194679D01*
X0175125Y0194881D01*
X0175206Y0195085D01*
X0175282Y0195291D01*
X0175353Y0195498D01*
X0175418Y0195707D01*
X0175479Y0195918D01*
X0175534Y0196130D01*
X0175585Y0196343D01*
X0175630Y0196558D01*
X0175670Y0196773D01*
X0175704Y0196990D01*
X0175733Y0197207D01*
X0175757Y0197425D01*
X0175776Y0197643D01*
X0175789Y0197862D01*
X0175797Y0198081D01*
X0175800Y0198300D01*
X0337100Y0038505D02*
X0337100Y0034235D01*
X0339235Y0032100D01*
X0341370Y0034235D01*
X0341370Y0038505D01*
X0343545Y0036370D02*
X0345681Y0038505D01*
X0345681Y0032100D01*
X0347816Y0032100D02*
X0343545Y0032100D01*
X0349991Y0032100D02*
X0351059Y0032100D01*
X0351059Y0033168D01*
X0349991Y0033168D01*
X0349991Y0032100D01*
X0353214Y0032100D02*
X0357484Y0032100D01*
X0355349Y0032100D02*
X0355349Y0038505D01*
X0353214Y0036370D01*
D11*
X0347302Y0042600D02*
X0341164Y0042600D01*
X0338094Y0045669D01*
X0331956Y0042600D02*
X0331956Y0054877D01*
X0325817Y0061016D01*
X0319679Y0054877D01*
X0319679Y0042600D01*
X0313540Y0045669D02*
X0313540Y0057946D01*
X0310471Y0061016D01*
X0301263Y0061016D01*
X0301263Y0042600D01*
X0310471Y0042600D01*
X0313540Y0045669D01*
X0319679Y0051808D02*
X0331956Y0051808D01*
X0338094Y0054877D02*
X0341164Y0051808D01*
X0347302Y0051808D01*
X0350372Y0048739D01*
X0350372Y0045669D01*
X0347302Y0042600D01*
X0338094Y0054877D02*
X0338094Y0057946D01*
X0341164Y0061016D01*
X0347302Y0061016D01*
X0350372Y0057946D01*
X0295124Y0054877D02*
X0295124Y0042600D01*
X0295124Y0051808D02*
X0282847Y0051808D01*
X0282847Y0054877D02*
X0288986Y0061016D01*
X0295124Y0054877D01*
X0282847Y0054877D02*
X0282847Y0042600D01*
X0276709Y0042600D02*
X0276709Y0061016D01*
X0270570Y0054877D01*
X0264431Y0061016D01*
X0264431Y0042600D01*
X0258293Y0042600D02*
X0252154Y0048739D01*
X0255224Y0048739D02*
X0246016Y0048739D01*
X0246016Y0042600D02*
X0246016Y0061016D01*
X0255224Y0061016D01*
X0258293Y0057946D01*
X0258293Y0051808D01*
X0255224Y0048739D01*
X0239877Y0051808D02*
X0227600Y0051808D01*
X0227600Y0054877D02*
X0233739Y0061016D01*
X0239877Y0054877D01*
X0239877Y0042600D01*
X0227600Y0042600D02*
X0227600Y0054877D01*
D12*
X0286900Y0101900D02*
X0286900Y0104102D01*
X0288001Y0104102D01*
X0288368Y0103735D01*
X0288368Y0103001D01*
X0288001Y0102634D01*
X0286900Y0102634D01*
X0287634Y0102634D02*
X0288368Y0101900D01*
X0289110Y0101900D02*
X0290578Y0101900D01*
X0291320Y0101900D02*
X0291320Y0104102D01*
X0292054Y0103368D01*
X0292788Y0104102D01*
X0292788Y0101900D01*
X0293530Y0102267D02*
X0293897Y0101900D01*
X0294631Y0101900D01*
X0294998Y0102267D01*
X0294998Y0103735D01*
X0294631Y0104102D01*
X0293897Y0104102D01*
X0293530Y0103735D01*
X0293530Y0102267D01*
X0295740Y0102634D02*
X0295740Y0104102D01*
X0297207Y0104102D02*
X0297207Y0102634D01*
X0296473Y0101900D01*
X0295740Y0102634D01*
X0297949Y0103001D02*
X0298683Y0103001D01*
X0297949Y0104102D02*
X0297949Y0101900D01*
X0299417Y0101900D01*
X0299417Y0104102D02*
X0297949Y0104102D01*
X0290578Y0104102D02*
X0289110Y0104102D01*
X0289110Y0101900D01*
X0289110Y0103001D02*
X0289844Y0103001D01*
X0302369Y0103001D02*
X0303103Y0103001D01*
X0302369Y0104102D02*
X0302369Y0101900D01*
X0303837Y0101900D01*
X0304579Y0101900D02*
X0306047Y0104102D01*
X0306789Y0104102D02*
X0308257Y0104102D01*
X0307523Y0104102D02*
X0307523Y0101900D01*
X0306047Y0101900D02*
X0304579Y0104102D01*
X0303837Y0104102D02*
X0302369Y0104102D01*
X0311209Y0104102D02*
X0311209Y0101900D01*
X0311209Y0102634D02*
X0312310Y0102634D01*
X0312677Y0103001D01*
X0312677Y0103735D01*
X0312310Y0104102D01*
X0311209Y0104102D01*
X0313419Y0103735D02*
X0313419Y0102267D01*
X0313786Y0101900D01*
X0314519Y0101900D01*
X0314886Y0102267D01*
X0314886Y0103735D01*
X0314519Y0104102D01*
X0313786Y0104102D01*
X0313419Y0103735D01*
X0315628Y0104102D02*
X0315628Y0101900D01*
X0316362Y0102634D01*
X0317096Y0101900D01*
X0317096Y0104102D01*
X0317838Y0104102D02*
X0317838Y0101900D01*
X0319306Y0101900D01*
X0320048Y0101900D02*
X0320048Y0104102D01*
X0321149Y0104102D01*
X0321516Y0103735D01*
X0321516Y0103001D01*
X0321149Y0102634D01*
X0320048Y0102634D01*
X0320782Y0102634D02*
X0321516Y0101900D01*
X0324468Y0101900D02*
X0324468Y0104102D01*
X0325569Y0104102D01*
X0325936Y0103735D01*
X0325936Y0103368D01*
X0325569Y0103001D01*
X0324468Y0103001D01*
X0325569Y0103001D02*
X0325936Y0102634D01*
X0325936Y0102267D01*
X0325569Y0101900D01*
X0324468Y0101900D01*
X0326678Y0101900D02*
X0328146Y0101900D01*
X0328888Y0101900D02*
X0328888Y0104102D01*
X0330356Y0104102D01*
X0331098Y0103735D02*
X0331098Y0102267D01*
X0331465Y0101900D01*
X0332199Y0101900D01*
X0332566Y0102267D01*
X0332566Y0103735D01*
X0332199Y0104102D01*
X0331465Y0104102D01*
X0331098Y0103735D01*
X0329622Y0103001D02*
X0328888Y0103001D01*
X0328146Y0104102D02*
X0326678Y0104102D01*
X0326678Y0101900D01*
X0326678Y0103001D02*
X0327412Y0103001D01*
X0333307Y0102634D02*
X0334408Y0102634D01*
X0334775Y0103001D01*
X0334775Y0103735D01*
X0334408Y0104102D01*
X0333307Y0104102D01*
X0333307Y0101900D01*
X0334041Y0102634D02*
X0334775Y0101900D01*
X0335517Y0101900D02*
X0335517Y0104102D01*
X0336985Y0104102D01*
X0336251Y0103001D02*
X0335517Y0103001D01*
X0335517Y0101900D02*
X0336985Y0101900D01*
X0339937Y0101900D02*
X0339937Y0104102D01*
X0341038Y0104102D01*
X0341405Y0103735D01*
X0341405Y0103001D01*
X0341038Y0102634D01*
X0339937Y0102634D01*
X0342147Y0101900D02*
X0343615Y0101900D01*
X0344357Y0102267D02*
X0344724Y0101900D01*
X0345458Y0101900D01*
X0345825Y0102267D01*
X0345825Y0104102D01*
X0346567Y0103735D02*
X0346567Y0102267D01*
X0346934Y0101900D01*
X0347668Y0101900D01*
X0348035Y0102267D01*
X0348035Y0103001D01*
X0347301Y0103001D01*
X0348035Y0103735D02*
X0347668Y0104102D01*
X0346934Y0104102D01*
X0346567Y0103735D01*
X0348777Y0103735D02*
X0348777Y0102267D01*
X0349144Y0101900D01*
X0349878Y0101900D01*
X0350245Y0102267D01*
X0350245Y0103001D01*
X0349511Y0103001D01*
X0350245Y0103735D02*
X0349878Y0104102D01*
X0349144Y0104102D01*
X0348777Y0103735D01*
X0350987Y0104102D02*
X0351720Y0104102D01*
X0351353Y0104102D02*
X0351353Y0101900D01*
X0350987Y0101900D02*
X0351720Y0101900D01*
X0352460Y0101900D02*
X0352460Y0104102D01*
X0353928Y0101900D01*
X0353928Y0104102D01*
X0354670Y0103735D02*
X0354670Y0102267D01*
X0355037Y0101900D01*
X0355771Y0101900D01*
X0356138Y0102267D01*
X0356138Y0103001D01*
X0355404Y0103001D01*
X0356138Y0103735D02*
X0355771Y0104102D01*
X0355037Y0104102D01*
X0354670Y0103735D01*
X0359089Y0104102D02*
X0359823Y0104102D01*
X0359456Y0104102D02*
X0359456Y0101900D01*
X0359089Y0101900D02*
X0359823Y0101900D01*
X0360563Y0101900D02*
X0360563Y0104102D01*
X0362031Y0101900D01*
X0362031Y0104102D01*
X0344357Y0104102D02*
X0344357Y0102267D01*
X0342147Y0101900D02*
X0342147Y0104102D01*
X0319306Y0104102D02*
X0317838Y0104102D01*
X0317838Y0103001D02*
X0318572Y0103001D01*
X0173800Y0198300D02*
X0173800Y0225300D01*
X0173798Y0225470D01*
X0173792Y0225641D01*
X0173781Y0225811D01*
X0173767Y0225981D01*
X0173748Y0226150D01*
X0173725Y0226319D01*
X0173699Y0226488D01*
X0173668Y0226655D01*
X0173633Y0226822D01*
X0173593Y0226988D01*
X0173550Y0227153D01*
X0173503Y0227317D01*
X0173452Y0227479D01*
X0173397Y0227641D01*
X0173338Y0227801D01*
X0173275Y0227959D01*
X0173209Y0228116D01*
X0173138Y0228271D01*
X0173064Y0228425D01*
X0172986Y0228576D01*
X0172904Y0228726D01*
X0172819Y0228874D01*
X0172730Y0229019D01*
X0172638Y0229162D01*
X0172542Y0229303D01*
X0172443Y0229442D01*
X0172340Y0229578D01*
X0172235Y0229712D01*
X0172126Y0229843D01*
X0172013Y0229971D01*
X0171898Y0230097D01*
X0171780Y0230220D01*
X0171659Y0230339D01*
X0171534Y0230456D01*
X0171407Y0230570D01*
X0171278Y0230681D01*
X0171145Y0230788D01*
X0171010Y0230892D01*
X0170873Y0230993D01*
X0170733Y0231091D01*
X0170591Y0231185D01*
X0170447Y0231275D01*
X0170300Y0231362D01*
X0170151Y0231446D01*
X0170001Y0231525D01*
X0169848Y0231601D01*
X0169694Y0231674D01*
X0169538Y0231742D01*
X0169380Y0231807D01*
X0169221Y0231868D01*
X0169060Y0231925D01*
X0168898Y0231978D01*
X0168735Y0232027D01*
X0168571Y0232072D01*
X0168405Y0232113D01*
X0168239Y0232151D01*
X0168071Y0232184D01*
X0167903Y0232212D01*
X0167735Y0232237D01*
X0167566Y0232258D01*
X0167396Y0232275D01*
X0167226Y0232287D01*
X0167056Y0232295D01*
X0166885Y0232299D01*
X0166715Y0232299D01*
X0166544Y0232295D01*
X0166374Y0232287D01*
X0166204Y0232275D01*
X0166034Y0232258D01*
X0165865Y0232237D01*
X0165697Y0232212D01*
X0165529Y0232184D01*
X0165361Y0232151D01*
X0165195Y0232113D01*
X0165029Y0232072D01*
X0164865Y0232027D01*
X0164702Y0231978D01*
X0164540Y0231925D01*
X0164379Y0231868D01*
X0164220Y0231807D01*
X0164062Y0231742D01*
X0163906Y0231674D01*
X0163752Y0231601D01*
X0163599Y0231525D01*
X0163449Y0231446D01*
X0163300Y0231362D01*
X0163153Y0231275D01*
X0163009Y0231185D01*
X0162867Y0231091D01*
X0162727Y0230993D01*
X0162590Y0230892D01*
X0162455Y0230788D01*
X0162322Y0230681D01*
X0162193Y0230570D01*
X0162066Y0230456D01*
X0161941Y0230339D01*
X0161820Y0230220D01*
X0161702Y0230097D01*
X0161587Y0229971D01*
X0161474Y0229843D01*
X0161365Y0229712D01*
X0161260Y0229578D01*
X0161157Y0229442D01*
X0161058Y0229303D01*
X0160962Y0229162D01*
X0160870Y0229019D01*
X0160781Y0228874D01*
X0160696Y0228726D01*
X0160614Y0228576D01*
X0160536Y0228425D01*
X0160462Y0228271D01*
X0160391Y0228116D01*
X0160325Y0227959D01*
X0160262Y0227801D01*
X0160203Y0227641D01*
X0160148Y0227479D01*
X0160097Y0227317D01*
X0160050Y0227153D01*
X0160007Y0226988D01*
X0159967Y0226822D01*
X0159932Y0226655D01*
X0159901Y0226488D01*
X0159875Y0226319D01*
X0159852Y0226150D01*
X0159833Y0225981D01*
X0159819Y0225811D01*
X0159808Y0225641D01*
X0159802Y0225470D01*
X0159800Y0225300D01*
X0159800Y0198300D01*
X0159802Y0198130D01*
X0159808Y0197959D01*
X0159819Y0197789D01*
X0159833Y0197619D01*
X0159852Y0197450D01*
X0159875Y0197281D01*
X0159901Y0197112D01*
X0159932Y0196945D01*
X0159967Y0196778D01*
X0160007Y0196612D01*
X0160050Y0196447D01*
X0160097Y0196283D01*
X0160148Y0196121D01*
X0160203Y0195959D01*
X0160262Y0195799D01*
X0160325Y0195641D01*
X0160391Y0195484D01*
X0160462Y0195329D01*
X0160536Y0195175D01*
X0160614Y0195024D01*
X0160696Y0194874D01*
X0160781Y0194726D01*
X0160870Y0194581D01*
X0160962Y0194438D01*
X0161058Y0194297D01*
X0161157Y0194158D01*
X0161260Y0194022D01*
X0161365Y0193888D01*
X0161474Y0193757D01*
X0161587Y0193629D01*
X0161702Y0193503D01*
X0161820Y0193380D01*
X0161941Y0193261D01*
X0162066Y0193144D01*
X0162193Y0193030D01*
X0162322Y0192919D01*
X0162455Y0192812D01*
X0162590Y0192708D01*
X0162727Y0192607D01*
X0162867Y0192509D01*
X0163009Y0192415D01*
X0163153Y0192325D01*
X0163300Y0192238D01*
X0163449Y0192154D01*
X0163599Y0192075D01*
X0163752Y0191999D01*
X0163906Y0191926D01*
X0164062Y0191858D01*
X0164220Y0191793D01*
X0164379Y0191732D01*
X0164540Y0191675D01*
X0164702Y0191622D01*
X0164865Y0191573D01*
X0165029Y0191528D01*
X0165195Y0191487D01*
X0165361Y0191449D01*
X0165529Y0191416D01*
X0165697Y0191388D01*
X0165865Y0191363D01*
X0166034Y0191342D01*
X0166204Y0191325D01*
X0166374Y0191313D01*
X0166544Y0191305D01*
X0166715Y0191301D01*
X0166885Y0191301D01*
X0167056Y0191305D01*
X0167226Y0191313D01*
X0167396Y0191325D01*
X0167566Y0191342D01*
X0167735Y0191363D01*
X0167903Y0191388D01*
X0168071Y0191416D01*
X0168239Y0191449D01*
X0168405Y0191487D01*
X0168571Y0191528D01*
X0168735Y0191573D01*
X0168898Y0191622D01*
X0169060Y0191675D01*
X0169221Y0191732D01*
X0169380Y0191793D01*
X0169538Y0191858D01*
X0169694Y0191926D01*
X0169848Y0191999D01*
X0170001Y0192075D01*
X0170151Y0192154D01*
X0170300Y0192238D01*
X0170447Y0192325D01*
X0170591Y0192415D01*
X0170733Y0192509D01*
X0170873Y0192607D01*
X0171010Y0192708D01*
X0171145Y0192812D01*
X0171278Y0192919D01*
X0171407Y0193030D01*
X0171534Y0193144D01*
X0171659Y0193261D01*
X0171780Y0193380D01*
X0171898Y0193503D01*
X0172013Y0193629D01*
X0172126Y0193757D01*
X0172235Y0193888D01*
X0172340Y0194022D01*
X0172443Y0194158D01*
X0172542Y0194297D01*
X0172638Y0194438D01*
X0172730Y0194581D01*
X0172819Y0194726D01*
X0172904Y0194874D01*
X0172986Y0195024D01*
X0173064Y0195175D01*
X0173138Y0195329D01*
X0173209Y0195484D01*
X0173275Y0195641D01*
X0173338Y0195799D01*
X0173397Y0195959D01*
X0173452Y0196121D01*
X0173503Y0196283D01*
X0173550Y0196447D01*
X0173593Y0196612D01*
X0173633Y0196778D01*
X0173668Y0196945D01*
X0173699Y0197112D01*
X0173725Y0197281D01*
X0173748Y0197450D01*
X0173767Y0197619D01*
X0173781Y0197789D01*
X0173792Y0197959D01*
X0173798Y0198130D01*
X0173800Y0198300D01*
X0139800Y0166800D02*
X0103800Y0166800D01*
X0103800Y0134300D01*
X0139800Y0134300D01*
X0139800Y0166800D01*
D13*
X0156800Y0117800D02*
X0156800Y0116800D01*
X0159800Y0116800D01*
X0159800Y0096800D01*
X0156800Y0096800D01*
X0156800Y0095800D01*
X0156800Y0096800D02*
X0153800Y0096800D01*
X0153800Y0116800D01*
X0156800Y0116800D01*
X0159300Y0099300D02*
X0154300Y0099300D01*
X0156800Y0077800D02*
X0156800Y0076800D01*
X0159800Y0076800D01*
X0159800Y0056800D01*
X0156800Y0056800D01*
X0156800Y0055800D01*
X0156800Y0056800D02*
X0153800Y0056800D01*
X0153800Y0076800D01*
X0156800Y0076800D01*
X0154300Y0074300D02*
X0159300Y0074300D01*
X0218800Y0076800D02*
X0218800Y0056800D01*
X0221800Y0056800D01*
X0221800Y0055800D01*
X0221800Y0056800D02*
X0224800Y0056800D01*
X0224800Y0076800D01*
X0221800Y0076800D01*
X0221800Y0077800D01*
X0221800Y0076800D02*
X0218800Y0076800D01*
X0219300Y0074300D02*
X0224300Y0074300D01*
X0271249Y0069487D02*
X0271249Y0064113D01*
X0362800Y0184800D02*
X0370729Y0184800D01*
X0378800Y0188300D02*
X0378800Y0205300D01*
X0370847Y0208800D02*
X0362800Y0208800D01*
X0354800Y0205300D02*
X0354800Y0188300D01*
X0359800Y0196800D02*
X0359802Y0196972D01*
X0359808Y0197143D01*
X0359819Y0197315D01*
X0359834Y0197486D01*
X0359853Y0197657D01*
X0359876Y0197827D01*
X0359903Y0197997D01*
X0359935Y0198166D01*
X0359970Y0198334D01*
X0360010Y0198501D01*
X0360054Y0198667D01*
X0360101Y0198832D01*
X0360153Y0198996D01*
X0360209Y0199158D01*
X0360269Y0199319D01*
X0360333Y0199479D01*
X0360401Y0199637D01*
X0360472Y0199793D01*
X0360547Y0199947D01*
X0360627Y0200100D01*
X0360709Y0200250D01*
X0360796Y0200399D01*
X0360886Y0200545D01*
X0360980Y0200689D01*
X0361077Y0200831D01*
X0361178Y0200970D01*
X0361282Y0201107D01*
X0361389Y0201241D01*
X0361500Y0201372D01*
X0361613Y0201501D01*
X0361730Y0201627D01*
X0361850Y0201750D01*
X0361973Y0201870D01*
X0362099Y0201987D01*
X0362228Y0202100D01*
X0362359Y0202211D01*
X0362493Y0202318D01*
X0362630Y0202422D01*
X0362769Y0202523D01*
X0362911Y0202620D01*
X0363055Y0202714D01*
X0363201Y0202804D01*
X0363350Y0202891D01*
X0363500Y0202973D01*
X0363653Y0203053D01*
X0363807Y0203128D01*
X0363963Y0203199D01*
X0364121Y0203267D01*
X0364281Y0203331D01*
X0364442Y0203391D01*
X0364604Y0203447D01*
X0364768Y0203499D01*
X0364933Y0203546D01*
X0365099Y0203590D01*
X0365266Y0203630D01*
X0365434Y0203665D01*
X0365603Y0203697D01*
X0365773Y0203724D01*
X0365943Y0203747D01*
X0366114Y0203766D01*
X0366285Y0203781D01*
X0366457Y0203792D01*
X0366628Y0203798D01*
X0366800Y0203800D01*
X0366972Y0203798D01*
X0367143Y0203792D01*
X0367315Y0203781D01*
X0367486Y0203766D01*
X0367657Y0203747D01*
X0367827Y0203724D01*
X0367997Y0203697D01*
X0368166Y0203665D01*
X0368334Y0203630D01*
X0368501Y0203590D01*
X0368667Y0203546D01*
X0368832Y0203499D01*
X0368996Y0203447D01*
X0369158Y0203391D01*
X0369319Y0203331D01*
X0369479Y0203267D01*
X0369637Y0203199D01*
X0369793Y0203128D01*
X0369947Y0203053D01*
X0370100Y0202973D01*
X0370250Y0202891D01*
X0370399Y0202804D01*
X0370545Y0202714D01*
X0370689Y0202620D01*
X0370831Y0202523D01*
X0370970Y0202422D01*
X0371107Y0202318D01*
X0371241Y0202211D01*
X0371372Y0202100D01*
X0371501Y0201987D01*
X0371627Y0201870D01*
X0371750Y0201750D01*
X0371870Y0201627D01*
X0371987Y0201501D01*
X0372100Y0201372D01*
X0372211Y0201241D01*
X0372318Y0201107D01*
X0372422Y0200970D01*
X0372523Y0200831D01*
X0372620Y0200689D01*
X0372714Y0200545D01*
X0372804Y0200399D01*
X0372891Y0200250D01*
X0372973Y0200100D01*
X0373053Y0199947D01*
X0373128Y0199793D01*
X0373199Y0199637D01*
X0373267Y0199479D01*
X0373331Y0199319D01*
X0373391Y0199158D01*
X0373447Y0198996D01*
X0373499Y0198832D01*
X0373546Y0198667D01*
X0373590Y0198501D01*
X0373630Y0198334D01*
X0373665Y0198166D01*
X0373697Y0197997D01*
X0373724Y0197827D01*
X0373747Y0197657D01*
X0373766Y0197486D01*
X0373781Y0197315D01*
X0373792Y0197143D01*
X0373798Y0196972D01*
X0373800Y0196800D01*
X0373798Y0196628D01*
X0373792Y0196457D01*
X0373781Y0196285D01*
X0373766Y0196114D01*
X0373747Y0195943D01*
X0373724Y0195773D01*
X0373697Y0195603D01*
X0373665Y0195434D01*
X0373630Y0195266D01*
X0373590Y0195099D01*
X0373546Y0194933D01*
X0373499Y0194768D01*
X0373447Y0194604D01*
X0373391Y0194442D01*
X0373331Y0194281D01*
X0373267Y0194121D01*
X0373199Y0193963D01*
X0373128Y0193807D01*
X0373053Y0193653D01*
X0372973Y0193500D01*
X0372891Y0193350D01*
X0372804Y0193201D01*
X0372714Y0193055D01*
X0372620Y0192911D01*
X0372523Y0192769D01*
X0372422Y0192630D01*
X0372318Y0192493D01*
X0372211Y0192359D01*
X0372100Y0192228D01*
X0371987Y0192099D01*
X0371870Y0191973D01*
X0371750Y0191850D01*
X0371627Y0191730D01*
X0371501Y0191613D01*
X0371372Y0191500D01*
X0371241Y0191389D01*
X0371107Y0191282D01*
X0370970Y0191178D01*
X0370831Y0191077D01*
X0370689Y0190980D01*
X0370545Y0190886D01*
X0370399Y0190796D01*
X0370250Y0190709D01*
X0370100Y0190627D01*
X0369947Y0190547D01*
X0369793Y0190472D01*
X0369637Y0190401D01*
X0369479Y0190333D01*
X0369319Y0190269D01*
X0369158Y0190209D01*
X0368996Y0190153D01*
X0368832Y0190101D01*
X0368667Y0190054D01*
X0368501Y0190010D01*
X0368334Y0189970D01*
X0368166Y0189935D01*
X0367997Y0189903D01*
X0367827Y0189876D01*
X0367657Y0189853D01*
X0367486Y0189834D01*
X0367315Y0189819D01*
X0367143Y0189808D01*
X0366972Y0189802D01*
X0366800Y0189800D01*
X0366628Y0189802D01*
X0366457Y0189808D01*
X0366285Y0189819D01*
X0366114Y0189834D01*
X0365943Y0189853D01*
X0365773Y0189876D01*
X0365603Y0189903D01*
X0365434Y0189935D01*
X0365266Y0189970D01*
X0365099Y0190010D01*
X0364933Y0190054D01*
X0364768Y0190101D01*
X0364604Y0190153D01*
X0364442Y0190209D01*
X0364281Y0190269D01*
X0364121Y0190333D01*
X0363963Y0190401D01*
X0363807Y0190472D01*
X0363653Y0190547D01*
X0363500Y0190627D01*
X0363350Y0190709D01*
X0363201Y0190796D01*
X0363055Y0190886D01*
X0362911Y0190980D01*
X0362769Y0191077D01*
X0362630Y0191178D01*
X0362493Y0191282D01*
X0362359Y0191389D01*
X0362228Y0191500D01*
X0362099Y0191613D01*
X0361973Y0191730D01*
X0361850Y0191850D01*
X0361730Y0191973D01*
X0361613Y0192099D01*
X0361500Y0192228D01*
X0361389Y0192359D01*
X0361282Y0192493D01*
X0361178Y0192630D01*
X0361077Y0192769D01*
X0360980Y0192911D01*
X0360886Y0193055D01*
X0360796Y0193201D01*
X0360709Y0193350D01*
X0360627Y0193500D01*
X0360547Y0193653D01*
X0360472Y0193807D01*
X0360401Y0193963D01*
X0360333Y0194121D01*
X0360269Y0194281D01*
X0360209Y0194442D01*
X0360153Y0194604D01*
X0360101Y0194768D01*
X0360054Y0194933D01*
X0360010Y0195099D01*
X0359970Y0195266D01*
X0359935Y0195434D01*
X0359903Y0195603D01*
X0359876Y0195773D01*
X0359853Y0195943D01*
X0359834Y0196114D01*
X0359819Y0196285D01*
X0359808Y0196457D01*
X0359802Y0196628D01*
X0359800Y0196800D01*
X0220599Y0193001D02*
X0193001Y0193001D01*
X0193001Y0219202D01*
X0194398Y0220599D01*
X0220599Y0220599D01*
X0220599Y0193001D01*
X0191800Y0221300D02*
X0191802Y0221349D01*
X0191808Y0221397D01*
X0191818Y0221445D01*
X0191832Y0221492D01*
X0191849Y0221538D01*
X0191870Y0221582D01*
X0191895Y0221624D01*
X0191923Y0221664D01*
X0191955Y0221702D01*
X0191989Y0221737D01*
X0192026Y0221769D01*
X0192065Y0221798D01*
X0192107Y0221824D01*
X0192151Y0221846D01*
X0192196Y0221864D01*
X0192243Y0221879D01*
X0192290Y0221890D01*
X0192339Y0221897D01*
X0192388Y0221900D01*
X0192437Y0221899D01*
X0192485Y0221894D01*
X0192534Y0221885D01*
X0192581Y0221872D01*
X0192627Y0221855D01*
X0192671Y0221835D01*
X0192714Y0221811D01*
X0192755Y0221784D01*
X0192793Y0221753D01*
X0192829Y0221720D01*
X0192861Y0221684D01*
X0192891Y0221645D01*
X0192918Y0221604D01*
X0192941Y0221560D01*
X0192960Y0221515D01*
X0192976Y0221469D01*
X0192988Y0221422D01*
X0192996Y0221373D01*
X0193000Y0221324D01*
X0193000Y0221276D01*
X0192996Y0221227D01*
X0192988Y0221178D01*
X0192976Y0221131D01*
X0192960Y0221085D01*
X0192941Y0221040D01*
X0192918Y0220996D01*
X0192891Y0220955D01*
X0192861Y0220916D01*
X0192829Y0220880D01*
X0192793Y0220847D01*
X0192755Y0220816D01*
X0192714Y0220789D01*
X0192671Y0220765D01*
X0192627Y0220745D01*
X0192581Y0220728D01*
X0192534Y0220715D01*
X0192485Y0220706D01*
X0192437Y0220701D01*
X0192388Y0220700D01*
X0192339Y0220703D01*
X0192290Y0220710D01*
X0192243Y0220721D01*
X0192196Y0220736D01*
X0192151Y0220754D01*
X0192107Y0220776D01*
X0192065Y0220802D01*
X0192026Y0220831D01*
X0191989Y0220863D01*
X0191955Y0220898D01*
X0191923Y0220936D01*
X0191895Y0220976D01*
X0191870Y0221018D01*
X0191849Y0221062D01*
X0191832Y0221108D01*
X0191818Y0221155D01*
X0191808Y0221203D01*
X0191802Y0221251D01*
X0191800Y0221300D01*
D14*
X0033800Y0223300D02*
X0033800Y0050300D01*
X0089800Y0050300D01*
X0089800Y0223300D01*
X0033800Y0223300D01*
X0041800Y0219300D02*
X0044300Y0221800D01*
X0049300Y0221800D01*
X0051800Y0219300D01*
X0054300Y0221800D01*
X0059300Y0221800D01*
X0061800Y0219300D01*
X0064300Y0221800D01*
X0069300Y0221800D01*
X0071800Y0219300D01*
X0074300Y0221800D01*
X0079300Y0221800D01*
X0081800Y0219300D01*
X0081800Y0214300D01*
X0079300Y0211800D01*
X0074300Y0211800D01*
X0071800Y0214300D01*
X0069300Y0211800D01*
X0064300Y0211800D01*
X0061800Y0214300D01*
X0059300Y0211800D01*
X0054300Y0211800D01*
X0051800Y0214300D01*
X0049300Y0211800D01*
X0044300Y0211800D01*
X0041800Y0214300D01*
X0041800Y0219300D01*
X0034050Y0240007D02*
X0034050Y0243010D01*
X0034050Y0241509D02*
X0029546Y0241509D01*
X0031047Y0240007D01*
X0030297Y0259407D02*
X0029546Y0260158D01*
X0029546Y0261659D01*
X0030297Y0262410D01*
X0031047Y0262410D01*
X0034050Y0259407D01*
X0034050Y0262410D01*
X0044269Y0279550D02*
X0044269Y0284054D01*
X0046521Y0284054D01*
X0047271Y0283303D01*
X0047271Y0281802D01*
X0046521Y0281051D01*
X0044269Y0281051D01*
X0048873Y0280301D02*
X0048873Y0284054D01*
X0051875Y0284054D02*
X0051875Y0280301D01*
X0051125Y0279550D01*
X0049623Y0279550D01*
X0048873Y0280301D01*
X0053477Y0279550D02*
X0056479Y0279550D01*
X0058081Y0280301D02*
X0058831Y0279550D01*
X0060333Y0279550D01*
X0061083Y0280301D01*
X0061083Y0281051D01*
X0060333Y0281802D01*
X0058831Y0281802D01*
X0058081Y0282553D01*
X0058081Y0283303D01*
X0058831Y0284054D01*
X0060333Y0284054D01*
X0061083Y0283303D01*
X0062685Y0284054D02*
X0062685Y0279550D01*
X0065687Y0279550D01*
X0067289Y0279550D02*
X0070291Y0279550D01*
X0068790Y0279550D02*
X0068790Y0284054D01*
X0067289Y0282553D01*
X0065687Y0284054D02*
X0062685Y0284054D01*
X0062685Y0281802D02*
X0064186Y0281802D01*
X0053477Y0284054D02*
X0053477Y0279550D01*
X0034814Y0299550D02*
X0031811Y0299550D01*
X0033313Y0299550D02*
X0033313Y0304054D01*
X0031811Y0302553D01*
X0030210Y0304054D02*
X0027207Y0299550D01*
X0030210Y0299550D02*
X0027207Y0304054D01*
X0072207Y0304054D02*
X0075210Y0299550D01*
X0076811Y0299550D02*
X0079814Y0302553D01*
X0079814Y0303303D01*
X0079063Y0304054D01*
X0077562Y0304054D01*
X0076811Y0303303D01*
X0075210Y0304054D02*
X0072207Y0299550D01*
X0076811Y0299550D02*
X0079814Y0299550D01*
X0117207Y0299550D02*
X0120210Y0304054D01*
X0121811Y0303303D02*
X0122562Y0304054D01*
X0124063Y0304054D01*
X0124814Y0303303D01*
X0124814Y0302553D01*
X0124063Y0301802D01*
X0124814Y0301051D01*
X0124814Y0300301D01*
X0124063Y0299550D01*
X0122562Y0299550D01*
X0121811Y0300301D01*
X0120210Y0299550D02*
X0117207Y0304054D01*
X0123313Y0301802D02*
X0124063Y0301802D01*
X0162207Y0304054D02*
X0165210Y0299550D01*
X0166811Y0301802D02*
X0169814Y0301802D01*
X0169063Y0299550D02*
X0169063Y0304054D01*
X0166811Y0301802D01*
X0165210Y0304054D02*
X0162207Y0299550D01*
X0162905Y0264054D02*
X0164406Y0264054D01*
X0165156Y0263303D01*
X0162154Y0260301D01*
X0162905Y0259550D01*
X0164406Y0259550D01*
X0165156Y0260301D01*
X0165156Y0263303D01*
X0166758Y0264054D02*
X0166758Y0261802D01*
X0168259Y0262553D01*
X0169010Y0262553D01*
X0169760Y0261802D01*
X0169760Y0260301D01*
X0169010Y0259550D01*
X0167508Y0259550D01*
X0166758Y0260301D01*
X0166758Y0264054D02*
X0169760Y0264054D01*
X0171362Y0262553D02*
X0172863Y0264054D01*
X0172863Y0259550D01*
X0171362Y0259550D02*
X0174364Y0259550D01*
X0175966Y0259550D02*
X0175966Y0264054D01*
X0178968Y0259550D01*
X0178968Y0264054D01*
X0162905Y0264054D02*
X0162154Y0263303D01*
X0162154Y0260301D01*
X0160553Y0261802D02*
X0157550Y0261802D01*
X0159802Y0264054D01*
X0159802Y0259550D01*
X0145050Y0259724D02*
X0140546Y0259724D01*
X0142047Y0258223D01*
X0141297Y0256622D02*
X0140546Y0255871D01*
X0140546Y0254370D01*
X0141297Y0253619D01*
X0144299Y0253619D01*
X0145050Y0254370D01*
X0145050Y0255871D01*
X0144299Y0256622D01*
X0145050Y0258223D02*
X0145050Y0261226D01*
X0145050Y0252051D02*
X0145050Y0250550D01*
X0145050Y0251301D02*
X0140546Y0251301D01*
X0140546Y0252051D02*
X0140546Y0250550D01*
X0139155Y0242554D02*
X0139155Y0238050D01*
X0137654Y0238050D02*
X0140656Y0238050D01*
X0137654Y0241053D02*
X0139155Y0242554D01*
X0136053Y0241803D02*
X0135302Y0242554D01*
X0133801Y0242554D01*
X0133050Y0241803D01*
X0133050Y0238801D01*
X0133801Y0238050D01*
X0135302Y0238050D01*
X0136053Y0238801D01*
X0135302Y0225554D02*
X0133801Y0225554D01*
X0133050Y0224803D01*
X0135302Y0225554D02*
X0136053Y0224803D01*
X0136053Y0224053D01*
X0133050Y0221050D01*
X0136053Y0221050D01*
X0137654Y0221050D02*
X0140656Y0224053D01*
X0140656Y0224803D01*
X0139906Y0225554D01*
X0138405Y0225554D01*
X0137654Y0224803D01*
X0137654Y0221050D02*
X0140656Y0221050D01*
X0142258Y0221050D02*
X0144510Y0221050D01*
X0145260Y0221801D01*
X0145260Y0223302D01*
X0144510Y0224053D01*
X0142258Y0224053D01*
X0142258Y0219549D01*
X0139906Y0217554D02*
X0138405Y0217554D01*
X0137654Y0216803D01*
X0136053Y0216803D02*
X0135302Y0217554D01*
X0133801Y0217554D01*
X0133050Y0216803D01*
X0133050Y0213801D01*
X0133801Y0213050D01*
X0135302Y0213050D01*
X0136053Y0213801D01*
X0137654Y0213050D02*
X0140656Y0216053D01*
X0140656Y0216803D01*
X0139906Y0217554D01*
X0140656Y0213050D02*
X0137654Y0213050D01*
X0146862Y0221050D02*
X0146862Y0225554D01*
X0149864Y0225554D01*
X0148363Y0223302D02*
X0146862Y0223302D01*
X0146862Y0200554D02*
X0149864Y0200554D01*
X0148363Y0198302D02*
X0146862Y0198302D01*
X0145260Y0198302D02*
X0145260Y0196801D01*
X0144510Y0196050D01*
X0142258Y0196050D01*
X0142258Y0194549D02*
X0142258Y0199053D01*
X0144510Y0199053D01*
X0145260Y0198302D01*
X0146862Y0196050D02*
X0146862Y0200554D01*
X0140656Y0199803D02*
X0140656Y0199053D01*
X0137654Y0196050D01*
X0140656Y0196050D01*
X0140656Y0199803D02*
X0139906Y0200554D01*
X0138405Y0200554D01*
X0137654Y0199803D01*
X0136053Y0199803D02*
X0135302Y0200554D01*
X0133801Y0200554D01*
X0133050Y0199803D01*
X0136053Y0199803D02*
X0136053Y0199053D01*
X0133050Y0196050D01*
X0136053Y0196050D01*
X0151546Y0194302D02*
X0152297Y0195053D01*
X0155299Y0195053D01*
X0156050Y0194302D01*
X0156050Y0192801D01*
X0155299Y0192050D01*
X0152297Y0192050D01*
X0151546Y0192801D01*
X0151546Y0194302D01*
X0153047Y0196654D02*
X0151546Y0198155D01*
X0156050Y0198155D01*
X0156050Y0196654D02*
X0156050Y0199656D01*
X0156050Y0195053D02*
X0154549Y0193551D01*
X0177546Y0193551D02*
X0182050Y0193551D01*
X0182050Y0192050D02*
X0182050Y0195053D01*
X0181299Y0196654D02*
X0182050Y0197405D01*
X0182050Y0198906D01*
X0181299Y0199656D01*
X0180549Y0199656D01*
X0179798Y0198906D01*
X0179798Y0196654D01*
X0181299Y0196654D01*
X0179798Y0196654D02*
X0178297Y0198155D01*
X0177546Y0199656D01*
X0177546Y0201258D02*
X0179047Y0202759D01*
X0177546Y0204260D01*
X0182050Y0204260D01*
X0182050Y0205862D02*
X0177546Y0205862D01*
X0179798Y0205862D02*
X0179798Y0208864D01*
X0179047Y0210466D02*
X0179047Y0213468D01*
X0182050Y0210466D01*
X0182050Y0213468D01*
X0182050Y0208864D02*
X0177546Y0208864D01*
X0177546Y0201258D02*
X0182050Y0201258D01*
X0177546Y0193551D02*
X0179047Y0192050D01*
X0190476Y0183318D02*
X0191110Y0183952D01*
X0191744Y0183318D01*
X0191744Y0182050D01*
X0191744Y0183001D02*
X0190476Y0183001D01*
X0190476Y0183318D02*
X0190476Y0182050D01*
X0193320Y0182050D02*
X0193320Y0183952D01*
X0193953Y0183952D02*
X0192686Y0183952D01*
X0194896Y0183952D02*
X0195529Y0183318D01*
X0196163Y0183952D01*
X0196163Y0182050D01*
X0197105Y0182050D02*
X0198373Y0182050D01*
X0199315Y0182367D02*
X0199632Y0182050D01*
X0200266Y0182050D01*
X0200583Y0182367D01*
X0200583Y0183001D01*
X0199949Y0183001D01*
X0199315Y0183635D02*
X0199315Y0182367D01*
X0199315Y0183635D02*
X0199632Y0183952D01*
X0200266Y0183952D01*
X0200583Y0183635D01*
X0201525Y0183318D02*
X0202159Y0183952D01*
X0202793Y0183318D01*
X0202793Y0182050D01*
X0202793Y0183001D02*
X0201525Y0183001D01*
X0201525Y0183318D02*
X0201525Y0182050D01*
X0203735Y0182367D02*
X0204052Y0182050D01*
X0204686Y0182050D01*
X0205003Y0182367D01*
X0205003Y0182684D01*
X0204686Y0183001D01*
X0204369Y0183001D01*
X0204686Y0183001D02*
X0205003Y0183318D01*
X0205003Y0183635D01*
X0204686Y0183952D01*
X0204052Y0183952D01*
X0203735Y0183635D01*
X0205945Y0183635D02*
X0206262Y0183952D01*
X0206896Y0183952D01*
X0207213Y0183635D01*
X0207213Y0183318D01*
X0205945Y0182050D01*
X0207213Y0182050D01*
X0208155Y0182367D02*
X0208155Y0182684D01*
X0208472Y0183001D01*
X0209106Y0183001D01*
X0209423Y0182684D01*
X0209423Y0182367D01*
X0209106Y0182050D01*
X0208472Y0182050D01*
X0208155Y0182367D01*
X0208472Y0183001D02*
X0208155Y0183318D01*
X0208155Y0183635D01*
X0208472Y0183952D01*
X0209106Y0183952D01*
X0209423Y0183635D01*
X0209423Y0183318D01*
X0209106Y0183001D01*
X0210365Y0182684D02*
X0211316Y0182684D01*
X0211632Y0183001D01*
X0211632Y0183635D01*
X0211316Y0183952D01*
X0210365Y0183952D01*
X0210365Y0182050D01*
X0212575Y0181733D02*
X0213842Y0181733D01*
X0215418Y0182050D02*
X0215418Y0183952D01*
X0214785Y0183952D02*
X0216052Y0183952D01*
X0216994Y0183635D02*
X0217311Y0183952D01*
X0217945Y0183952D01*
X0218262Y0183635D01*
X0218262Y0182367D01*
X0217945Y0182050D01*
X0217311Y0182050D01*
X0216994Y0182367D01*
X0216994Y0183635D01*
X0217628Y0182684D02*
X0218262Y0182050D01*
X0219204Y0182050D02*
X0219204Y0183952D01*
X0220472Y0183952D01*
X0221414Y0183952D02*
X0222365Y0183952D01*
X0222682Y0183635D01*
X0222682Y0183001D01*
X0222365Y0182684D01*
X0221414Y0182684D01*
X0221414Y0182050D02*
X0221414Y0183952D01*
X0219838Y0183001D02*
X0219204Y0183001D01*
X0198373Y0183952D02*
X0197105Y0183952D01*
X0197105Y0182050D01*
X0197105Y0183001D02*
X0197739Y0183001D01*
X0194896Y0182050D02*
X0194896Y0183952D01*
X0232050Y0148554D02*
X0233551Y0148554D01*
X0232801Y0148554D02*
X0232801Y0144050D01*
X0233551Y0144050D02*
X0232050Y0144050D01*
X0235119Y0144801D02*
X0235119Y0147803D01*
X0235870Y0148554D01*
X0237371Y0148554D01*
X0238122Y0147803D01*
X0239723Y0147803D02*
X0240474Y0148554D01*
X0241975Y0148554D01*
X0242726Y0147803D01*
X0242726Y0147053D01*
X0241975Y0146302D01*
X0242726Y0145551D01*
X0242726Y0144801D01*
X0241975Y0144050D01*
X0240474Y0144050D01*
X0239723Y0144801D01*
X0238122Y0144801D02*
X0237371Y0144050D01*
X0235870Y0144050D01*
X0235119Y0144801D01*
X0241224Y0146302D02*
X0241975Y0146302D01*
X0242510Y0108554D02*
X0241008Y0108554D01*
X0240258Y0107803D01*
X0240258Y0104801D01*
X0241008Y0104050D01*
X0242510Y0104050D01*
X0243260Y0104801D01*
X0243260Y0106302D01*
X0241759Y0106302D01*
X0243260Y0107803D02*
X0242510Y0108554D01*
X0244862Y0107053D02*
X0246363Y0108554D01*
X0246363Y0104050D01*
X0244862Y0104050D02*
X0247864Y0104050D01*
X0249466Y0104050D02*
X0252468Y0104050D01*
X0250967Y0104050D02*
X0250967Y0108554D01*
X0249466Y0107053D01*
X0254070Y0107053D02*
X0255571Y0108554D01*
X0255571Y0104050D01*
X0254070Y0104050D02*
X0257072Y0104050D01*
X0258674Y0104050D02*
X0258674Y0104801D01*
X0261676Y0107803D01*
X0261676Y0108554D01*
X0258674Y0108554D01*
X0238656Y0108554D02*
X0235654Y0108554D01*
X0235654Y0104050D01*
X0238656Y0104050D01*
X0237155Y0106302D02*
X0235654Y0106302D01*
X0234053Y0106302D02*
X0233302Y0105551D01*
X0231050Y0105551D01*
X0231050Y0104050D02*
X0231050Y0108554D01*
X0233302Y0108554D01*
X0234053Y0107803D01*
X0234053Y0106302D01*
X0232551Y0105551D02*
X0234053Y0104050D01*
X0259840Y0072702D02*
X0260791Y0072702D01*
X0261108Y0072385D01*
X0261108Y0071117D01*
X0260791Y0070800D01*
X0259840Y0070800D01*
X0259840Y0072702D01*
X0262050Y0072068D02*
X0262684Y0072702D01*
X0262684Y0070800D01*
X0262050Y0070800D02*
X0263318Y0070800D01*
X0197491Y0034550D02*
X0194489Y0034550D01*
X0195990Y0034550D02*
X0195990Y0039054D01*
X0194489Y0037553D01*
X0178091Y0037553D02*
X0178091Y0038303D01*
X0177341Y0039054D01*
X0175839Y0039054D01*
X0175089Y0038303D01*
X0178091Y0037553D02*
X0175089Y0034550D01*
X0178091Y0034550D01*
X0164050Y0030374D02*
X0162549Y0031875D01*
X0159546Y0031875D01*
X0161798Y0033477D02*
X0161798Y0036479D01*
X0162549Y0038081D02*
X0164050Y0039582D01*
X0162549Y0041083D01*
X0159546Y0041083D01*
X0160297Y0042685D02*
X0163299Y0042685D01*
X0164050Y0043435D01*
X0164050Y0044937D01*
X0163299Y0045687D01*
X0163299Y0047289D02*
X0164050Y0048039D01*
X0164050Y0049540D01*
X0163299Y0050291D01*
X0160297Y0050291D02*
X0159546Y0049540D01*
X0159546Y0048039D01*
X0160297Y0047289D01*
X0163299Y0047289D01*
X0160297Y0045687D02*
X0159546Y0044937D01*
X0159546Y0043435D01*
X0160297Y0042685D01*
X0159546Y0038081D02*
X0162549Y0038081D01*
X0164050Y0030374D02*
X0162549Y0028873D01*
X0159546Y0028873D01*
X0159546Y0027271D02*
X0159546Y0024269D01*
X0161798Y0024269D01*
X0161047Y0025770D01*
X0161047Y0026521D01*
X0161798Y0027271D01*
X0163299Y0027271D01*
X0164050Y0026521D01*
X0164050Y0025020D01*
X0163299Y0024269D01*
X0132491Y0034550D02*
X0129489Y0034550D01*
X0130990Y0034550D02*
X0130990Y0039054D01*
X0129489Y0037553D01*
X0113091Y0037553D02*
X0113091Y0038303D01*
X0112341Y0039054D01*
X0110839Y0039054D01*
X0110089Y0038303D01*
X0113091Y0037553D02*
X0110089Y0034550D01*
X0113091Y0034550D01*
X0099050Y0033831D02*
X0098299Y0033081D01*
X0099050Y0033831D02*
X0099050Y0035333D01*
X0098299Y0036083D01*
X0097549Y0036083D01*
X0096798Y0035333D01*
X0096798Y0034582D01*
X0096798Y0035333D02*
X0096047Y0036083D01*
X0095297Y0036083D01*
X0094546Y0035333D01*
X0094546Y0033831D01*
X0095297Y0033081D01*
X0096798Y0031479D02*
X0096798Y0028477D01*
X0096047Y0026875D02*
X0096798Y0026125D01*
X0096798Y0024623D01*
X0096047Y0023873D01*
X0095297Y0023873D01*
X0094546Y0024623D01*
X0094546Y0026125D01*
X0095297Y0026875D01*
X0096047Y0026875D01*
X0096798Y0026125D02*
X0097549Y0026875D01*
X0098299Y0026875D01*
X0099050Y0026125D01*
X0099050Y0024623D01*
X0098299Y0023873D01*
X0097549Y0023873D01*
X0096798Y0024623D01*
X0096798Y0037685D02*
X0096798Y0039937D01*
X0097549Y0040687D01*
X0098299Y0040687D01*
X0099050Y0039937D01*
X0099050Y0038435D01*
X0098299Y0037685D01*
X0096798Y0037685D01*
X0095297Y0039186D01*
X0094546Y0040687D01*
X0094546Y0042289D02*
X0097549Y0042289D01*
X0099050Y0043790D01*
X0097549Y0045291D01*
X0094546Y0045291D01*
X0081800Y0054300D02*
X0079300Y0051800D01*
X0074300Y0051800D01*
X0071800Y0054300D01*
X0069300Y0051800D01*
X0064300Y0051800D01*
X0061800Y0054300D01*
X0059300Y0051800D01*
X0054300Y0051800D01*
X0051800Y0054300D01*
X0049300Y0051800D01*
X0044300Y0051800D01*
X0041800Y0054300D01*
X0041800Y0059300D01*
X0044300Y0061800D01*
X0049300Y0061800D01*
X0051800Y0059300D01*
X0054300Y0061800D01*
X0059300Y0061800D01*
X0061800Y0059300D01*
X0064300Y0061800D01*
X0069300Y0061800D01*
X0071800Y0059300D01*
X0074300Y0061800D01*
X0079300Y0061800D01*
X0081800Y0059300D01*
X0081800Y0054300D01*
X0081800Y0074300D02*
X0061800Y0074300D01*
X0061800Y0104300D01*
X0081800Y0104300D01*
X0081800Y0099300D01*
X0041800Y0099300D01*
X0041800Y0104300D01*
X0061800Y0104300D01*
X0070300Y0101800D02*
X0070302Y0101877D01*
X0070308Y0101954D01*
X0070318Y0102031D01*
X0070332Y0102107D01*
X0070349Y0102182D01*
X0070371Y0102256D01*
X0070396Y0102329D01*
X0070426Y0102401D01*
X0070458Y0102471D01*
X0070495Y0102539D01*
X0070534Y0102605D01*
X0070577Y0102669D01*
X0070624Y0102731D01*
X0070673Y0102790D01*
X0070726Y0102847D01*
X0070781Y0102901D01*
X0070839Y0102952D01*
X0070900Y0103000D01*
X0070963Y0103045D01*
X0071028Y0103086D01*
X0071095Y0103124D01*
X0071164Y0103159D01*
X0071235Y0103189D01*
X0071307Y0103217D01*
X0071381Y0103240D01*
X0071455Y0103260D01*
X0071531Y0103276D01*
X0071607Y0103288D01*
X0071684Y0103296D01*
X0071761Y0103300D01*
X0071839Y0103300D01*
X0071916Y0103296D01*
X0071993Y0103288D01*
X0072069Y0103276D01*
X0072145Y0103260D01*
X0072219Y0103240D01*
X0072293Y0103217D01*
X0072365Y0103189D01*
X0072436Y0103159D01*
X0072505Y0103124D01*
X0072572Y0103086D01*
X0072637Y0103045D01*
X0072700Y0103000D01*
X0072761Y0102952D01*
X0072819Y0102901D01*
X0072874Y0102847D01*
X0072927Y0102790D01*
X0072976Y0102731D01*
X0073023Y0102669D01*
X0073066Y0102605D01*
X0073105Y0102539D01*
X0073142Y0102471D01*
X0073174Y0102401D01*
X0073204Y0102329D01*
X0073229Y0102256D01*
X0073251Y0102182D01*
X0073268Y0102107D01*
X0073282Y0102031D01*
X0073292Y0101954D01*
X0073298Y0101877D01*
X0073300Y0101800D01*
X0073298Y0101723D01*
X0073292Y0101646D01*
X0073282Y0101569D01*
X0073268Y0101493D01*
X0073251Y0101418D01*
X0073229Y0101344D01*
X0073204Y0101271D01*
X0073174Y0101199D01*
X0073142Y0101129D01*
X0073105Y0101061D01*
X0073066Y0100995D01*
X0073023Y0100931D01*
X0072976Y0100869D01*
X0072927Y0100810D01*
X0072874Y0100753D01*
X0072819Y0100699D01*
X0072761Y0100648D01*
X0072700Y0100600D01*
X0072637Y0100555D01*
X0072572Y0100514D01*
X0072505Y0100476D01*
X0072436Y0100441D01*
X0072365Y0100411D01*
X0072293Y0100383D01*
X0072219Y0100360D01*
X0072145Y0100340D01*
X0072069Y0100324D01*
X0071993Y0100312D01*
X0071916Y0100304D01*
X0071839Y0100300D01*
X0071761Y0100300D01*
X0071684Y0100304D01*
X0071607Y0100312D01*
X0071531Y0100324D01*
X0071455Y0100340D01*
X0071381Y0100360D01*
X0071307Y0100383D01*
X0071235Y0100411D01*
X0071164Y0100441D01*
X0071095Y0100476D01*
X0071028Y0100514D01*
X0070963Y0100555D01*
X0070900Y0100600D01*
X0070839Y0100648D01*
X0070781Y0100699D01*
X0070726Y0100753D01*
X0070673Y0100810D01*
X0070624Y0100869D01*
X0070577Y0100931D01*
X0070534Y0100995D01*
X0070495Y0101061D01*
X0070458Y0101129D01*
X0070426Y0101199D01*
X0070396Y0101271D01*
X0070371Y0101344D01*
X0070349Y0101418D01*
X0070332Y0101493D01*
X0070318Y0101569D01*
X0070308Y0101646D01*
X0070302Y0101723D01*
X0070300Y0101800D01*
X0081800Y0099300D02*
X0081800Y0074300D01*
X0074300Y0084300D02*
X0069300Y0089300D01*
X0066800Y0086800D02*
X0066802Y0086941D01*
X0066808Y0087082D01*
X0066818Y0087222D01*
X0066832Y0087362D01*
X0066850Y0087502D01*
X0066871Y0087641D01*
X0066897Y0087780D01*
X0066926Y0087918D01*
X0066960Y0088054D01*
X0066997Y0088190D01*
X0067038Y0088325D01*
X0067083Y0088459D01*
X0067132Y0088591D01*
X0067184Y0088722D01*
X0067240Y0088851D01*
X0067300Y0088978D01*
X0067363Y0089104D01*
X0067429Y0089228D01*
X0067500Y0089351D01*
X0067573Y0089471D01*
X0067650Y0089589D01*
X0067730Y0089705D01*
X0067814Y0089818D01*
X0067900Y0089929D01*
X0067990Y0090038D01*
X0068083Y0090144D01*
X0068178Y0090247D01*
X0068277Y0090348D01*
X0068378Y0090446D01*
X0068482Y0090541D01*
X0068589Y0090633D01*
X0068698Y0090722D01*
X0068810Y0090807D01*
X0068924Y0090890D01*
X0069040Y0090970D01*
X0069159Y0091046D01*
X0069280Y0091118D01*
X0069402Y0091188D01*
X0069527Y0091253D01*
X0069653Y0091316D01*
X0069781Y0091374D01*
X0069911Y0091429D01*
X0070042Y0091481D01*
X0070175Y0091528D01*
X0070309Y0091572D01*
X0070444Y0091613D01*
X0070580Y0091649D01*
X0070717Y0091681D01*
X0070855Y0091710D01*
X0070993Y0091735D01*
X0071133Y0091755D01*
X0071273Y0091772D01*
X0071413Y0091785D01*
X0071554Y0091794D01*
X0071694Y0091799D01*
X0071835Y0091800D01*
X0071976Y0091797D01*
X0072117Y0091790D01*
X0072257Y0091779D01*
X0072397Y0091764D01*
X0072537Y0091745D01*
X0072676Y0091723D01*
X0072814Y0091696D01*
X0072952Y0091666D01*
X0073088Y0091631D01*
X0073224Y0091593D01*
X0073358Y0091551D01*
X0073492Y0091505D01*
X0073624Y0091456D01*
X0073754Y0091402D01*
X0073883Y0091345D01*
X0074010Y0091285D01*
X0074136Y0091221D01*
X0074259Y0091153D01*
X0074381Y0091082D01*
X0074501Y0091008D01*
X0074618Y0090930D01*
X0074733Y0090849D01*
X0074846Y0090765D01*
X0074957Y0090678D01*
X0075065Y0090587D01*
X0075170Y0090494D01*
X0075273Y0090397D01*
X0075373Y0090298D01*
X0075470Y0090196D01*
X0075564Y0090091D01*
X0075655Y0089984D01*
X0075743Y0089874D01*
X0075828Y0089762D01*
X0075910Y0089647D01*
X0075989Y0089530D01*
X0076064Y0089411D01*
X0076136Y0089290D01*
X0076204Y0089167D01*
X0076269Y0089042D01*
X0076331Y0088915D01*
X0076388Y0088786D01*
X0076443Y0088656D01*
X0076493Y0088525D01*
X0076540Y0088392D01*
X0076583Y0088258D01*
X0076622Y0088122D01*
X0076657Y0087986D01*
X0076689Y0087849D01*
X0076716Y0087711D01*
X0076740Y0087572D01*
X0076760Y0087432D01*
X0076776Y0087292D01*
X0076788Y0087152D01*
X0076796Y0087011D01*
X0076800Y0086870D01*
X0076800Y0086730D01*
X0076796Y0086589D01*
X0076788Y0086448D01*
X0076776Y0086308D01*
X0076760Y0086168D01*
X0076740Y0086028D01*
X0076716Y0085889D01*
X0076689Y0085751D01*
X0076657Y0085614D01*
X0076622Y0085478D01*
X0076583Y0085342D01*
X0076540Y0085208D01*
X0076493Y0085075D01*
X0076443Y0084944D01*
X0076388Y0084814D01*
X0076331Y0084685D01*
X0076269Y0084558D01*
X0076204Y0084433D01*
X0076136Y0084310D01*
X0076064Y0084189D01*
X0075989Y0084070D01*
X0075910Y0083953D01*
X0075828Y0083838D01*
X0075743Y0083726D01*
X0075655Y0083616D01*
X0075564Y0083509D01*
X0075470Y0083404D01*
X0075373Y0083302D01*
X0075273Y0083203D01*
X0075170Y0083106D01*
X0075065Y0083013D01*
X0074957Y0082922D01*
X0074846Y0082835D01*
X0074733Y0082751D01*
X0074618Y0082670D01*
X0074501Y0082592D01*
X0074381Y0082518D01*
X0074259Y0082447D01*
X0074136Y0082379D01*
X0074010Y0082315D01*
X0073883Y0082255D01*
X0073754Y0082198D01*
X0073624Y0082144D01*
X0073492Y0082095D01*
X0073358Y0082049D01*
X0073224Y0082007D01*
X0073088Y0081969D01*
X0072952Y0081934D01*
X0072814Y0081904D01*
X0072676Y0081877D01*
X0072537Y0081855D01*
X0072397Y0081836D01*
X0072257Y0081821D01*
X0072117Y0081810D01*
X0071976Y0081803D01*
X0071835Y0081800D01*
X0071694Y0081801D01*
X0071554Y0081806D01*
X0071413Y0081815D01*
X0071273Y0081828D01*
X0071133Y0081845D01*
X0070993Y0081865D01*
X0070855Y0081890D01*
X0070717Y0081919D01*
X0070580Y0081951D01*
X0070444Y0081987D01*
X0070309Y0082028D01*
X0070175Y0082072D01*
X0070042Y0082119D01*
X0069911Y0082171D01*
X0069781Y0082226D01*
X0069653Y0082284D01*
X0069527Y0082347D01*
X0069402Y0082412D01*
X0069280Y0082482D01*
X0069159Y0082554D01*
X0069040Y0082630D01*
X0068924Y0082710D01*
X0068810Y0082793D01*
X0068698Y0082878D01*
X0068589Y0082967D01*
X0068482Y0083059D01*
X0068378Y0083154D01*
X0068277Y0083252D01*
X0068178Y0083353D01*
X0068083Y0083456D01*
X0067990Y0083562D01*
X0067900Y0083671D01*
X0067814Y0083782D01*
X0067730Y0083895D01*
X0067650Y0084011D01*
X0067573Y0084129D01*
X0067500Y0084249D01*
X0067429Y0084372D01*
X0067363Y0084496D01*
X0067300Y0084622D01*
X0067240Y0084749D01*
X0067184Y0084878D01*
X0067132Y0085009D01*
X0067083Y0085141D01*
X0067038Y0085275D01*
X0066997Y0085410D01*
X0066960Y0085546D01*
X0066926Y0085682D01*
X0066897Y0085820D01*
X0066871Y0085959D01*
X0066850Y0086098D01*
X0066832Y0086238D01*
X0066818Y0086378D01*
X0066808Y0086518D01*
X0066802Y0086659D01*
X0066800Y0086800D01*
X0054300Y0084300D02*
X0049300Y0089300D01*
X0046800Y0086800D02*
X0046802Y0086941D01*
X0046808Y0087082D01*
X0046818Y0087222D01*
X0046832Y0087362D01*
X0046850Y0087502D01*
X0046871Y0087641D01*
X0046897Y0087780D01*
X0046926Y0087918D01*
X0046960Y0088054D01*
X0046997Y0088190D01*
X0047038Y0088325D01*
X0047083Y0088459D01*
X0047132Y0088591D01*
X0047184Y0088722D01*
X0047240Y0088851D01*
X0047300Y0088978D01*
X0047363Y0089104D01*
X0047429Y0089228D01*
X0047500Y0089351D01*
X0047573Y0089471D01*
X0047650Y0089589D01*
X0047730Y0089705D01*
X0047814Y0089818D01*
X0047900Y0089929D01*
X0047990Y0090038D01*
X0048083Y0090144D01*
X0048178Y0090247D01*
X0048277Y0090348D01*
X0048378Y0090446D01*
X0048482Y0090541D01*
X0048589Y0090633D01*
X0048698Y0090722D01*
X0048810Y0090807D01*
X0048924Y0090890D01*
X0049040Y0090970D01*
X0049159Y0091046D01*
X0049280Y0091118D01*
X0049402Y0091188D01*
X0049527Y0091253D01*
X0049653Y0091316D01*
X0049781Y0091374D01*
X0049911Y0091429D01*
X0050042Y0091481D01*
X0050175Y0091528D01*
X0050309Y0091572D01*
X0050444Y0091613D01*
X0050580Y0091649D01*
X0050717Y0091681D01*
X0050855Y0091710D01*
X0050993Y0091735D01*
X0051133Y0091755D01*
X0051273Y0091772D01*
X0051413Y0091785D01*
X0051554Y0091794D01*
X0051694Y0091799D01*
X0051835Y0091800D01*
X0051976Y0091797D01*
X0052117Y0091790D01*
X0052257Y0091779D01*
X0052397Y0091764D01*
X0052537Y0091745D01*
X0052676Y0091723D01*
X0052814Y0091696D01*
X0052952Y0091666D01*
X0053088Y0091631D01*
X0053224Y0091593D01*
X0053358Y0091551D01*
X0053492Y0091505D01*
X0053624Y0091456D01*
X0053754Y0091402D01*
X0053883Y0091345D01*
X0054010Y0091285D01*
X0054136Y0091221D01*
X0054259Y0091153D01*
X0054381Y0091082D01*
X0054501Y0091008D01*
X0054618Y0090930D01*
X0054733Y0090849D01*
X0054846Y0090765D01*
X0054957Y0090678D01*
X0055065Y0090587D01*
X0055170Y0090494D01*
X0055273Y0090397D01*
X0055373Y0090298D01*
X0055470Y0090196D01*
X0055564Y0090091D01*
X0055655Y0089984D01*
X0055743Y0089874D01*
X0055828Y0089762D01*
X0055910Y0089647D01*
X0055989Y0089530D01*
X0056064Y0089411D01*
X0056136Y0089290D01*
X0056204Y0089167D01*
X0056269Y0089042D01*
X0056331Y0088915D01*
X0056388Y0088786D01*
X0056443Y0088656D01*
X0056493Y0088525D01*
X0056540Y0088392D01*
X0056583Y0088258D01*
X0056622Y0088122D01*
X0056657Y0087986D01*
X0056689Y0087849D01*
X0056716Y0087711D01*
X0056740Y0087572D01*
X0056760Y0087432D01*
X0056776Y0087292D01*
X0056788Y0087152D01*
X0056796Y0087011D01*
X0056800Y0086870D01*
X0056800Y0086730D01*
X0056796Y0086589D01*
X0056788Y0086448D01*
X0056776Y0086308D01*
X0056760Y0086168D01*
X0056740Y0086028D01*
X0056716Y0085889D01*
X0056689Y0085751D01*
X0056657Y0085614D01*
X0056622Y0085478D01*
X0056583Y0085342D01*
X0056540Y0085208D01*
X0056493Y0085075D01*
X0056443Y0084944D01*
X0056388Y0084814D01*
X0056331Y0084685D01*
X0056269Y0084558D01*
X0056204Y0084433D01*
X0056136Y0084310D01*
X0056064Y0084189D01*
X0055989Y0084070D01*
X0055910Y0083953D01*
X0055828Y0083838D01*
X0055743Y0083726D01*
X0055655Y0083616D01*
X0055564Y0083509D01*
X0055470Y0083404D01*
X0055373Y0083302D01*
X0055273Y0083203D01*
X0055170Y0083106D01*
X0055065Y0083013D01*
X0054957Y0082922D01*
X0054846Y0082835D01*
X0054733Y0082751D01*
X0054618Y0082670D01*
X0054501Y0082592D01*
X0054381Y0082518D01*
X0054259Y0082447D01*
X0054136Y0082379D01*
X0054010Y0082315D01*
X0053883Y0082255D01*
X0053754Y0082198D01*
X0053624Y0082144D01*
X0053492Y0082095D01*
X0053358Y0082049D01*
X0053224Y0082007D01*
X0053088Y0081969D01*
X0052952Y0081934D01*
X0052814Y0081904D01*
X0052676Y0081877D01*
X0052537Y0081855D01*
X0052397Y0081836D01*
X0052257Y0081821D01*
X0052117Y0081810D01*
X0051976Y0081803D01*
X0051835Y0081800D01*
X0051694Y0081801D01*
X0051554Y0081806D01*
X0051413Y0081815D01*
X0051273Y0081828D01*
X0051133Y0081845D01*
X0050993Y0081865D01*
X0050855Y0081890D01*
X0050717Y0081919D01*
X0050580Y0081951D01*
X0050444Y0081987D01*
X0050309Y0082028D01*
X0050175Y0082072D01*
X0050042Y0082119D01*
X0049911Y0082171D01*
X0049781Y0082226D01*
X0049653Y0082284D01*
X0049527Y0082347D01*
X0049402Y0082412D01*
X0049280Y0082482D01*
X0049159Y0082554D01*
X0049040Y0082630D01*
X0048924Y0082710D01*
X0048810Y0082793D01*
X0048698Y0082878D01*
X0048589Y0082967D01*
X0048482Y0083059D01*
X0048378Y0083154D01*
X0048277Y0083252D01*
X0048178Y0083353D01*
X0048083Y0083456D01*
X0047990Y0083562D01*
X0047900Y0083671D01*
X0047814Y0083782D01*
X0047730Y0083895D01*
X0047650Y0084011D01*
X0047573Y0084129D01*
X0047500Y0084249D01*
X0047429Y0084372D01*
X0047363Y0084496D01*
X0047300Y0084622D01*
X0047240Y0084749D01*
X0047184Y0084878D01*
X0047132Y0085009D01*
X0047083Y0085141D01*
X0047038Y0085275D01*
X0046997Y0085410D01*
X0046960Y0085546D01*
X0046926Y0085682D01*
X0046897Y0085820D01*
X0046871Y0085959D01*
X0046850Y0086098D01*
X0046832Y0086238D01*
X0046818Y0086378D01*
X0046808Y0086518D01*
X0046802Y0086659D01*
X0046800Y0086800D01*
X0041800Y0074300D02*
X0061800Y0074300D01*
X0041800Y0074300D02*
X0041800Y0099300D01*
X0050300Y0101800D02*
X0050302Y0101877D01*
X0050308Y0101954D01*
X0050318Y0102031D01*
X0050332Y0102107D01*
X0050349Y0102182D01*
X0050371Y0102256D01*
X0050396Y0102329D01*
X0050426Y0102401D01*
X0050458Y0102471D01*
X0050495Y0102539D01*
X0050534Y0102605D01*
X0050577Y0102669D01*
X0050624Y0102731D01*
X0050673Y0102790D01*
X0050726Y0102847D01*
X0050781Y0102901D01*
X0050839Y0102952D01*
X0050900Y0103000D01*
X0050963Y0103045D01*
X0051028Y0103086D01*
X0051095Y0103124D01*
X0051164Y0103159D01*
X0051235Y0103189D01*
X0051307Y0103217D01*
X0051381Y0103240D01*
X0051455Y0103260D01*
X0051531Y0103276D01*
X0051607Y0103288D01*
X0051684Y0103296D01*
X0051761Y0103300D01*
X0051839Y0103300D01*
X0051916Y0103296D01*
X0051993Y0103288D01*
X0052069Y0103276D01*
X0052145Y0103260D01*
X0052219Y0103240D01*
X0052293Y0103217D01*
X0052365Y0103189D01*
X0052436Y0103159D01*
X0052505Y0103124D01*
X0052572Y0103086D01*
X0052637Y0103045D01*
X0052700Y0103000D01*
X0052761Y0102952D01*
X0052819Y0102901D01*
X0052874Y0102847D01*
X0052927Y0102790D01*
X0052976Y0102731D01*
X0053023Y0102669D01*
X0053066Y0102605D01*
X0053105Y0102539D01*
X0053142Y0102471D01*
X0053174Y0102401D01*
X0053204Y0102329D01*
X0053229Y0102256D01*
X0053251Y0102182D01*
X0053268Y0102107D01*
X0053282Y0102031D01*
X0053292Y0101954D01*
X0053298Y0101877D01*
X0053300Y0101800D01*
X0053298Y0101723D01*
X0053292Y0101646D01*
X0053282Y0101569D01*
X0053268Y0101493D01*
X0053251Y0101418D01*
X0053229Y0101344D01*
X0053204Y0101271D01*
X0053174Y0101199D01*
X0053142Y0101129D01*
X0053105Y0101061D01*
X0053066Y0100995D01*
X0053023Y0100931D01*
X0052976Y0100869D01*
X0052927Y0100810D01*
X0052874Y0100753D01*
X0052819Y0100699D01*
X0052761Y0100648D01*
X0052700Y0100600D01*
X0052637Y0100555D01*
X0052572Y0100514D01*
X0052505Y0100476D01*
X0052436Y0100441D01*
X0052365Y0100411D01*
X0052293Y0100383D01*
X0052219Y0100360D01*
X0052145Y0100340D01*
X0052069Y0100324D01*
X0051993Y0100312D01*
X0051916Y0100304D01*
X0051839Y0100300D01*
X0051761Y0100300D01*
X0051684Y0100304D01*
X0051607Y0100312D01*
X0051531Y0100324D01*
X0051455Y0100340D01*
X0051381Y0100360D01*
X0051307Y0100383D01*
X0051235Y0100411D01*
X0051164Y0100441D01*
X0051095Y0100476D01*
X0051028Y0100514D01*
X0050963Y0100555D01*
X0050900Y0100600D01*
X0050839Y0100648D01*
X0050781Y0100699D01*
X0050726Y0100753D01*
X0050673Y0100810D01*
X0050624Y0100869D01*
X0050577Y0100931D01*
X0050534Y0100995D01*
X0050495Y0101061D01*
X0050458Y0101129D01*
X0050426Y0101199D01*
X0050396Y0101271D01*
X0050371Y0101344D01*
X0050349Y0101418D01*
X0050332Y0101493D01*
X0050318Y0101569D01*
X0050308Y0101646D01*
X0050302Y0101723D01*
X0050300Y0101800D01*
X0204840Y0229867D02*
X0205157Y0229550D01*
X0205791Y0229550D01*
X0206108Y0229867D01*
X0206108Y0231452D01*
X0207050Y0230818D02*
X0207684Y0231452D01*
X0207684Y0229550D01*
X0207050Y0229550D02*
X0208318Y0229550D01*
X0204840Y0229867D02*
X0204840Y0231452D01*
X0265530Y0253550D02*
X0265530Y0258054D01*
X0267782Y0258054D01*
X0268533Y0257303D01*
X0268533Y0255802D01*
X0267782Y0255051D01*
X0265530Y0255051D01*
X0270134Y0254301D02*
X0270885Y0253550D01*
X0272386Y0253550D01*
X0273137Y0254301D01*
X0274738Y0254301D02*
X0274738Y0255051D01*
X0275489Y0255802D01*
X0276990Y0255802D01*
X0277741Y0255051D01*
X0277741Y0254301D01*
X0276990Y0253550D01*
X0275489Y0253550D01*
X0274738Y0254301D01*
X0275489Y0255802D02*
X0274738Y0256553D01*
X0274738Y0257303D01*
X0275489Y0258054D01*
X0276990Y0258054D01*
X0277741Y0257303D01*
X0277741Y0256553D01*
X0276990Y0255802D01*
X0279342Y0256553D02*
X0280843Y0258054D01*
X0280843Y0253550D01*
X0279342Y0253550D02*
X0282345Y0253550D01*
X0283946Y0253550D02*
X0283946Y0254301D01*
X0286949Y0257303D01*
X0286949Y0258054D01*
X0283946Y0258054D01*
X0293738Y0259303D02*
X0293738Y0256301D01*
X0294489Y0255550D01*
X0295990Y0255550D01*
X0296741Y0256301D01*
X0296741Y0259303D01*
X0295990Y0260054D01*
X0294489Y0260054D01*
X0293738Y0259303D01*
X0298342Y0260054D02*
X0298342Y0255550D01*
X0298342Y0257051D02*
X0301345Y0260054D01*
X0302946Y0259303D02*
X0303697Y0260054D01*
X0305198Y0260054D01*
X0305949Y0259303D01*
X0305949Y0258553D01*
X0302946Y0255550D01*
X0305949Y0255550D01*
X0301345Y0255550D02*
X0299093Y0257802D01*
X0273137Y0257303D02*
X0272386Y0258054D01*
X0270885Y0258054D01*
X0270134Y0257303D01*
X0270134Y0254301D01*
X0259063Y0299550D02*
X0259814Y0300301D01*
X0259814Y0301051D01*
X0259063Y0301802D01*
X0256811Y0301802D01*
X0256811Y0300301D01*
X0257562Y0299550D01*
X0259063Y0299550D01*
X0256811Y0301802D02*
X0258313Y0303303D01*
X0259814Y0304054D01*
X0255210Y0304054D02*
X0252207Y0299550D01*
X0255210Y0299550D02*
X0252207Y0304054D01*
X0214814Y0304054D02*
X0211811Y0304054D01*
X0211811Y0301802D01*
X0213313Y0302553D01*
X0214063Y0302553D01*
X0214814Y0301802D01*
X0214814Y0300301D01*
X0214063Y0299550D01*
X0212562Y0299550D01*
X0211811Y0300301D01*
X0210210Y0299550D02*
X0207207Y0304054D01*
X0210210Y0304054D02*
X0207207Y0299550D01*
X0215007Y0354550D02*
X0218010Y0354550D01*
X0216509Y0354550D02*
X0216509Y0359054D01*
X0215007Y0357553D01*
X0234407Y0358303D02*
X0235158Y0359054D01*
X0236659Y0359054D01*
X0237410Y0358303D01*
X0237410Y0357553D01*
X0234407Y0354550D01*
X0237410Y0354550D01*
X0260007Y0354550D02*
X0263010Y0354550D01*
X0261509Y0354550D02*
X0261509Y0359054D01*
X0260007Y0357553D01*
X0279407Y0358303D02*
X0280158Y0359054D01*
X0281659Y0359054D01*
X0282410Y0358303D01*
X0282410Y0357553D01*
X0279407Y0354550D01*
X0282410Y0354550D01*
X0305007Y0354550D02*
X0308010Y0354550D01*
X0306509Y0354550D02*
X0306509Y0359054D01*
X0305007Y0357553D01*
X0324407Y0358303D02*
X0325158Y0359054D01*
X0326659Y0359054D01*
X0327410Y0358303D01*
X0327410Y0357553D01*
X0324407Y0354550D01*
X0327410Y0354550D01*
X0350007Y0354550D02*
X0353010Y0354550D01*
X0351509Y0354550D02*
X0351509Y0359054D01*
X0350007Y0357553D01*
X0369407Y0358303D02*
X0370158Y0359054D01*
X0371659Y0359054D01*
X0372410Y0358303D01*
X0372410Y0357553D01*
X0369407Y0354550D01*
X0372410Y0354550D01*
X0349063Y0304054D02*
X0349814Y0303303D01*
X0349814Y0302553D01*
X0349063Y0301802D01*
X0347562Y0301802D01*
X0346811Y0302553D01*
X0346811Y0303303D01*
X0347562Y0304054D01*
X0349063Y0304054D01*
X0349063Y0301802D02*
X0349814Y0301051D01*
X0349814Y0300301D01*
X0349063Y0299550D01*
X0347562Y0299550D01*
X0346811Y0300301D01*
X0346811Y0301051D01*
X0347562Y0301802D01*
X0345210Y0304054D02*
X0342207Y0299550D01*
X0345210Y0299550D02*
X0342207Y0304054D01*
X0341415Y0284054D02*
X0341415Y0279550D01*
X0344418Y0279550D01*
X0346019Y0280301D02*
X0346770Y0279550D01*
X0348271Y0279550D01*
X0349022Y0280301D01*
X0349022Y0281051D01*
X0348271Y0281802D01*
X0346770Y0281802D01*
X0346019Y0282553D01*
X0346019Y0283303D01*
X0346770Y0284054D01*
X0348271Y0284054D01*
X0349022Y0283303D01*
X0350623Y0284054D02*
X0350623Y0279550D01*
X0353626Y0279550D01*
X0355227Y0279550D02*
X0358230Y0282553D01*
X0358230Y0283303D01*
X0357479Y0284054D01*
X0355978Y0284054D01*
X0355227Y0283303D01*
X0353626Y0284054D02*
X0350623Y0284054D01*
X0350623Y0281802D02*
X0352124Y0281802D01*
X0355227Y0279550D02*
X0358230Y0279550D01*
X0339814Y0280301D02*
X0339814Y0284054D01*
X0336811Y0284054D02*
X0336811Y0280301D01*
X0337562Y0279550D01*
X0339063Y0279550D01*
X0339814Y0280301D01*
X0335210Y0281802D02*
X0334459Y0281051D01*
X0332207Y0281051D01*
X0332207Y0279550D02*
X0332207Y0284054D01*
X0334459Y0284054D01*
X0335210Y0283303D01*
X0335210Y0281802D01*
X0304814Y0303303D02*
X0301811Y0300301D01*
X0301811Y0299550D01*
X0300210Y0299550D02*
X0297207Y0304054D01*
X0300210Y0304054D02*
X0297207Y0299550D01*
X0301811Y0304054D02*
X0304814Y0304054D01*
X0304814Y0303303D01*
X0374546Y0260990D02*
X0379050Y0260990D01*
X0379050Y0259489D02*
X0379050Y0262491D01*
X0376047Y0259489D02*
X0374546Y0260990D01*
X0375297Y0243091D02*
X0374546Y0242341D01*
X0374546Y0240839D01*
X0375297Y0240089D01*
X0375297Y0243091D02*
X0376047Y0243091D01*
X0379050Y0240089D01*
X0379050Y0243091D01*
X0380048Y0199423D02*
X0380048Y0198155D01*
X0380048Y0198789D02*
X0381950Y0198789D01*
X0381633Y0197213D02*
X0381950Y0196896D01*
X0381950Y0196262D01*
X0381633Y0195945D01*
X0380999Y0196262D02*
X0380999Y0196896D01*
X0381316Y0197213D01*
X0381633Y0197213D01*
X0380999Y0196262D02*
X0380682Y0195945D01*
X0380365Y0195945D01*
X0380048Y0196262D01*
X0380048Y0196896D01*
X0380365Y0197213D01*
X0380365Y0195003D02*
X0380999Y0195003D01*
X0381316Y0194686D01*
X0381316Y0193735D01*
X0381950Y0193735D02*
X0380048Y0193735D01*
X0380048Y0194686D01*
X0380365Y0195003D01*
X0381316Y0194369D02*
X0381950Y0195003D01*
X0192410Y0354550D02*
X0189407Y0354550D01*
X0192410Y0357553D01*
X0192410Y0358303D01*
X0191659Y0359054D01*
X0190158Y0359054D01*
X0189407Y0358303D01*
X0173010Y0354550D02*
X0170007Y0354550D01*
X0171509Y0354550D02*
X0171509Y0359054D01*
X0170007Y0357553D01*
X0147410Y0357553D02*
X0147410Y0358303D01*
X0146659Y0359054D01*
X0145158Y0359054D01*
X0144407Y0358303D01*
X0147410Y0357553D02*
X0144407Y0354550D01*
X0147410Y0354550D01*
X0128010Y0354550D02*
X0125007Y0354550D01*
X0126509Y0354550D02*
X0126509Y0359054D01*
X0125007Y0357553D01*
X0102410Y0357553D02*
X0102410Y0358303D01*
X0101659Y0359054D01*
X0100158Y0359054D01*
X0099407Y0358303D01*
X0102410Y0357553D02*
X0099407Y0354550D01*
X0102410Y0354550D01*
X0083010Y0354550D02*
X0080007Y0354550D01*
X0081509Y0354550D02*
X0081509Y0359054D01*
X0080007Y0357553D01*
X0057410Y0357553D02*
X0057410Y0358303D01*
X0056659Y0359054D01*
X0055158Y0359054D01*
X0054407Y0358303D01*
X0057410Y0357553D02*
X0054407Y0354550D01*
X0057410Y0354550D01*
X0038010Y0354550D02*
X0035007Y0354550D01*
X0036509Y0354550D02*
X0036509Y0359054D01*
X0035007Y0357553D01*
X0080530Y0258054D02*
X0082782Y0258054D01*
X0083533Y0257303D01*
X0083533Y0255802D01*
X0082782Y0255051D01*
X0080530Y0255051D01*
X0080530Y0253550D02*
X0080530Y0258054D01*
X0085134Y0257303D02*
X0085134Y0254301D01*
X0085885Y0253550D01*
X0087386Y0253550D01*
X0088137Y0254301D01*
X0089738Y0254301D02*
X0089738Y0255051D01*
X0090489Y0255802D01*
X0091990Y0255802D01*
X0092741Y0255051D01*
X0092741Y0254301D01*
X0091990Y0253550D01*
X0090489Y0253550D01*
X0089738Y0254301D01*
X0090489Y0255802D02*
X0089738Y0256553D01*
X0089738Y0257303D01*
X0090489Y0258054D01*
X0091990Y0258054D01*
X0092741Y0257303D01*
X0092741Y0256553D01*
X0091990Y0255802D01*
X0094342Y0256553D02*
X0095843Y0258054D01*
X0095843Y0253550D01*
X0094342Y0253550D02*
X0097345Y0253550D01*
X0098946Y0253550D02*
X0098946Y0254301D01*
X0101949Y0257303D01*
X0101949Y0258054D01*
X0098946Y0258054D01*
X0108738Y0259303D02*
X0108738Y0256301D01*
X0109489Y0255550D01*
X0110990Y0255550D01*
X0111741Y0256301D01*
X0111741Y0259303D01*
X0110990Y0260054D01*
X0109489Y0260054D01*
X0108738Y0259303D01*
X0113342Y0260054D02*
X0113342Y0255550D01*
X0113342Y0257051D02*
X0116345Y0260054D01*
X0117946Y0258553D02*
X0119447Y0260054D01*
X0119447Y0255550D01*
X0117946Y0255550D02*
X0120949Y0255550D01*
X0116345Y0255550D02*
X0114093Y0257802D01*
X0088137Y0257303D02*
X0087386Y0258054D01*
X0085885Y0258054D01*
X0085134Y0257303D01*
D15*
X0140800Y0234800D02*
X0140800Y0231800D01*
X0140800Y0228800D01*
X0142800Y0228800D02*
X0142800Y0231800D01*
X0142800Y0234800D01*
X0142800Y0209800D02*
X0142800Y0206800D01*
X0142800Y0203800D01*
X0140800Y0203800D02*
X0140800Y0206800D01*
X0140800Y0209800D01*
X0162469Y0146081D02*
X0221131Y0146081D01*
X0221131Y0123444D01*
X0162469Y0123444D01*
X0162469Y0146081D01*
X0171721Y0145855D02*
X0171721Y0143887D01*
X0211879Y0143887D02*
X0211879Y0145855D01*
X0258444Y0156052D02*
X0258444Y0087548D01*
X0281081Y0087548D01*
X0281081Y0156052D01*
X0258444Y0156052D01*
X0258444Y0162548D02*
X0281081Y0162548D01*
X0281081Y0231052D01*
X0258444Y0231052D01*
X0258444Y0162548D01*
X0278887Y0171997D02*
X0280855Y0171997D01*
X0292233Y0167519D02*
X0321367Y0167519D01*
X0321367Y0190156D01*
X0292233Y0190156D01*
X0292233Y0167519D01*
X0298444Y0161209D02*
X0298444Y0112391D01*
X0321081Y0112391D01*
X0321081Y0161209D01*
X0298444Y0161209D01*
X0318887Y0152154D02*
X0320855Y0152154D01*
X0328444Y0132706D02*
X0351081Y0132706D01*
X0351081Y0220894D01*
X0328444Y0220894D01*
X0328444Y0132706D01*
X0320855Y0121839D02*
X0318887Y0121839D01*
X0348887Y0141761D02*
X0350855Y0141761D01*
X0358444Y0127391D02*
X0381081Y0127391D01*
X0381081Y0176209D01*
X0358444Y0176209D01*
X0358444Y0127391D01*
X0378887Y0136839D02*
X0380855Y0136839D01*
X0380855Y0167154D02*
X0378887Y0167154D01*
X0350855Y0212233D02*
X0348887Y0212233D01*
X0321367Y0221081D02*
X0321367Y0198444D01*
X0292233Y0198444D01*
X0292233Y0221081D01*
X0321367Y0221081D01*
X0280855Y0221997D02*
X0278887Y0221997D01*
X0278887Y0146997D02*
X0280855Y0146997D01*
X0280855Y0096997D02*
X0278887Y0096997D01*
D16*
X0283434Y0111920D02*
X0283434Y0114322D01*
X0283434Y0115603D02*
X0283434Y0118006D01*
X0283434Y0116804D02*
X0287037Y0116804D01*
X0287037Y0119287D02*
X0283434Y0119287D01*
X0283434Y0121088D01*
X0284034Y0121689D01*
X0286437Y0121689D01*
X0287037Y0121088D01*
X0287037Y0119287D01*
X0287037Y0122970D02*
X0287037Y0124171D01*
X0287037Y0123570D02*
X0283434Y0123570D01*
X0283434Y0122970D02*
X0283434Y0124171D01*
X0285235Y0113121D02*
X0285235Y0111920D01*
X0283434Y0111920D02*
X0287037Y0111920D01*
X0323198Y0120477D02*
X0323198Y0122279D01*
X0323798Y0122879D01*
X0326200Y0122879D01*
X0326801Y0122279D01*
X0326801Y0120477D01*
X0323198Y0120477D01*
X0323198Y0124160D02*
X0323198Y0125361D01*
X0323198Y0124761D02*
X0326801Y0124761D01*
X0326801Y0125361D02*
X0326801Y0124160D01*
X0326200Y0126616D02*
X0326801Y0127216D01*
X0326801Y0128417D01*
X0326200Y0129018D01*
X0325600Y0129018D01*
X0324999Y0128417D01*
X0324999Y0127216D01*
X0324399Y0126616D01*
X0323798Y0126616D01*
X0323198Y0127216D01*
X0323198Y0128417D01*
X0323798Y0129018D01*
X0323198Y0130299D02*
X0323198Y0132100D01*
X0323798Y0132701D01*
X0324999Y0132701D01*
X0325600Y0132100D01*
X0325600Y0130299D01*
X0324643Y0130324D02*
X0327045Y0126720D01*
X0327045Y0130324D01*
X0326801Y0130299D02*
X0323198Y0130299D01*
X0324643Y0130324D02*
X0324643Y0126720D01*
X0328326Y0126720D02*
X0328326Y0130324D01*
X0330128Y0130324D01*
X0330728Y0129723D01*
X0330728Y0128522D01*
X0330128Y0127921D01*
X0328326Y0127921D01*
X0329527Y0127921D02*
X0330728Y0126720D01*
X0332009Y0126720D02*
X0332009Y0130324D01*
X0334412Y0130324D01*
X0335693Y0129723D02*
X0336293Y0130324D01*
X0337494Y0130324D01*
X0338095Y0129723D01*
X0338095Y0129123D01*
X0335693Y0126720D01*
X0338095Y0126720D01*
X0339517Y0125402D02*
X0339517Y0122400D01*
X0340117Y0121799D01*
X0341318Y0121799D01*
X0341919Y0122400D01*
X0341919Y0125402D01*
X0343200Y0125402D02*
X0345002Y0125402D01*
X0345602Y0124802D01*
X0345602Y0124201D01*
X0345002Y0123601D01*
X0343200Y0123601D01*
X0343200Y0125402D02*
X0343200Y0121799D01*
X0345002Y0121799D01*
X0345602Y0122400D01*
X0345602Y0123000D01*
X0345002Y0123601D01*
X0346883Y0125402D02*
X0346883Y0121799D01*
X0349285Y0121799D01*
X0350566Y0122400D02*
X0351167Y0121799D01*
X0352368Y0121799D01*
X0352968Y0122400D01*
X0352968Y0124802D01*
X0352368Y0125402D01*
X0351167Y0125402D01*
X0350566Y0124802D01*
X0350566Y0122400D01*
X0354249Y0121799D02*
X0356652Y0125402D01*
X0354249Y0125402D02*
X0356652Y0121799D01*
X0357933Y0121799D02*
X0360335Y0125402D01*
X0361616Y0125402D02*
X0363417Y0125402D01*
X0364018Y0124802D01*
X0364018Y0123601D01*
X0363417Y0123000D01*
X0361616Y0123000D01*
X0362817Y0123000D02*
X0364018Y0121799D01*
X0365299Y0122400D02*
X0365899Y0121799D01*
X0367100Y0121799D01*
X0367701Y0122400D01*
X0367701Y0123000D01*
X0367100Y0123601D01*
X0365899Y0123601D01*
X0365299Y0124201D01*
X0365299Y0124802D01*
X0365899Y0125402D01*
X0367100Y0125402D01*
X0367701Y0124802D01*
X0368982Y0124802D02*
X0369583Y0125402D01*
X0370784Y0125402D01*
X0371384Y0124802D01*
X0371384Y0124201D01*
X0368982Y0121799D01*
X0371384Y0121799D01*
X0372665Y0122400D02*
X0373266Y0121799D01*
X0374467Y0121799D01*
X0375067Y0122400D01*
X0375067Y0123000D01*
X0374467Y0123601D01*
X0373866Y0123601D01*
X0374467Y0123601D02*
X0375067Y0124201D01*
X0375067Y0124802D01*
X0374467Y0125402D01*
X0373266Y0125402D01*
X0372665Y0124802D01*
X0376348Y0124802D02*
X0376949Y0125402D01*
X0378150Y0125402D01*
X0378750Y0124802D01*
X0378750Y0124201D01*
X0376348Y0121799D01*
X0378750Y0121799D01*
X0361616Y0121799D02*
X0361616Y0125402D01*
X0349144Y0126720D02*
X0346742Y0126720D01*
X0346742Y0130324D01*
X0345461Y0129723D02*
X0343059Y0127321D01*
X0343659Y0126720D01*
X0344860Y0126720D01*
X0345461Y0127321D01*
X0345461Y0129723D01*
X0344860Y0130324D01*
X0343659Y0130324D01*
X0343059Y0129723D01*
X0343059Y0127321D01*
X0341778Y0128522D02*
X0339376Y0128522D01*
X0341177Y0130324D01*
X0341177Y0126720D01*
X0333210Y0128522D02*
X0332009Y0128522D01*
X0326801Y0133982D02*
X0326801Y0136384D01*
X0326801Y0137665D02*
X0324399Y0137665D01*
X0323198Y0138866D01*
X0324399Y0140067D01*
X0326801Y0140067D01*
X0324999Y0140067D02*
X0324999Y0137665D01*
X0323798Y0141348D02*
X0324999Y0142549D01*
X0326801Y0142549D01*
X0324999Y0142549D02*
X0323798Y0143750D01*
X0323198Y0143750D01*
X0323198Y0141348D02*
X0323798Y0141348D01*
X0323198Y0133982D02*
X0326801Y0133982D01*
X0287037Y0173594D02*
X0283434Y0173594D01*
X0283434Y0175395D01*
X0284034Y0175996D01*
X0284635Y0175996D01*
X0285235Y0175395D01*
X0285235Y0173594D01*
X0285235Y0175395D02*
X0285836Y0175996D01*
X0286437Y0175996D01*
X0287037Y0175395D01*
X0287037Y0173594D01*
X0286437Y0177277D02*
X0284034Y0177277D01*
X0283434Y0177877D01*
X0283434Y0179078D01*
X0284034Y0179679D01*
X0286437Y0179679D01*
X0287037Y0179078D01*
X0287037Y0177877D01*
X0286437Y0177277D01*
X0286437Y0180960D02*
X0284034Y0180960D01*
X0283434Y0181561D01*
X0283434Y0182762D01*
X0284034Y0183362D01*
X0286437Y0183362D01*
X0287037Y0182762D01*
X0287037Y0181561D01*
X0286437Y0180960D01*
X0283434Y0184643D02*
X0283434Y0187045D01*
X0283434Y0185844D02*
X0287037Y0185844D01*
X0287037Y0188326D02*
X0283434Y0188326D01*
X0284517Y0191248D02*
X0286919Y0191248D01*
X0287037Y0190728D02*
X0287037Y0188326D01*
X0288200Y0191248D02*
X0290602Y0194851D01*
X0291883Y0194851D02*
X0294285Y0194851D01*
X0293084Y0194851D02*
X0293084Y0191248D01*
X0290602Y0191248D02*
X0288200Y0194851D01*
X0286919Y0194851D02*
X0284517Y0194851D01*
X0284517Y0191248D01*
X0284034Y0192009D02*
X0286437Y0192009D01*
X0287037Y0192610D01*
X0287037Y0193811D01*
X0286437Y0194411D01*
X0284034Y0194411D01*
X0283434Y0193811D01*
X0283434Y0192610D01*
X0284034Y0192009D01*
X0284517Y0193050D02*
X0285718Y0193050D01*
X0285235Y0195693D02*
X0285235Y0198095D01*
X0284635Y0198095D02*
X0287037Y0198095D01*
X0287037Y0199376D02*
X0287037Y0201177D01*
X0286437Y0201778D01*
X0284034Y0201778D01*
X0283434Y0201177D01*
X0283434Y0199376D01*
X0287037Y0199376D01*
X0284635Y0198095D02*
X0283434Y0196894D01*
X0284635Y0195693D01*
X0287037Y0195693D01*
X0287037Y0203059D02*
X0283434Y0203059D01*
X0283434Y0205461D01*
X0283434Y0206742D02*
X0283434Y0208544D01*
X0284034Y0209144D01*
X0285235Y0209144D01*
X0285836Y0208544D01*
X0285836Y0206742D01*
X0287037Y0206742D02*
X0283434Y0206742D01*
X0285836Y0207943D02*
X0287037Y0209144D01*
X0287037Y0205461D02*
X0287037Y0203059D01*
X0285235Y0203059D02*
X0285235Y0204260D01*
X0295566Y0194851D02*
X0295566Y0191248D01*
X0297968Y0191248D01*
X0299249Y0191248D02*
X0299249Y0194851D01*
X0301051Y0194851D01*
X0301652Y0194251D01*
X0301652Y0193050D01*
X0301051Y0192449D01*
X0299249Y0192449D01*
X0300450Y0192449D02*
X0301652Y0191248D01*
X0302933Y0191248D02*
X0302933Y0194851D01*
X0305335Y0191248D01*
X0305335Y0194851D01*
X0306616Y0193650D02*
X0306616Y0191248D01*
X0306616Y0193050D02*
X0309018Y0193050D01*
X0309018Y0193650D02*
X0309018Y0191248D01*
X0310299Y0191248D02*
X0312701Y0191248D01*
X0313982Y0191248D02*
X0313982Y0194851D01*
X0315784Y0194851D01*
X0316384Y0194251D01*
X0316384Y0193050D01*
X0315784Y0192449D01*
X0313982Y0192449D01*
X0315183Y0192449D02*
X0316384Y0191248D01*
X0317665Y0191849D02*
X0318266Y0191248D01*
X0319467Y0191248D01*
X0320067Y0191849D01*
X0320067Y0192449D01*
X0319467Y0193050D01*
X0318266Y0193050D01*
X0317665Y0193650D01*
X0317665Y0194251D01*
X0318266Y0194851D01*
X0319467Y0194851D01*
X0320067Y0194251D01*
X0321348Y0194851D02*
X0323750Y0194851D01*
X0322549Y0194851D02*
X0322549Y0191248D01*
X0324950Y0197933D02*
X0323749Y0199134D01*
X0324950Y0200335D01*
X0327352Y0200335D01*
X0327352Y0201616D02*
X0323749Y0201616D01*
X0327352Y0204018D01*
X0323749Y0204018D01*
X0324950Y0205299D02*
X0323749Y0206500D01*
X0324950Y0207701D01*
X0327352Y0207701D01*
X0327352Y0208982D02*
X0327352Y0211384D01*
X0326751Y0212665D02*
X0327352Y0213266D01*
X0327352Y0214467D01*
X0326751Y0215067D01*
X0324349Y0215067D01*
X0323749Y0214467D01*
X0323749Y0213266D01*
X0324349Y0212665D01*
X0326751Y0212665D01*
X0326751Y0216348D02*
X0327352Y0216949D01*
X0327352Y0218150D01*
X0326751Y0218750D01*
X0325550Y0218750D01*
X0325550Y0217549D01*
X0324349Y0216348D02*
X0326751Y0216348D01*
X0324349Y0216348D02*
X0323749Y0216949D01*
X0323749Y0218150D01*
X0324349Y0218750D01*
X0323749Y0208982D02*
X0327352Y0208982D01*
X0325550Y0207701D02*
X0325550Y0205299D01*
X0324950Y0205299D02*
X0327352Y0205299D01*
X0325550Y0200335D02*
X0325550Y0197933D01*
X0324950Y0197933D02*
X0327352Y0197933D01*
X0310299Y0194851D02*
X0310299Y0191248D01*
X0309018Y0193650D02*
X0307817Y0194851D01*
X0306616Y0193650D01*
X0297968Y0194851D02*
X0295566Y0194851D01*
X0295566Y0193050D02*
X0296767Y0193050D01*
X0296996Y0233188D02*
X0299298Y0233188D01*
X0298531Y0234723D01*
X0298531Y0235490D01*
X0299298Y0236257D01*
X0300833Y0236257D01*
X0301600Y0235490D01*
X0301600Y0233956D01*
X0300833Y0233188D01*
X0296996Y0233188D02*
X0296996Y0236257D01*
X0296996Y0237792D02*
X0296996Y0240861D01*
X0297763Y0240861D01*
X0300833Y0237792D01*
X0301600Y0237792D01*
X0300833Y0242396D02*
X0297763Y0245465D01*
X0300833Y0245465D01*
X0301600Y0244698D01*
X0301600Y0243163D01*
X0300833Y0242396D01*
X0297763Y0242396D01*
X0296996Y0243163D01*
X0296996Y0244698D01*
X0297763Y0245465D01*
X0290465Y0240837D02*
X0287396Y0237767D01*
X0288163Y0237000D01*
X0289698Y0237000D01*
X0290465Y0237767D01*
X0290465Y0240837D01*
X0289698Y0241604D01*
X0288163Y0241604D01*
X0287396Y0240837D01*
X0287396Y0237767D01*
X0285861Y0237000D02*
X0282792Y0237000D01*
X0285861Y0240069D01*
X0285861Y0240837D01*
X0285094Y0241604D01*
X0283559Y0241604D01*
X0282792Y0240837D01*
X0281257Y0240837D02*
X0281257Y0239302D01*
X0280490Y0238535D01*
X0278188Y0238535D01*
X0279723Y0238535D02*
X0281257Y0237000D01*
X0278188Y0237000D02*
X0278188Y0241604D01*
X0280490Y0241604D01*
X0281257Y0240837D01*
X0283559Y0252000D02*
X0286629Y0252000D01*
X0288163Y0252000D02*
X0288163Y0256604D01*
X0290465Y0255069D02*
X0288163Y0253535D01*
X0290465Y0252000D01*
X0285094Y0252000D02*
X0285094Y0256604D01*
X0283559Y0255069D01*
X0256600Y0253114D02*
X0251996Y0253114D01*
X0251996Y0256183D01*
X0254298Y0254648D02*
X0254298Y0253114D01*
X0253531Y0251579D02*
X0256600Y0251579D01*
X0256600Y0249277D01*
X0255833Y0248510D01*
X0253531Y0248510D01*
X0256600Y0246975D02*
X0256600Y0243906D01*
X0256600Y0245441D02*
X0251996Y0245441D01*
X0253531Y0243906D01*
X0255833Y0242371D02*
X0256600Y0242371D01*
X0256600Y0241604D01*
X0255833Y0241604D01*
X0255833Y0242371D01*
X0255833Y0240069D02*
X0252763Y0240069D01*
X0255833Y0237000D01*
X0256600Y0237767D01*
X0256600Y0239302D01*
X0255833Y0240069D01*
X0255833Y0237000D02*
X0252763Y0237000D01*
X0251996Y0237767D01*
X0251996Y0239302D01*
X0252763Y0240069D01*
X0241600Y0239302D02*
X0241600Y0237767D01*
X0240833Y0237000D01*
X0237763Y0237000D01*
X0236996Y0237767D01*
X0236996Y0239302D01*
X0237763Y0240069D01*
X0239298Y0241604D02*
X0239298Y0244673D01*
X0236996Y0243906D02*
X0239298Y0241604D01*
X0240833Y0240069D02*
X0241600Y0239302D01*
X0241600Y0243906D02*
X0236996Y0243906D01*
X0237763Y0262000D02*
X0240833Y0262000D01*
X0241600Y0262767D01*
X0241600Y0264302D01*
X0240833Y0265069D01*
X0240833Y0266604D02*
X0241600Y0267371D01*
X0241600Y0268906D01*
X0240833Y0269673D01*
X0240065Y0269673D01*
X0239298Y0268906D01*
X0239298Y0268139D01*
X0239298Y0268906D02*
X0238531Y0269673D01*
X0237763Y0269673D01*
X0236996Y0268906D01*
X0236996Y0267371D01*
X0237763Y0266604D01*
X0237763Y0265069D02*
X0236996Y0264302D01*
X0236996Y0262767D01*
X0237763Y0262000D01*
X0251996Y0262767D02*
X0251996Y0264302D01*
X0252763Y0265069D01*
X0255833Y0262000D01*
X0256600Y0262767D01*
X0256600Y0264302D01*
X0255833Y0265069D01*
X0252763Y0265069D01*
X0251996Y0262767D02*
X0252763Y0262000D01*
X0255833Y0262000D01*
X0255833Y0266604D02*
X0255833Y0267371D01*
X0256600Y0267371D01*
X0256600Y0266604D01*
X0255833Y0266604D01*
X0256600Y0268906D02*
X0256600Y0271975D01*
X0256600Y0270441D02*
X0251996Y0270441D01*
X0253531Y0268906D01*
X0253531Y0273510D02*
X0255833Y0273510D01*
X0256600Y0274277D01*
X0256600Y0276579D01*
X0253531Y0276579D01*
X0254298Y0278114D02*
X0254298Y0279648D01*
X0256600Y0278114D02*
X0251996Y0278114D01*
X0251996Y0281183D01*
X0267000Y0287000D02*
X0270069Y0290069D01*
X0270069Y0290837D01*
X0269302Y0291604D01*
X0267767Y0291604D01*
X0267000Y0290837D01*
X0267000Y0287000D02*
X0270069Y0287000D01*
X0271604Y0287000D02*
X0274673Y0290069D01*
X0274673Y0290837D01*
X0273906Y0291604D01*
X0272371Y0291604D01*
X0271604Y0290837D01*
X0271604Y0287000D02*
X0274673Y0287000D01*
X0276208Y0287767D02*
X0276975Y0287000D01*
X0278510Y0287000D01*
X0279277Y0287767D01*
X0279277Y0290837D01*
X0276208Y0287767D01*
X0276208Y0290837D01*
X0276975Y0291604D01*
X0278510Y0291604D01*
X0279277Y0290837D01*
X0271604Y0302000D02*
X0271604Y0302767D01*
X0274673Y0305837D01*
X0274673Y0306604D01*
X0271604Y0306604D01*
X0270069Y0305837D02*
X0270069Y0304302D01*
X0269302Y0303535D01*
X0267000Y0303535D01*
X0268535Y0303535D02*
X0270069Y0302000D01*
X0267000Y0302000D02*
X0267000Y0306604D01*
X0269302Y0306604D01*
X0270069Y0305837D01*
X0235465Y0306604D02*
X0233931Y0305837D01*
X0232396Y0304302D01*
X0234698Y0304302D01*
X0235465Y0303535D01*
X0235465Y0302767D01*
X0234698Y0302000D01*
X0233163Y0302000D01*
X0232396Y0302767D01*
X0232396Y0304302D01*
X0230861Y0304302D02*
X0230094Y0303535D01*
X0227792Y0303535D01*
X0229327Y0303535D02*
X0230861Y0302000D01*
X0230861Y0304302D02*
X0230861Y0305837D01*
X0230094Y0306604D01*
X0227792Y0306604D01*
X0227792Y0302000D01*
X0228559Y0291604D02*
X0227792Y0290837D01*
X0228559Y0291604D02*
X0230094Y0291604D01*
X0230861Y0290837D01*
X0230861Y0290069D01*
X0227792Y0287000D01*
X0230861Y0287000D01*
X0232396Y0287767D02*
X0235465Y0290837D01*
X0235465Y0287767D01*
X0234698Y0287000D01*
X0233163Y0287000D01*
X0232396Y0287767D01*
X0232396Y0290837D01*
X0233163Y0291604D01*
X0234698Y0291604D01*
X0235465Y0290837D01*
X0226257Y0290837D02*
X0225490Y0291604D01*
X0223956Y0291604D01*
X0223188Y0290837D01*
X0226257Y0290837D02*
X0226257Y0290069D01*
X0223188Y0287000D01*
X0226257Y0287000D01*
X0194277Y0287767D02*
X0193510Y0287000D01*
X0191975Y0287000D01*
X0191208Y0287767D01*
X0194277Y0290837D01*
X0194277Y0287767D01*
X0191208Y0287767D02*
X0191208Y0290837D01*
X0191975Y0291604D01*
X0193510Y0291604D01*
X0194277Y0290837D01*
X0189673Y0290837D02*
X0188906Y0291604D01*
X0187371Y0291604D01*
X0186604Y0290837D01*
X0185069Y0290837D02*
X0184302Y0291604D01*
X0182767Y0291604D01*
X0182000Y0290837D01*
X0185069Y0290837D02*
X0185069Y0290069D01*
X0182000Y0287000D01*
X0185069Y0287000D01*
X0186604Y0287000D02*
X0189673Y0290069D01*
X0189673Y0290837D01*
X0189673Y0287000D02*
X0186604Y0287000D01*
X0187371Y0302000D02*
X0186604Y0302767D01*
X0187371Y0302000D02*
X0188906Y0302000D01*
X0189673Y0302767D01*
X0189673Y0304302D01*
X0188906Y0305069D01*
X0188139Y0305069D01*
X0186604Y0304302D01*
X0186604Y0306604D01*
X0189673Y0306604D01*
X0185069Y0305837D02*
X0185069Y0304302D01*
X0184302Y0303535D01*
X0182000Y0303535D01*
X0183535Y0303535D02*
X0185069Y0302000D01*
X0182000Y0302000D02*
X0182000Y0306604D01*
X0184302Y0306604D01*
X0185069Y0305837D01*
X0145465Y0304302D02*
X0142396Y0304302D01*
X0144698Y0306604D01*
X0144698Y0302000D01*
X0140861Y0302000D02*
X0139327Y0303535D01*
X0140094Y0303535D02*
X0137792Y0303535D01*
X0137792Y0302000D02*
X0137792Y0306604D01*
X0140094Y0306604D01*
X0140861Y0305837D01*
X0140861Y0304302D01*
X0140094Y0303535D01*
X0140094Y0291604D02*
X0138559Y0291604D01*
X0137792Y0290837D01*
X0136257Y0290837D02*
X0135490Y0291604D01*
X0133956Y0291604D01*
X0133188Y0290837D01*
X0136257Y0290837D02*
X0136257Y0290069D01*
X0133188Y0287000D01*
X0136257Y0287000D01*
X0137792Y0287000D02*
X0140861Y0290069D01*
X0140861Y0290837D01*
X0140094Y0291604D01*
X0142396Y0290837D02*
X0143163Y0291604D01*
X0144698Y0291604D01*
X0145465Y0290837D01*
X0142396Y0287767D01*
X0143163Y0287000D01*
X0144698Y0287000D01*
X0145465Y0287767D01*
X0145465Y0290837D01*
X0142396Y0290837D02*
X0142396Y0287767D01*
X0140861Y0287000D02*
X0137792Y0287000D01*
X0123510Y0251604D02*
X0121975Y0251604D01*
X0121208Y0250837D01*
X0121208Y0250069D01*
X0121975Y0249302D01*
X0123510Y0249302D01*
X0124277Y0248535D01*
X0124277Y0247767D01*
X0123510Y0247000D01*
X0121975Y0247000D01*
X0121208Y0247767D01*
X0121208Y0248535D01*
X0121975Y0249302D01*
X0123510Y0249302D02*
X0124277Y0250069D01*
X0124277Y0250837D01*
X0123510Y0251604D01*
X0119673Y0247000D02*
X0116604Y0247000D01*
X0118139Y0247000D02*
X0118139Y0251604D01*
X0116604Y0250069D01*
X0115069Y0249302D02*
X0115069Y0250837D01*
X0114302Y0251604D01*
X0112000Y0251604D01*
X0112000Y0247000D01*
X0112000Y0248535D02*
X0114302Y0248535D01*
X0115069Y0249302D01*
X0113535Y0248535D02*
X0115069Y0247000D01*
X0113535Y0236604D02*
X0113535Y0232000D01*
X0115069Y0232000D02*
X0112000Y0232000D01*
X0112000Y0235069D02*
X0113535Y0236604D01*
X0116604Y0236604D02*
X0116604Y0232000D01*
X0116604Y0233535D02*
X0118906Y0235069D01*
X0116604Y0233535D02*
X0118906Y0232000D01*
X0118531Y0223510D02*
X0120065Y0221208D01*
X0121600Y0223510D01*
X0121600Y0221208D02*
X0116996Y0221208D01*
X0117763Y0219673D02*
X0120833Y0216604D01*
X0121600Y0217371D01*
X0121600Y0218906D01*
X0120833Y0219673D01*
X0117763Y0219673D01*
X0116996Y0218906D01*
X0116996Y0217371D01*
X0117763Y0216604D01*
X0120833Y0216604D01*
X0121600Y0215069D02*
X0121600Y0212000D01*
X0121600Y0213535D02*
X0116996Y0213535D01*
X0118531Y0212000D01*
X0106600Y0212000D02*
X0101996Y0212000D01*
X0101996Y0214302D01*
X0102763Y0215069D01*
X0104298Y0215069D01*
X0105065Y0214302D01*
X0105065Y0212000D01*
X0105065Y0213535D02*
X0106600Y0215069D01*
X0106600Y0216604D02*
X0106600Y0219673D01*
X0106600Y0218139D02*
X0101996Y0218139D01*
X0103531Y0216604D01*
X0100833Y0237000D02*
X0101600Y0237767D01*
X0101600Y0239302D01*
X0100833Y0240069D01*
X0099298Y0240069D01*
X0098531Y0239302D01*
X0098531Y0238535D01*
X0099298Y0237000D01*
X0096996Y0237000D01*
X0096996Y0240069D01*
X0096996Y0241604D02*
X0096996Y0244673D01*
X0097763Y0244673D01*
X0100833Y0241604D01*
X0101600Y0241604D01*
X0100833Y0246208D02*
X0097763Y0249277D01*
X0100833Y0249277D01*
X0101600Y0248510D01*
X0101600Y0246975D01*
X0100833Y0246208D01*
X0097763Y0246208D01*
X0096996Y0246975D01*
X0096996Y0248510D01*
X0097763Y0249277D01*
X0086600Y0246208D02*
X0085833Y0246208D01*
X0082763Y0249277D01*
X0081996Y0249277D01*
X0081996Y0246208D01*
X0081996Y0243139D02*
X0086600Y0243139D01*
X0086600Y0244673D02*
X0086600Y0241604D01*
X0086600Y0240069D02*
X0085065Y0238535D01*
X0085065Y0239302D02*
X0085065Y0237000D01*
X0086600Y0237000D02*
X0081996Y0237000D01*
X0081996Y0239302D01*
X0082763Y0240069D01*
X0084298Y0240069D01*
X0085065Y0239302D01*
X0083531Y0241604D02*
X0081996Y0243139D01*
X0087000Y0287000D02*
X0090069Y0290069D01*
X0090069Y0290837D01*
X0089302Y0291604D01*
X0087767Y0291604D01*
X0087000Y0290837D01*
X0087000Y0287000D02*
X0090069Y0287000D01*
X0091604Y0287000D02*
X0094673Y0290069D01*
X0094673Y0290837D01*
X0093906Y0291604D01*
X0092371Y0291604D01*
X0091604Y0290837D01*
X0091604Y0287000D02*
X0094673Y0287000D01*
X0096208Y0287767D02*
X0096975Y0287000D01*
X0098510Y0287000D01*
X0099277Y0287767D01*
X0099277Y0290837D01*
X0096208Y0287767D01*
X0096208Y0290837D01*
X0096975Y0291604D01*
X0098510Y0291604D01*
X0099277Y0290837D01*
X0093906Y0302000D02*
X0092371Y0302000D01*
X0091604Y0302767D01*
X0090069Y0302000D02*
X0088535Y0303535D01*
X0089302Y0303535D02*
X0087000Y0303535D01*
X0087000Y0302000D02*
X0087000Y0306604D01*
X0089302Y0306604D01*
X0090069Y0305837D01*
X0090069Y0304302D01*
X0089302Y0303535D01*
X0091604Y0305837D02*
X0092371Y0306604D01*
X0093906Y0306604D01*
X0094673Y0305837D01*
X0094673Y0305069D01*
X0093906Y0304302D01*
X0094673Y0303535D01*
X0094673Y0302767D01*
X0093906Y0302000D01*
X0093906Y0304302D02*
X0093139Y0304302D01*
X0064277Y0290837D02*
X0061208Y0287767D01*
X0061975Y0287000D01*
X0063510Y0287000D01*
X0064277Y0287767D01*
X0064277Y0290837D01*
X0063510Y0291604D01*
X0061975Y0291604D01*
X0061208Y0290837D01*
X0061208Y0287767D01*
X0059673Y0287000D02*
X0056604Y0287000D01*
X0059673Y0290069D01*
X0059673Y0290837D01*
X0058906Y0291604D01*
X0057371Y0291604D01*
X0056604Y0290837D01*
X0055069Y0290837D02*
X0054302Y0291604D01*
X0052767Y0291604D01*
X0052000Y0290837D01*
X0055069Y0290837D02*
X0055069Y0290069D01*
X0052000Y0287000D01*
X0055069Y0287000D01*
X0055069Y0302000D02*
X0053535Y0303535D01*
X0054302Y0303535D02*
X0052000Y0303535D01*
X0052000Y0302000D02*
X0052000Y0306604D01*
X0054302Y0306604D01*
X0055069Y0305837D01*
X0055069Y0304302D01*
X0054302Y0303535D01*
X0056604Y0302000D02*
X0059673Y0305069D01*
X0059673Y0305837D01*
X0058906Y0306604D01*
X0057371Y0306604D01*
X0056604Y0305837D01*
X0056604Y0302000D02*
X0059673Y0302000D01*
X0029100Y0179203D02*
X0027565Y0177668D01*
X0027565Y0178435D02*
X0027565Y0176133D01*
X0029100Y0176133D02*
X0024496Y0176133D01*
X0024496Y0178435D01*
X0025263Y0179203D01*
X0026798Y0179203D01*
X0027565Y0178435D01*
X0029100Y0174599D02*
X0029100Y0171529D01*
X0024496Y0171529D01*
X0024496Y0174599D01*
X0026798Y0173064D02*
X0026798Y0171529D01*
X0024496Y0169995D02*
X0024496Y0166925D01*
X0024496Y0168460D02*
X0029100Y0168460D01*
X0029100Y0165391D02*
X0027565Y0163856D01*
X0027565Y0164623D02*
X0027565Y0162321D01*
X0029100Y0162321D02*
X0024496Y0162321D01*
X0024496Y0164623D01*
X0025263Y0165391D01*
X0026798Y0165391D01*
X0027565Y0164623D01*
X0029100Y0160787D02*
X0029100Y0157718D01*
X0024496Y0157718D01*
X0024496Y0160787D01*
X0026798Y0159252D02*
X0026798Y0157718D01*
X0027565Y0156183D02*
X0024496Y0156183D01*
X0024496Y0153114D02*
X0027565Y0153114D01*
X0029100Y0154648D01*
X0027565Y0156183D01*
X0029100Y0151579D02*
X0024496Y0151579D01*
X0024496Y0148510D02*
X0029100Y0151579D01*
X0029100Y0148510D02*
X0024496Y0148510D01*
X0025263Y0146975D02*
X0024496Y0146208D01*
X0024496Y0144673D01*
X0025263Y0143906D01*
X0028333Y0143906D01*
X0029100Y0144673D01*
X0029100Y0146208D01*
X0028333Y0146975D01*
X0025263Y0146975D01*
X0025263Y0142371D02*
X0024496Y0141604D01*
X0024496Y0140069D01*
X0025263Y0139302D01*
X0028333Y0139302D01*
X0029100Y0140069D01*
X0029100Y0141604D01*
X0028333Y0142371D01*
X0026798Y0137767D02*
X0026798Y0134698D01*
X0029100Y0133163D02*
X0029100Y0130094D01*
X0024496Y0130094D01*
X0024496Y0128559D02*
X0024496Y0125490D01*
X0024496Y0123955D02*
X0024496Y0120886D01*
X0024496Y0122421D02*
X0029100Y0122421D01*
X0026798Y0119352D02*
X0026798Y0116282D01*
X0026798Y0114748D02*
X0028333Y0114748D01*
X0029100Y0113980D01*
X0029100Y0112446D01*
X0028333Y0111678D01*
X0028333Y0110144D02*
X0029100Y0109376D01*
X0029100Y0107842D01*
X0028333Y0107074D01*
X0027565Y0107074D01*
X0026798Y0107842D01*
X0026798Y0109376D01*
X0027565Y0110144D01*
X0028333Y0110144D01*
X0026798Y0109376D02*
X0026031Y0110144D01*
X0025263Y0110144D01*
X0024496Y0109376D01*
X0024496Y0107842D01*
X0025263Y0107074D01*
X0026031Y0107074D01*
X0026798Y0107842D01*
X0026798Y0105540D02*
X0026798Y0102470D01*
X0024496Y0104772D01*
X0029100Y0104772D01*
X0028333Y0100936D02*
X0029100Y0100169D01*
X0029100Y0098634D01*
X0028333Y0097867D01*
X0026798Y0098634D02*
X0026798Y0100169D01*
X0027565Y0100936D01*
X0028333Y0100936D01*
X0026798Y0098634D02*
X0026031Y0097867D01*
X0025263Y0097867D01*
X0024496Y0098634D01*
X0024496Y0100169D01*
X0025263Y0100936D01*
X0025263Y0096332D02*
X0026798Y0096332D01*
X0027565Y0095565D01*
X0027565Y0093263D01*
X0027565Y0094797D02*
X0029100Y0096332D01*
X0029100Y0093263D02*
X0024496Y0093263D01*
X0024496Y0095565D01*
X0025263Y0096332D01*
X0024496Y0111678D02*
X0026798Y0111678D01*
X0026031Y0113213D01*
X0026031Y0113980D01*
X0026798Y0114748D01*
X0024496Y0114748D02*
X0024496Y0111678D01*
X0024496Y0127025D02*
X0029100Y0127025D01*
X0102000Y0110837D02*
X0102000Y0107767D01*
X0102767Y0107000D01*
X0104302Y0107000D01*
X0105069Y0107767D01*
X0106604Y0107767D02*
X0107371Y0107000D01*
X0108906Y0107000D01*
X0109673Y0107767D01*
X0109673Y0109302D01*
X0108906Y0110069D01*
X0108139Y0110069D01*
X0106604Y0109302D01*
X0106604Y0111604D01*
X0109673Y0111604D01*
X0105069Y0110837D02*
X0104302Y0111604D01*
X0102767Y0111604D01*
X0102000Y0110837D01*
X0102767Y0096604D02*
X0104302Y0096604D01*
X0105069Y0095837D01*
X0102000Y0092767D01*
X0102767Y0092000D01*
X0104302Y0092000D01*
X0105069Y0092767D01*
X0105069Y0095837D01*
X0102767Y0096604D02*
X0102000Y0095837D01*
X0102000Y0092767D01*
X0106604Y0092767D02*
X0106604Y0092000D01*
X0107371Y0092000D01*
X0107371Y0092767D01*
X0106604Y0092767D01*
X0108906Y0092767D02*
X0109673Y0092000D01*
X0111208Y0092000D01*
X0111975Y0092767D01*
X0111975Y0093535D01*
X0111208Y0094302D01*
X0110441Y0094302D01*
X0111208Y0094302D02*
X0111975Y0095069D01*
X0111975Y0095837D01*
X0111208Y0096604D01*
X0109673Y0096604D01*
X0108906Y0095837D01*
X0113510Y0095837D02*
X0114277Y0096604D01*
X0115812Y0096604D01*
X0116579Y0095837D01*
X0116579Y0095069D01*
X0115812Y0094302D01*
X0116579Y0093535D01*
X0116579Y0092767D01*
X0115812Y0092000D01*
X0114277Y0092000D01*
X0113510Y0092767D01*
X0115044Y0094302D02*
X0115812Y0094302D01*
X0118114Y0095069D02*
X0118114Y0092767D01*
X0118881Y0092000D01*
X0121183Y0092000D01*
X0121183Y0095069D01*
X0122718Y0094302D02*
X0124252Y0094302D01*
X0122718Y0092000D02*
X0122718Y0096604D01*
X0125787Y0096604D01*
X0127000Y0095837D02*
X0127767Y0096604D01*
X0129302Y0096604D01*
X0130069Y0095837D01*
X0127000Y0092767D01*
X0127767Y0092000D01*
X0129302Y0092000D01*
X0130069Y0092767D01*
X0130069Y0095837D01*
X0127000Y0095837D02*
X0127000Y0092767D01*
X0131604Y0092767D02*
X0131604Y0092000D01*
X0132371Y0092000D01*
X0132371Y0092767D01*
X0131604Y0092767D01*
X0133906Y0092767D02*
X0134673Y0092000D01*
X0136208Y0092000D01*
X0136975Y0092767D01*
X0136975Y0093535D01*
X0136208Y0094302D01*
X0135441Y0094302D01*
X0136208Y0094302D02*
X0136975Y0095069D01*
X0136975Y0095837D01*
X0136208Y0096604D01*
X0134673Y0096604D01*
X0133906Y0095837D01*
X0138510Y0095837D02*
X0139277Y0096604D01*
X0140812Y0096604D01*
X0141579Y0095837D01*
X0141579Y0095069D01*
X0140812Y0094302D01*
X0141579Y0093535D01*
X0141579Y0092767D01*
X0140812Y0092000D01*
X0139277Y0092000D01*
X0138510Y0092767D01*
X0140044Y0094302D02*
X0140812Y0094302D01*
X0143114Y0095069D02*
X0143114Y0092767D01*
X0143881Y0092000D01*
X0146183Y0092000D01*
X0146183Y0095069D01*
X0147718Y0094302D02*
X0149252Y0094302D01*
X0147718Y0092000D02*
X0147718Y0096604D01*
X0150787Y0096604D01*
X0166996Y0095886D02*
X0167763Y0096654D01*
X0170833Y0093584D01*
X0171600Y0094352D01*
X0171600Y0095886D01*
X0170833Y0096654D01*
X0167763Y0096654D01*
X0166996Y0095886D02*
X0166996Y0094352D01*
X0167763Y0093584D01*
X0170833Y0093584D01*
X0170833Y0092050D02*
X0171600Y0091282D01*
X0171600Y0089748D01*
X0170833Y0088980D01*
X0167763Y0092050D01*
X0170833Y0092050D01*
X0167763Y0092050D02*
X0166996Y0091282D01*
X0166996Y0089748D01*
X0167763Y0088980D01*
X0170833Y0088980D01*
X0171600Y0087446D02*
X0171600Y0084376D01*
X0171600Y0085911D02*
X0166996Y0085911D01*
X0168531Y0084376D01*
X0167763Y0098188D02*
X0166996Y0098955D01*
X0166996Y0100490D01*
X0167763Y0101257D01*
X0170833Y0098188D01*
X0171600Y0098955D01*
X0171600Y0100490D01*
X0170833Y0101257D01*
X0167763Y0101257D01*
X0168531Y0102792D02*
X0170833Y0102792D01*
X0171600Y0103559D01*
X0171600Y0105861D01*
X0168531Y0105861D01*
X0169298Y0107396D02*
X0169298Y0108931D01*
X0166996Y0107396D02*
X0166996Y0110465D01*
X0166996Y0107396D02*
X0171600Y0107396D01*
X0170833Y0098188D02*
X0167763Y0098188D01*
X0181996Y0103559D02*
X0182763Y0102792D01*
X0185833Y0102792D01*
X0186600Y0103559D01*
X0186600Y0105094D01*
X0185833Y0105861D01*
X0185833Y0107396D02*
X0185065Y0107396D01*
X0184298Y0108163D01*
X0184298Y0109698D01*
X0185065Y0110465D01*
X0185833Y0110465D01*
X0186600Y0109698D01*
X0186600Y0108163D01*
X0185833Y0107396D01*
X0184298Y0108163D02*
X0183531Y0107396D01*
X0182763Y0107396D01*
X0181996Y0108163D01*
X0181996Y0109698D01*
X0182763Y0110465D01*
X0183531Y0110465D01*
X0184298Y0109698D01*
X0182763Y0105861D02*
X0181996Y0105094D01*
X0181996Y0103559D01*
X0197000Y0100069D02*
X0198535Y0101604D01*
X0198535Y0097000D01*
X0200069Y0097000D02*
X0197000Y0097000D01*
X0201604Y0097767D02*
X0201604Y0100837D01*
X0202371Y0101604D01*
X0203906Y0101604D01*
X0204673Y0100837D01*
X0201604Y0097767D01*
X0202371Y0097000D01*
X0203906Y0097000D01*
X0204673Y0097767D01*
X0204673Y0100837D01*
X0206208Y0100837D02*
X0206975Y0101604D01*
X0208510Y0101604D01*
X0209277Y0100837D01*
X0206208Y0097767D01*
X0206975Y0097000D01*
X0208510Y0097000D01*
X0209277Y0097767D01*
X0209277Y0100837D01*
X0210812Y0100069D02*
X0210812Y0097767D01*
X0211579Y0097000D01*
X0213881Y0097000D01*
X0213881Y0100069D01*
X0215416Y0099302D02*
X0216950Y0099302D01*
X0215416Y0101604D02*
X0218485Y0101604D01*
X0215416Y0101604D02*
X0215416Y0097000D01*
X0206208Y0097767D02*
X0206208Y0100837D01*
X0201604Y0112000D02*
X0201604Y0112767D01*
X0204673Y0115837D01*
X0204673Y0116604D01*
X0201604Y0116604D01*
X0200069Y0115837D02*
X0199302Y0116604D01*
X0197767Y0116604D01*
X0197000Y0115837D01*
X0197000Y0112767D01*
X0197767Y0112000D01*
X0199302Y0112000D01*
X0200069Y0112767D01*
X0223710Y0119643D02*
X0227313Y0119643D01*
X0227313Y0122045D01*
X0226712Y0123326D02*
X0227313Y0123927D01*
X0227313Y0125128D01*
X0226712Y0125728D01*
X0226112Y0125728D01*
X0225511Y0125128D01*
X0225511Y0123927D01*
X0224911Y0123326D01*
X0224310Y0123326D01*
X0223710Y0123927D01*
X0223710Y0125128D01*
X0224310Y0125728D01*
X0223710Y0127009D02*
X0223710Y0128811D01*
X0224310Y0129412D01*
X0225511Y0129412D01*
X0226112Y0128811D01*
X0226112Y0127009D01*
X0227313Y0127009D02*
X0223710Y0127009D01*
X0224310Y0130693D02*
X0224911Y0130693D01*
X0225511Y0131293D01*
X0225511Y0132494D01*
X0226112Y0133095D01*
X0226712Y0133095D01*
X0227313Y0132494D01*
X0227313Y0131293D01*
X0226712Y0130693D01*
X0226112Y0130693D01*
X0225511Y0131293D01*
X0225511Y0132494D02*
X0224911Y0133095D01*
X0224310Y0133095D01*
X0223710Y0132494D01*
X0223710Y0131293D01*
X0224310Y0130693D01*
X0224310Y0134376D02*
X0223710Y0134976D01*
X0223710Y0136177D01*
X0224310Y0136778D01*
X0224911Y0136778D01*
X0227313Y0134376D01*
X0227313Y0136778D01*
X0226712Y0138059D02*
X0227313Y0138659D01*
X0227313Y0139860D01*
X0226712Y0140461D01*
X0226112Y0140461D01*
X0225511Y0139860D01*
X0225511Y0138059D01*
X0226712Y0138059D01*
X0225511Y0138059D02*
X0224310Y0139260D01*
X0223710Y0140461D01*
X0225511Y0141742D02*
X0224310Y0142943D01*
X0223710Y0144144D01*
X0225511Y0143544D02*
X0225511Y0141742D01*
X0226712Y0141742D01*
X0227313Y0142343D01*
X0227313Y0143544D01*
X0226712Y0144144D01*
X0226112Y0144144D01*
X0225511Y0143544D01*
X0226996Y0153188D02*
X0226996Y0155490D01*
X0227763Y0156257D01*
X0229298Y0156257D01*
X0230065Y0155490D01*
X0230065Y0153188D01*
X0230065Y0154723D02*
X0231600Y0156257D01*
X0231600Y0157792D02*
X0231600Y0160861D01*
X0231600Y0159327D02*
X0226996Y0159327D01*
X0228531Y0157792D01*
X0227763Y0162396D02*
X0226996Y0163163D01*
X0226996Y0164698D01*
X0227763Y0165465D01*
X0228531Y0165465D01*
X0231600Y0162396D01*
X0231600Y0165465D01*
X0216600Y0166208D02*
X0216600Y0169277D01*
X0216600Y0167742D02*
X0211996Y0167742D01*
X0213531Y0166208D01*
X0216600Y0164673D02*
X0216600Y0161604D01*
X0216600Y0163139D02*
X0211996Y0163139D01*
X0213531Y0161604D01*
X0214298Y0160069D02*
X0215065Y0159302D01*
X0215065Y0157000D01*
X0215065Y0158535D02*
X0216600Y0160069D01*
X0214298Y0160069D02*
X0212763Y0160069D01*
X0211996Y0159302D01*
X0211996Y0157000D01*
X0216600Y0157000D01*
X0226996Y0153188D02*
X0231600Y0153188D01*
X0201600Y0153188D02*
X0196996Y0153188D01*
X0196996Y0155490D01*
X0197763Y0156257D01*
X0199298Y0156257D01*
X0200065Y0155490D01*
X0200065Y0153188D01*
X0200065Y0154723D02*
X0201600Y0156257D01*
X0201600Y0157792D02*
X0201600Y0160861D01*
X0201600Y0159327D02*
X0196996Y0159327D01*
X0198531Y0157792D01*
X0197763Y0162396D02*
X0196996Y0163163D01*
X0196996Y0164698D01*
X0197763Y0165465D01*
X0200833Y0162396D01*
X0201600Y0163163D01*
X0201600Y0164698D01*
X0200833Y0165465D01*
X0197763Y0165465D01*
X0197763Y0162396D02*
X0200833Y0162396D01*
X0186600Y0163163D02*
X0185833Y0162396D01*
X0186600Y0163163D02*
X0186600Y0164698D01*
X0185833Y0165465D01*
X0184298Y0165465D01*
X0183531Y0164698D01*
X0183531Y0163931D01*
X0184298Y0162396D01*
X0181996Y0162396D01*
X0181996Y0165465D01*
X0181996Y0159327D02*
X0186600Y0159327D01*
X0186600Y0160861D02*
X0186600Y0157792D01*
X0186600Y0156257D02*
X0185065Y0154723D01*
X0185065Y0155490D02*
X0185065Y0153188D01*
X0186600Y0153188D02*
X0181996Y0153188D01*
X0181996Y0155490D01*
X0182763Y0156257D01*
X0184298Y0156257D01*
X0185065Y0155490D01*
X0183531Y0157792D02*
X0181996Y0159327D01*
X0171600Y0159327D02*
X0166996Y0159327D01*
X0168531Y0157792D01*
X0169298Y0156257D02*
X0170065Y0155490D01*
X0170065Y0153188D01*
X0170065Y0154723D02*
X0171600Y0156257D01*
X0171600Y0157792D02*
X0171600Y0160861D01*
X0169298Y0162396D02*
X0166996Y0164698D01*
X0171600Y0164698D01*
X0169298Y0165465D02*
X0169298Y0162396D01*
X0169298Y0156257D02*
X0167763Y0156257D01*
X0166996Y0155490D01*
X0166996Y0153188D01*
X0171600Y0153188D01*
X0156600Y0157000D02*
X0151996Y0157000D01*
X0151996Y0159302D01*
X0152763Y0160069D01*
X0154298Y0160069D01*
X0155065Y0159302D01*
X0155065Y0157000D01*
X0155065Y0158535D02*
X0156600Y0160069D01*
X0156600Y0161604D02*
X0156600Y0164673D01*
X0156600Y0163139D02*
X0151996Y0163139D01*
X0153531Y0161604D01*
X0152763Y0166208D02*
X0151996Y0166975D01*
X0151996Y0168510D01*
X0152763Y0169277D01*
X0153531Y0169277D01*
X0154298Y0168510D01*
X0155065Y0169277D01*
X0155833Y0169277D01*
X0156600Y0168510D01*
X0156600Y0166975D01*
X0155833Y0166208D01*
X0154298Y0167742D02*
X0154298Y0168510D01*
X0134673Y0111604D02*
X0133139Y0110837D01*
X0131604Y0109302D01*
X0133906Y0109302D01*
X0134673Y0108535D01*
X0134673Y0107767D01*
X0133906Y0107000D01*
X0132371Y0107000D01*
X0131604Y0107767D01*
X0131604Y0109302D01*
X0130069Y0110837D02*
X0129302Y0111604D01*
X0127767Y0111604D01*
X0127000Y0110837D01*
X0127000Y0107767D01*
X0127767Y0107000D01*
X0129302Y0107000D01*
X0130069Y0107767D01*
X0223710Y0119643D02*
X0223710Y0122045D01*
X0225511Y0120844D02*
X0225511Y0119643D01*
X0237000Y0096604D02*
X0239302Y0096604D01*
X0240069Y0095837D01*
X0240069Y0094302D01*
X0239302Y0093535D01*
X0237000Y0093535D01*
X0238535Y0093535D02*
X0240069Y0092000D01*
X0241604Y0092000D02*
X0244673Y0092000D01*
X0243139Y0092000D02*
X0243139Y0096604D01*
X0241604Y0095069D01*
X0246208Y0094302D02*
X0248510Y0094302D01*
X0249277Y0093535D01*
X0249277Y0092767D01*
X0248510Y0092000D01*
X0246975Y0092000D01*
X0246208Y0092767D01*
X0246208Y0094302D01*
X0247742Y0095837D01*
X0249277Y0096604D01*
X0237000Y0096604D02*
X0237000Y0092000D01*
X0237767Y0081604D02*
X0239302Y0081604D01*
X0240069Y0080837D01*
X0240069Y0080069D01*
X0239302Y0079302D01*
X0240069Y0078535D01*
X0240069Y0077767D01*
X0239302Y0077000D01*
X0237767Y0077000D01*
X0237000Y0077767D01*
X0238535Y0079302D02*
X0239302Y0079302D01*
X0241604Y0080837D02*
X0242371Y0081604D01*
X0243906Y0081604D01*
X0244673Y0080837D01*
X0244673Y0080069D01*
X0243906Y0079302D01*
X0244673Y0078535D01*
X0244673Y0077767D01*
X0243906Y0077000D01*
X0242371Y0077000D01*
X0241604Y0077767D01*
X0243139Y0079302D02*
X0243906Y0079302D01*
X0246208Y0080837D02*
X0246975Y0081604D01*
X0248510Y0081604D01*
X0249277Y0080837D01*
X0246208Y0077767D01*
X0246975Y0077000D01*
X0248510Y0077000D01*
X0249277Y0077767D01*
X0249277Y0080837D01*
X0246208Y0080837D02*
X0246208Y0077767D01*
X0237767Y0081604D02*
X0237000Y0080837D01*
X0237763Y0201282D02*
X0236996Y0202050D01*
X0236996Y0203584D01*
X0237763Y0204352D01*
X0240833Y0201282D01*
X0241600Y0202050D01*
X0241600Y0203584D01*
X0240833Y0204352D01*
X0237763Y0204352D01*
X0237763Y0201282D02*
X0240833Y0201282D01*
X0240833Y0205886D02*
X0240833Y0206654D01*
X0241600Y0206654D01*
X0241600Y0205886D01*
X0240833Y0205886D01*
X0241600Y0208188D02*
X0241600Y0211257D01*
X0241600Y0209723D02*
X0236996Y0209723D01*
X0238531Y0208188D01*
X0238531Y0212792D02*
X0240833Y0212792D01*
X0241600Y0213559D01*
X0241600Y0215861D01*
X0238531Y0215861D01*
X0239298Y0217396D02*
X0239298Y0218931D01*
X0236996Y0217396D02*
X0236996Y0220465D01*
X0236996Y0217396D02*
X0241600Y0217396D01*
X0251996Y0218163D02*
X0252763Y0217396D01*
X0253531Y0217396D01*
X0254298Y0218163D01*
X0254298Y0220465D01*
X0255833Y0220465D02*
X0252763Y0220465D01*
X0251996Y0219698D01*
X0251996Y0218163D01*
X0252763Y0215861D02*
X0251996Y0215094D01*
X0251996Y0213559D01*
X0252763Y0212792D01*
X0255833Y0212792D01*
X0256600Y0213559D01*
X0256600Y0215094D01*
X0255833Y0215861D01*
X0255833Y0217396D02*
X0256600Y0218163D01*
X0256600Y0219698D01*
X0255833Y0220465D01*
X0311996Y0233188D02*
X0311996Y0235490D01*
X0312763Y0236257D01*
X0314298Y0236257D01*
X0315065Y0235490D01*
X0315065Y0233188D01*
X0315065Y0234723D02*
X0316600Y0236257D01*
X0316600Y0237792D02*
X0316600Y0240861D01*
X0316600Y0239327D02*
X0311996Y0239327D01*
X0313531Y0237792D01*
X0311996Y0233188D02*
X0316600Y0233188D01*
X0315833Y0242396D02*
X0316600Y0243163D01*
X0316600Y0244698D01*
X0315833Y0245465D01*
X0312763Y0245465D01*
X0311996Y0244698D01*
X0311996Y0243163D01*
X0312763Y0242396D01*
X0313531Y0242396D01*
X0314298Y0243163D01*
X0314298Y0245465D01*
X0315069Y0287000D02*
X0312000Y0287000D01*
X0315069Y0290069D01*
X0315069Y0290837D01*
X0314302Y0291604D01*
X0312767Y0291604D01*
X0312000Y0290837D01*
X0316604Y0290837D02*
X0317371Y0291604D01*
X0318906Y0291604D01*
X0319673Y0290837D01*
X0319673Y0290069D01*
X0316604Y0287000D01*
X0319673Y0287000D01*
X0321208Y0287767D02*
X0321975Y0287000D01*
X0323510Y0287000D01*
X0324277Y0287767D01*
X0324277Y0290837D01*
X0321208Y0287767D01*
X0321208Y0290837D01*
X0321975Y0291604D01*
X0323510Y0291604D01*
X0324277Y0290837D01*
X0318906Y0302000D02*
X0317371Y0302000D01*
X0316604Y0302767D01*
X0316604Y0303535D01*
X0317371Y0304302D01*
X0318906Y0304302D01*
X0319673Y0303535D01*
X0319673Y0302767D01*
X0318906Y0302000D01*
X0318906Y0304302D02*
X0319673Y0305069D01*
X0319673Y0305837D01*
X0318906Y0306604D01*
X0317371Y0306604D01*
X0316604Y0305837D01*
X0316604Y0305069D01*
X0317371Y0304302D01*
X0315069Y0304302D02*
X0314302Y0303535D01*
X0312000Y0303535D01*
X0313535Y0303535D02*
X0315069Y0302000D01*
X0315069Y0304302D02*
X0315069Y0305837D01*
X0314302Y0306604D01*
X0312000Y0306604D01*
X0312000Y0302000D01*
X0352000Y0302000D02*
X0352000Y0306604D01*
X0354302Y0306604D01*
X0355069Y0305837D01*
X0355069Y0304302D01*
X0354302Y0303535D01*
X0352000Y0303535D01*
X0353535Y0303535D02*
X0355069Y0302000D01*
X0356604Y0302767D02*
X0357371Y0302000D01*
X0358906Y0302000D01*
X0359673Y0302767D01*
X0359673Y0305837D01*
X0358906Y0306604D01*
X0357371Y0306604D01*
X0356604Y0305837D01*
X0356604Y0305069D01*
X0357371Y0304302D01*
X0359673Y0304302D01*
X0358906Y0291604D02*
X0357371Y0291604D01*
X0356604Y0290837D01*
X0355069Y0290837D02*
X0354302Y0291604D01*
X0352767Y0291604D01*
X0352000Y0290837D01*
X0355069Y0290837D02*
X0355069Y0290069D01*
X0352000Y0287000D01*
X0355069Y0287000D01*
X0356604Y0287000D02*
X0359673Y0290069D01*
X0359673Y0290837D01*
X0358906Y0291604D01*
X0361208Y0290837D02*
X0361975Y0291604D01*
X0363510Y0291604D01*
X0364277Y0290837D01*
X0361208Y0287767D01*
X0361975Y0287000D01*
X0363510Y0287000D01*
X0364277Y0287767D01*
X0364277Y0290837D01*
X0361208Y0290837D02*
X0361208Y0287767D01*
X0359673Y0287000D02*
X0356604Y0287000D01*
D17*
X0311918Y0220855D02*
X0311918Y0218887D01*
X0301682Y0218887D01*
X0301682Y0220855D01*
X0301682Y0169713D02*
X0311918Y0169713D01*
X0311918Y0167745D01*
X0301682Y0167745D02*
X0301682Y0169713D01*
D18*
X0131800Y0119550D03*
X0121800Y0119550D03*
X0111800Y0119550D03*
D19*
X0111800Y0126300D03*
X0121800Y0126300D03*
X0131800Y0126300D03*
D20*
X0144145Y0143650D02*
X0144145Y0147854D01*
X0145196Y0147854D01*
X0149399Y0143650D01*
X0150450Y0143650D01*
X0149399Y0150095D02*
X0148348Y0150095D01*
X0147297Y0151146D01*
X0147297Y0153248D01*
X0148348Y0154299D01*
X0149399Y0154299D01*
X0150450Y0153248D01*
X0150450Y0151146D01*
X0149399Y0150095D01*
X0147297Y0151146D02*
X0146246Y0150095D01*
X0145196Y0150095D01*
X0144145Y0151146D01*
X0144145Y0153248D01*
X0145196Y0154299D01*
X0146246Y0154299D01*
X0147297Y0153248D01*
X0145196Y0156541D02*
X0144145Y0157592D01*
X0144145Y0159694D01*
X0145196Y0160745D01*
X0149399Y0156541D01*
X0150450Y0157592D01*
X0150450Y0159694D01*
X0149399Y0160745D01*
X0145196Y0160745D01*
X0144145Y0162986D02*
X0147297Y0162986D01*
X0146246Y0165088D01*
X0146246Y0166139D01*
X0147297Y0167190D01*
X0149399Y0167190D01*
X0150450Y0166139D01*
X0150450Y0164037D01*
X0149399Y0162986D01*
X0144145Y0162986D02*
X0144145Y0167190D01*
X0144145Y0169432D02*
X0144145Y0173636D01*
X0144145Y0171534D02*
X0150450Y0171534D01*
X0149399Y0156541D02*
X0145196Y0156541D01*
D21*
X0161849Y0116127D02*
X0162599Y0115377D01*
X0162599Y0116378D01*
X0161849Y0116127D02*
X0163350Y0116127D01*
X0163100Y0114904D02*
X0162099Y0114904D01*
X0161849Y0114654D01*
X0161849Y0113903D01*
X0163350Y0113903D01*
X0163350Y0114654D01*
X0163100Y0114904D01*
X0151750Y0059324D02*
X0151750Y0058323D01*
X0150749Y0059324D01*
X0150499Y0059324D01*
X0150249Y0059074D01*
X0150249Y0058573D01*
X0150499Y0058323D01*
X0150499Y0057851D02*
X0150249Y0057601D01*
X0150249Y0056850D01*
X0151750Y0056850D01*
X0151750Y0057601D01*
X0151500Y0057851D01*
X0150499Y0057851D01*
X0215249Y0057601D02*
X0215249Y0056850D01*
X0216750Y0056850D01*
X0216750Y0057601D01*
X0216500Y0057851D01*
X0215499Y0057851D01*
X0215249Y0057601D01*
X0215499Y0058323D02*
X0215249Y0058573D01*
X0215249Y0059074D01*
X0215499Y0059324D01*
X0215749Y0059324D01*
X0215999Y0059074D01*
X0216250Y0059324D01*
X0216500Y0059324D01*
X0216750Y0059074D01*
X0216750Y0058573D01*
X0216500Y0058323D01*
X0215999Y0058824D02*
X0215999Y0059074D01*
M02*
