%
M48
M72
T01C0.02400
T02C0.03200
T03C0.03543
T04C0.03937
T05C0.04000
T06C0.04400
T07C0.05500
T08C0.11811
T09C0.13000
%
T01
X125550Y109300
X199300Y156800
X203050Y179300
X199300Y184300
X203050Y195550
X208050Y195550
X214300Y195550
X213050Y201800
X218050Y201800
X229300Y204300
X230550Y211800
X235550Y211800
X224300Y221800
X228050Y225550
X224300Y235550
X216800Y238050
X206800Y238050
X195550Y229300
X181800Y215550
X166800Y221800
X166800Y201800
X144300Y184300
X139300Y184300
X140550Y215550
X144300Y256800
X196800Y260550
X203050Y265550
X198050Y269300
X200550Y294300
X228050Y279300
X260550Y273050
X261800Y251800
X281800Y231800
X288050Y230550
X284300Y224300
X258050Y220550
X254300Y229300
X239300Y236800
X205550Y214300
X200550Y214300
X188050Y188050
X186800Y180550
X224300Y189300
X228050Y185550
X239300Y199300
X241800Y191800
X256800Y181800
X279300Y154300
X306800Y186800
X206800Y321800
T02
X201800Y276800
X211800Y276800
X221800Y276800
X221800Y246800
X211800Y246800
X201800Y246800
X191800Y246800
X181800Y246800
X171800Y246800
X161800Y246800
X151800Y246800
X146800Y231800
X136800Y231800
X136800Y206800
X146800Y206800
X126800Y266800
X126800Y276800
X151800Y276800
X161800Y276800
X171800Y276800
X181800Y276800
X191800Y276800
X281800Y276800
X281800Y266800
X311800Y266800
X311800Y276800
X96800Y276800
X96800Y266800
T03
X156800Y121800
X156800Y91800
X156800Y81800
X156800Y51800
X221800Y51800
X221800Y81800
T04
X76800Y56800
X66800Y56800
X56800Y56800
X46800Y56800
X46800Y216800
X56800Y216800
X66800Y216800
X76800Y216800
T05
X171800Y136800
X181800Y136800
X191800Y136800
X201800Y136800
X211800Y136800
X271800Y136800
X271800Y126800
X271800Y116800
X271800Y106800
X271800Y96800
X311800Y121800
X311800Y131800
X311800Y141800
X311800Y151800
X311800Y176800
X301800Y176800
X271800Y171800
X271800Y181800
X271800Y191800
X271800Y201800
X271800Y211800
X271800Y221800
X301800Y211800
X311800Y211800
X341800Y211800
X341800Y201800
X341800Y191800
X341800Y181800
X341800Y171800
X341800Y161800
X341800Y151800
X341800Y141800
X371800Y136800
X371800Y146800
X371800Y156800
X371800Y166800
X375700Y184000
X357900Y184000
X357900Y209600
X375700Y209600
X271800Y146800
T06
X131800Y121800
X121800Y121800
X111800Y121800
T07
X111957Y71800
X131643Y71800
X176957Y71800
X196643Y71800
X66800Y241957
X66800Y261643
X56643Y321800
X36957Y321800
X81957Y321800
X101643Y321800
X126957Y321800
X146643Y321800
X171957Y321800
X191643Y321800
X216957Y321800
X236643Y321800
X261957Y321800
X281643Y321800
X306957Y321800
X326643Y321800
X351957Y321800
X371643Y321800
X341800Y261643
X341800Y241957
T08
X31800Y36800
X31800Y286800
X371800Y41800
X376800Y286800
T09
X121800Y180800
M30
