G75*
%MOIN*%
%OFA0B0*%
%FSLAX25Y25*%
%IPPOS*%
%LPD*%
%AMOC8*
5,1,8,0,0,1.08239X$1,22.5*
%
%ADD10C,0.12611*%
%ADD11C,0.05200*%
%ADD12OC8,0.06000*%
%ADD13C,0.08200*%
%ADD14C,0.06800*%
%ADD15C,0.06000*%
%ADD16C,0.09050*%
%ADD17R,0.06737X0.06737*%
%ADD18C,0.06737*%
%ADD19C,0.07400*%
%ADD20C,0.13800*%
%ADD21C,0.06343*%
%ADD22C,0.04800*%
D10*
X0031800Y0036800D03*
X0031800Y0286800D03*
X0371800Y0041800D03*
X0376800Y0286800D03*
D11*
X0169000Y0221800D02*
X0164600Y0221800D01*
X0164600Y0201800D02*
X0169000Y0201800D01*
D12*
X0146800Y0206800D03*
X0136800Y0206800D03*
X0136800Y0231800D03*
X0146800Y0231800D03*
D13*
X0357900Y0209600D03*
X0375700Y0209600D03*
X0375700Y0184000D03*
X0357900Y0184000D03*
D14*
X0344800Y0181800D02*
X0338800Y0181800D01*
X0338800Y0171800D02*
X0344800Y0171800D01*
X0344800Y0161800D02*
X0338800Y0161800D01*
X0338800Y0151800D02*
X0344800Y0151800D01*
X0344800Y0141800D02*
X0338800Y0141800D01*
X0314800Y0141800D02*
X0308800Y0141800D01*
X0308800Y0131800D02*
X0314800Y0131800D01*
X0314800Y0121800D02*
X0308800Y0121800D01*
X0308800Y0151800D02*
X0314800Y0151800D01*
X0311800Y0173800D02*
X0311800Y0179800D01*
X0301800Y0179800D02*
X0301800Y0173800D01*
X0274800Y0171800D02*
X0268800Y0171800D01*
X0268800Y0181800D02*
X0274800Y0181800D01*
X0274800Y0191800D02*
X0268800Y0191800D01*
X0268800Y0201800D02*
X0274800Y0201800D01*
X0274800Y0211800D02*
X0268800Y0211800D01*
X0268800Y0221800D02*
X0274800Y0221800D01*
X0301800Y0214800D02*
X0301800Y0208800D01*
X0311800Y0208800D02*
X0311800Y0214800D01*
X0338800Y0211800D02*
X0344800Y0211800D01*
X0344800Y0201800D02*
X0338800Y0201800D01*
X0338800Y0191800D02*
X0344800Y0191800D01*
X0368800Y0166800D02*
X0374800Y0166800D01*
X0374800Y0156800D02*
X0368800Y0156800D01*
X0368800Y0146800D02*
X0374800Y0146800D01*
X0374800Y0136800D02*
X0368800Y0136800D01*
X0274800Y0136800D02*
X0268800Y0136800D01*
X0268800Y0126800D02*
X0274800Y0126800D01*
X0274800Y0116800D02*
X0268800Y0116800D01*
X0268800Y0106800D02*
X0274800Y0106800D01*
X0274800Y0096800D02*
X0268800Y0096800D01*
X0268800Y0146800D02*
X0274800Y0146800D01*
X0211800Y0139800D02*
X0211800Y0133800D01*
X0201800Y0133800D02*
X0201800Y0139800D01*
X0191800Y0139800D02*
X0191800Y0133800D01*
X0181800Y0133800D02*
X0181800Y0139800D01*
X0171800Y0139800D02*
X0171800Y0133800D01*
D15*
X0171800Y0244200D02*
X0171800Y0249400D01*
X0181800Y0249400D02*
X0181800Y0244200D01*
X0191800Y0244200D02*
X0191800Y0249400D01*
X0201800Y0249400D02*
X0201800Y0244200D01*
X0211800Y0244200D02*
X0211800Y0249400D01*
X0221800Y0249400D02*
X0221800Y0244200D01*
X0221800Y0274200D02*
X0221800Y0279400D01*
X0211800Y0279400D02*
X0211800Y0274200D01*
X0201800Y0274200D02*
X0201800Y0279400D01*
X0191800Y0279400D02*
X0191800Y0274200D01*
X0181800Y0274200D02*
X0181800Y0279400D01*
X0171800Y0279400D02*
X0171800Y0274200D01*
X0161800Y0274200D02*
X0161800Y0279400D01*
X0151800Y0279400D02*
X0151800Y0274200D01*
X0132000Y0276800D02*
X0126800Y0276800D01*
X0126800Y0266800D02*
X0132000Y0266800D01*
X0151800Y0249400D02*
X0151800Y0244200D01*
X0161800Y0244200D02*
X0161800Y0249400D01*
X0096800Y0266800D02*
X0091600Y0266800D01*
X0091600Y0276800D02*
X0096800Y0276800D01*
X0276600Y0276800D02*
X0281800Y0276800D01*
X0281800Y0266800D02*
X0276600Y0266800D01*
X0311800Y0266800D02*
X0317000Y0266800D01*
X0317000Y0276800D02*
X0311800Y0276800D01*
D16*
X0337675Y0261643D02*
X0345925Y0261643D01*
X0345925Y0241957D02*
X0337675Y0241957D01*
X0326643Y0317675D02*
X0326643Y0325925D01*
X0306957Y0325925D02*
X0306957Y0317675D01*
X0281643Y0317675D02*
X0281643Y0325925D01*
X0261957Y0325925D02*
X0261957Y0317675D01*
X0236643Y0317675D02*
X0236643Y0325925D01*
X0216957Y0325925D02*
X0216957Y0317675D01*
X0191643Y0317675D02*
X0191643Y0325925D01*
X0171957Y0325925D02*
X0171957Y0317675D01*
X0146643Y0317675D02*
X0146643Y0325925D01*
X0126957Y0325925D02*
X0126957Y0317675D01*
X0101643Y0317675D02*
X0101643Y0325925D01*
X0081957Y0325925D02*
X0081957Y0317675D01*
X0056643Y0317675D02*
X0056643Y0325925D01*
X0036957Y0325925D02*
X0036957Y0317675D01*
X0062675Y0261643D02*
X0070925Y0261643D01*
X0070925Y0241957D02*
X0062675Y0241957D01*
X0111957Y0075925D02*
X0111957Y0067675D01*
X0131643Y0067675D02*
X0131643Y0075925D01*
X0176957Y0075925D02*
X0176957Y0067675D01*
X0196643Y0067675D02*
X0196643Y0075925D01*
X0351957Y0317675D02*
X0351957Y0325925D01*
X0371643Y0325925D02*
X0371643Y0317675D01*
D17*
X0076800Y0056800D03*
X0046800Y0216800D03*
D18*
X0056800Y0216800D03*
X0066800Y0216800D03*
X0076800Y0216800D03*
X0066800Y0056800D03*
X0056800Y0056800D03*
X0046800Y0056800D03*
D19*
X0111800Y0118500D02*
X0111800Y0125100D01*
X0121800Y0125100D02*
X0121800Y0118500D01*
X0131800Y0118500D02*
X0131800Y0125100D01*
D20*
X0121800Y0180800D03*
D21*
X0156800Y0121800D03*
X0156800Y0091800D03*
X0156800Y0081800D03*
X0156800Y0051800D03*
X0221800Y0051800D03*
X0221800Y0081800D03*
D22*
X0199300Y0156800D03*
X0203050Y0179300D03*
X0199300Y0184300D03*
X0203050Y0195550D03*
X0208050Y0195550D03*
X0214300Y0195550D03*
X0213050Y0201800D03*
X0218050Y0201800D03*
X0229300Y0204300D03*
X0230550Y0211800D03*
X0235550Y0211800D03*
X0224300Y0221800D03*
X0228050Y0225550D03*
X0224300Y0235550D03*
X0216800Y0238050D03*
X0206800Y0238050D03*
X0195550Y0229300D03*
X0181800Y0215550D03*
X0200550Y0214300D03*
X0205550Y0214300D03*
X0224300Y0189300D03*
X0228050Y0185550D03*
X0239300Y0199300D03*
X0241800Y0191800D03*
X0256800Y0181800D03*
X0279300Y0154300D03*
X0306800Y0186800D03*
X0284300Y0224300D03*
X0288050Y0230550D03*
X0281800Y0231800D03*
X0258050Y0220550D03*
X0254300Y0229300D03*
X0239300Y0236800D03*
X0261800Y0251800D03*
X0260550Y0273050D03*
X0228050Y0279300D03*
X0203050Y0265550D03*
X0198050Y0269300D03*
X0196800Y0260550D03*
X0200550Y0294300D03*
X0206800Y0321800D03*
X0144300Y0256800D03*
X0140550Y0215550D03*
X0139300Y0184300D03*
X0144300Y0184300D03*
X0186800Y0180550D03*
X0188050Y0188050D03*
X0125550Y0109300D03*
M02*
